<svg width="551" height="536" viewBox="0 0 551 536" fill="none" xmlns="http://www.w3.org/2000/svg">
<path d="M48.3513 74.5561V79.2806" stroke="#475B5B" stroke-miterlimit="10" stroke-linecap="round" stroke-linejoin="round"/>
<path d="M48.3513 84.3236V89.0481" stroke="#475B5B" stroke-miterlimit="10" stroke-linecap="round" stroke-linejoin="round"/>
<path d="M55.8001 81.8021H50.9434" stroke="#475B5B" stroke-miterlimit="10" stroke-linecap="round" stroke-linejoin="round"/>
<path d="M45.7592 81.8021H40.9025" stroke="#475B5B" stroke-miterlimit="10" stroke-linecap="round" stroke-linejoin="round"/>
<path d="M373.497 396.105V400.06" stroke="#475B5B" stroke-miterlimit="10" stroke-linecap="round" stroke-linejoin="round"/>
<path d="M373.497 404.281V408.235" stroke="#475B5B" stroke-miterlimit="10" stroke-linecap="round" stroke-linejoin="round"/>
<path d="M379.731 402.17H375.666" stroke="#475B5B" stroke-miterlimit="10" stroke-linecap="round" stroke-linejoin="round"/>
<path d="M371.327 402.17H367.262" stroke="#475B5B" stroke-miterlimit="10" stroke-linecap="round" stroke-linejoin="round"/>
<path d="M186.848 375.514V379.468" stroke="#475B5B" stroke-miterlimit="10" stroke-linecap="round" stroke-linejoin="round"/>
<path d="M186.848 383.689V387.643" stroke="#475B5B" stroke-miterlimit="10" stroke-linecap="round" stroke-linejoin="round"/>
<path d="M193.083 381.579H189.018" stroke="#475B5B" stroke-miterlimit="10" stroke-linecap="round" stroke-linejoin="round"/>
<path d="M184.679 381.579H180.614" stroke="#475B5B" stroke-miterlimit="10" stroke-linecap="round" stroke-linejoin="round"/>
<path d="M487.007 70.4494V75.3984" stroke="#475B5B" stroke-miterlimit="10" stroke-linecap="round" stroke-linejoin="round"/>
<path d="M487.007 80.681V85.6299" stroke="#475B5B" stroke-miterlimit="10" stroke-linecap="round" stroke-linejoin="round"/>
<path d="M494.81 78.0397H489.722" stroke="#475B5B" stroke-miterlimit="10" stroke-linecap="round" stroke-linejoin="round"/>
<path d="M484.292 78.0397H479.204" stroke="#475B5B" stroke-miterlimit="10" stroke-linecap="round" stroke-linejoin="round"/>
<path d="M28.6744 176.949C30.901 176.949 32.706 175.193 32.706 173.027C32.706 170.861 30.901 169.106 28.6744 169.106C26.4477 169.106 24.6427 170.861 24.6427 173.027C24.6427 175.193 26.4477 176.949 28.6744 176.949Z" stroke="#475B5B" stroke-miterlimit="10" stroke-linecap="round" stroke-linejoin="round"/>
<path d="M505.358 171.157C507.584 171.157 509.389 169.401 509.389 167.235C509.389 165.069 507.584 163.313 505.358 163.313C503.131 163.313 501.326 165.069 501.326 167.235C501.326 169.401 503.131 171.157 505.358 171.157Z" stroke="#475B5B" stroke-miterlimit="10" stroke-linecap="round" stroke-linejoin="round"/>
<path d="M296.094 369.819C298.32 369.819 300.125 368.063 300.125 365.897C300.125 363.731 298.32 361.975 296.094 361.975C293.867 361.975 292.062 363.731 292.062 365.897C292.062 368.063 293.867 369.819 296.094 369.819Z" stroke="#475B5B" stroke-miterlimit="10" stroke-linecap="round" stroke-linejoin="round"/>
<path d="M52.4299 121.156C53.9867 121.156 55.2488 119.928 55.2488 118.414C55.2488 116.899 53.9867 115.672 52.4299 115.672C50.8731 115.672 49.6111 116.899 49.6111 118.414C49.6111 119.928 50.8731 121.156 52.4299 121.156Z" fill="#E9F3FF"/>
<path d="M212.651 406.156C214.945 406.156 216.804 404.347 216.804 402.115C216.804 399.884 214.945 398.075 212.651 398.075C210.357 398.075 208.497 399.884 208.497 402.115C208.497 404.347 210.357 406.156 212.651 406.156Z" fill="#E9F3FF"/>
<path d="M485.761 412.848C487.07 412.848 488.132 411.815 488.132 410.542C488.132 409.268 487.07 408.235 485.761 408.235C484.451 408.235 483.389 409.268 483.389 410.542C483.389 411.815 484.451 412.848 485.761 412.848Z" fill="#E9F3FF"/>
<path d="M394.828 90.3839C397.527 90.3839 399.715 88.2555 399.715 85.6299C399.715 83.0044 397.527 80.8759 394.828 80.8759C392.129 80.8759 389.941 83.0044 389.941 85.6299C389.941 88.2555 392.129 90.3839 394.828 90.3839Z" fill="#E9F3FF"/>
<path d="M222.904 90.9727H187.672C185.831 90.9727 184.339 92.4242 184.339 94.2147V98.6726H226.237V94.2147C226.237 92.4242 224.745 90.9727 222.904 90.9727Z" fill="#878D8B"/>
<path d="M260.192 90.9727H241.49C239.649 90.9727 238.157 92.4242 238.157 94.2147V98.6726H263.525V94.2147C263.525 92.4242 262.033 90.9727 260.192 90.9727Z" fill="#878D8B"/>
<path d="M476.503 350.916H155.896C150.095 350.916 145.392 346.341 145.392 340.698V108.891C145.392 103.247 150.095 98.6726 155.896 98.6726H476.503C482.304 98.6726 487.007 103.247 487.007 108.891V340.698C487.007 346.341 482.304 350.916 476.503 350.916Z" fill="#475B5B"/>
<path d="M152.279 253.186C150.839 253.186 149.671 252.051 149.671 250.649V198.939C149.671 197.538 150.839 196.402 152.279 196.402C153.719 196.402 154.887 197.538 154.887 198.939V250.649C154.887 252.051 153.719 253.186 152.279 253.186Z" fill="#878D8B"/>
<path d="M473.232 337.516L473.232 112.073L159.167 112.073L159.167 337.516L473.232 337.516Z" fill="white"/>
<path d="M324.868 151.906L327.405 149.438C329.416 147.482 332.677 147.482 334.688 149.438L339.762 154.374C341.773 156.33 345.033 156.33 347.045 154.374L365.539 136.383C367.55 134.427 370.81 134.427 372.822 136.383L384.442 147.687C386.453 149.643 389.714 149.643 391.725 147.687C393.736 145.73 396.997 145.73 399.008 147.687L401.381 149.995C403.392 151.952 406.653 151.952 408.664 149.995L420.325 138.652C422.336 136.695 425.597 136.695 427.608 138.652L437.673 148.443C439.684 150.399 442.945 150.399 444.956 148.443L449.293 144.224" stroke="#F9CFA9" stroke-miterlimit="10"/>
<path d="M343.403 158.11C344.691 158.11 345.735 157.094 345.735 155.841C345.735 154.588 344.691 153.572 343.403 153.572C342.115 153.572 341.071 154.588 341.071 155.841C341.071 157.094 342.115 158.11 343.403 158.11Z" fill="#878D8B"/>
<path d="M331.047 150.115C332.244 150.115 333.215 149.17 333.215 148.005C333.215 146.84 332.244 145.896 331.047 145.896C329.849 145.896 328.878 146.84 328.878 148.005C328.878 149.17 329.849 150.115 331.047 150.115Z" fill="#878D8B"/>
<path d="M369.18 137.662C370.739 137.662 372.003 136.433 372.003 134.916C372.003 133.399 370.739 132.169 369.18 132.169C367.621 132.169 366.357 133.399 366.357 134.916C366.357 136.433 367.621 137.662 369.18 137.662Z" fill="#878D8B"/>
<path d="M388.083 150.791C388.874 150.791 389.515 150.168 389.515 149.398C389.515 148.629 388.874 148.005 388.083 148.005C387.292 148.005 386.651 148.629 386.651 149.398C386.651 150.168 387.292 150.791 388.083 150.791Z" fill="#878D8B"/>
<path d="M395.366 148.562C396.699 148.562 397.78 147.511 397.78 146.214C397.78 144.917 396.699 143.866 395.366 143.866C394.033 143.866 392.952 144.917 392.952 146.214C392.952 147.511 394.033 148.562 395.366 148.562Z" fill="#878D8B"/>
<path d="M405.022 152.981C405.836 152.981 406.495 152.339 406.495 151.548C406.495 150.756 405.836 150.115 405.022 150.115C404.209 150.115 403.549 150.756 403.549 151.548C403.549 152.339 404.209 152.981 405.022 152.981Z" fill="#878D8B"/>
<path d="M423.966 139.374C425.232 139.374 426.258 138.376 426.258 137.145C426.258 135.914 425.232 134.916 423.966 134.916C422.701 134.916 421.675 135.914 421.675 137.145C421.675 138.376 422.701 139.374 423.966 139.374Z" fill="#878D8B"/>
<path d="M441.315 151.667C442.196 151.667 442.91 150.972 442.91 150.115C442.91 149.257 442.196 148.562 441.315 148.562C440.433 148.562 439.719 149.257 439.719 150.115C439.719 150.972 440.433 151.667 441.315 151.667Z" fill="#878D8B"/>
<path d="M350.543 324.169H350.543C346.6 324.169 343.403 321.059 343.403 317.223V289.083C343.403 285.248 346.6 282.138 350.543 282.138H350.543C354.486 282.138 357.683 285.248 357.683 289.083V317.223C357.683 321.059 354.486 324.169 350.543 324.169Z" fill="#475B5B"/>
<path d="M373.497 324.169H373.497C369.554 324.169 366.357 321.059 366.357 317.223V278.682C366.357 274.846 369.554 271.736 373.497 271.736H373.497C377.44 271.736 380.637 274.846 380.637 278.682V317.223C380.637 321.059 377.44 324.169 373.497 324.169Z" fill="#475B5B"/>
<path d="M396.451 324.169C392.507 324.169 389.311 321.059 389.311 317.223V261.487C389.311 257.651 392.507 254.542 396.451 254.542C400.394 254.542 403.59 257.651 403.59 261.487V317.223C403.59 321.059 400.394 324.169 396.451 324.169Z" fill="#475B5B"/>
<path d="M419.404 324.169C415.461 324.169 412.264 321.059 412.264 317.223V295.452C412.264 291.616 415.461 288.506 419.404 288.506C423.348 288.506 426.544 291.616 426.544 295.452V317.223C426.544 321.059 423.348 324.169 419.404 324.169Z" fill="#475B5B"/>
<path d="M442.358 324.169C438.415 324.169 435.218 321.059 435.218 317.223V266.37C435.218 262.534 438.415 259.424 442.358 259.424C446.301 259.424 449.498 262.534 449.498 266.37V317.223C449.498 321.059 446.301 324.169 442.358 324.169Z" fill="#475B5B"/>
<path d="M349.609 270.463C349.609 270.463 363.459 267.315 373.497 256.877C384.051 245.902 389.188 241.168 395.366 241.168C401.545 241.168 407.709 245.626 411.419 259.424C415.129 273.222 420.257 277.892 425.985 263.245C431.713 248.598 434.727 242.442 442.358 242.442" stroke="#878D8B" stroke-miterlimit="10"/>
<path d="M350.543 274.708C352.953 274.708 354.907 272.807 354.907 270.463C354.907 268.118 352.953 266.217 350.543 266.217C348.133 266.217 346.179 268.118 346.179 270.463C346.179 272.807 348.133 274.708 350.543 274.708Z" fill="#F9CFA9"/>
<path d="M373.497 260.947C375.907 260.947 377.861 259.047 377.861 256.702C377.861 254.357 375.907 252.456 373.497 252.456C371.086 252.456 369.132 254.357 369.132 256.702C369.132 259.047 371.086 260.947 373.497 260.947Z" fill="#F9CFA9"/>
<path d="M396.451 245.414C398.861 245.414 400.815 243.513 400.815 241.168C400.815 238.824 398.861 236.923 396.451 236.923C394.04 236.923 392.086 238.824 392.086 241.168C392.086 243.513 394.04 245.414 396.451 245.414Z" fill="#F9CFA9"/>
<path d="M419.404 274.708C421.815 274.708 423.769 272.807 423.769 270.463C423.769 268.118 421.815 266.217 419.404 266.217C416.994 266.217 415.04 268.118 415.04 270.463C415.04 272.807 416.994 274.708 419.404 274.708Z" fill="#F9CFA9"/>
<path d="M442.358 247.083C444.768 247.083 446.722 245.182 446.722 242.837C446.722 240.493 444.768 238.592 442.358 238.592C439.948 238.592 437.994 240.493 437.994 242.837C437.994 245.182 439.948 247.083 442.358 247.083Z" fill="#F9CFA9"/>
<path d="M445.079 223.947H330.678C328.238 223.947 326.259 222.023 326.259 219.649V176.503C326.259 174.129 328.238 172.205 330.678 172.205H445.079C447.519 172.205 449.498 174.129 449.498 176.503V219.649C449.498 222.023 447.519 223.947 445.079 223.947Z" stroke="#475B5B" stroke-miterlimit="10"/>
<path d="M363.008 180.643C353.108 180.643 345.091 188.442 345.091 198.072C345.091 207.702 353.108 215.51 363.008 215.51C372.907 215.51 380.934 207.702 380.934 198.072C380.934 188.442 372.907 180.643 363.008 180.643ZM363.008 206.487C358.232 206.487 354.366 202.717 354.366 198.072C354.366 193.426 358.232 189.665 363.008 189.665C367.783 189.665 371.658 193.426 371.658 198.072C371.658 202.717 367.783 206.487 363.008 206.487Z" fill="#878D8B"/>
<path d="M363.017 178.856V191.452H363.008C359.252 191.452 356.203 194.418 356.203 198.072H343.254C343.254 187.477 352.116 178.856 363.008 178.856H363.017Z" fill="#F9CFA9"/>
<path d="M396.66 198.072C396.66 207.702 404.687 215.51 414.586 215.51C424.486 215.51 432.503 207.702 432.503 198.072C432.503 188.442 424.486 180.643 414.586 180.643C404.687 180.643 396.66 188.442 396.66 198.072ZM405.936 198.072C405.936 193.426 409.811 189.665 414.586 189.665C419.362 189.665 423.228 193.426 423.228 198.072C423.228 202.717 419.362 206.487 414.586 206.487C409.811 206.487 405.936 202.717 405.936 198.072Z" fill="#878D8B"/>
<path d="M394.828 198.072C394.828 208.676 403.681 217.287 414.581 217.296V204.7C410.825 204.691 407.777 201.725 407.777 198.072C407.777 194.418 410.825 191.461 414.581 191.452V178.856C403.681 178.865 394.828 187.477 394.828 198.072Z" fill="#F9CFA9"/>
<path d="M305.668 324.169H191.267C188.827 324.169 186.848 322.244 186.848 319.87V303.949C186.848 301.575 188.827 299.651 191.267 299.651H305.668C308.109 299.651 310.087 301.575 310.087 303.949V319.87C310.087 322.244 308.109 324.169 305.668 324.169Z" fill="#878D8B"/>
<path d="M198.878 318.384H196.586C195.366 318.384 194.377 317.422 194.377 316.235V307.585C194.377 306.398 195.366 305.435 196.586 305.435H198.878C200.098 305.435 201.087 306.398 201.087 307.585V316.235C201.087 317.422 200.098 318.384 198.878 318.384Z" fill="#475B5B"/>
<path d="M209.025 318.384H206.734C205.513 318.384 204.524 317.422 204.524 316.235V316.235C204.524 315.048 205.513 314.086 206.734 314.086H209.025C210.245 314.086 211.234 315.048 211.234 316.235V316.235C211.234 317.422 210.245 318.384 209.025 318.384Z" fill="white"/>
<path d="M219.172 318.384H216.881C215.66 318.384 214.671 317.422 214.671 316.235V311.936C214.671 310.749 215.66 309.787 216.881 309.787H219.172C220.392 309.787 221.381 310.749 221.381 311.936V316.235C221.381 317.422 220.392 318.384 219.172 318.384Z" fill="#F9CFA9"/>
<path d="M229.319 318.384H227.028C225.808 318.384 224.818 317.422 224.818 316.235V307.585C224.818 306.398 225.808 305.435 227.028 305.435H229.319C230.539 305.435 231.529 306.398 231.529 307.585V316.235C231.529 317.422 230.539 318.384 229.319 318.384Z" fill="#475B5B"/>
<path d="M239.466 318.384H237.175C235.955 318.384 234.965 317.422 234.965 316.235V316.235C234.965 315.048 235.955 314.086 237.175 314.086H239.466C240.686 314.086 241.676 315.048 241.676 316.235V316.235C241.676 317.422 240.686 318.384 239.466 318.384Z" fill="white"/>
<path d="M249.613 318.384H247.322C246.102 318.384 245.113 317.422 245.113 316.235V311.936C245.113 310.749 246.102 309.787 247.322 309.787H249.613C250.834 309.787 251.823 310.749 251.823 311.936V316.235C251.823 317.422 250.834 318.384 249.613 318.384Z" fill="#F9CFA9"/>
<path d="M259.76 318.384H257.469C256.249 318.384 255.26 317.422 255.26 316.235V307.585C255.26 306.398 256.249 305.435 257.469 305.435H259.76C260.981 305.435 261.97 306.398 261.97 307.585V316.235C261.97 317.422 260.981 318.384 259.76 318.384Z" fill="#475B5B"/>
<path d="M269.908 318.384H267.616C266.396 318.384 265.407 317.422 265.407 316.235V316.235C265.407 315.048 266.396 314.086 267.616 314.086H269.908C271.128 314.086 272.117 315.048 272.117 316.235V316.235C272.117 317.422 271.128 318.384 269.908 318.384Z" fill="white"/>
<path d="M280.055 318.384H277.763C276.543 318.384 275.554 317.422 275.554 316.235V311.936C275.554 310.749 276.543 309.787 277.763 309.787H280.055C281.275 309.787 282.264 310.749 282.264 311.936V316.235C282.264 317.422 281.275 318.384 280.055 318.384Z" fill="#F9CFA9"/>
<path d="M290.202 318.384H287.911C286.69 318.384 285.701 317.422 285.701 316.235V307.585C285.701 306.398 286.69 305.435 287.911 305.435H290.202C291.422 305.435 292.411 306.398 292.411 307.585V316.235C292.411 317.422 291.422 318.384 290.202 318.384Z" fill="#475B5B"/>
<path d="M300.349 318.384H298.058C296.837 318.384 295.848 317.422 295.848 316.235V316.235C295.848 315.048 296.837 314.086 298.058 314.086H300.349C301.569 314.086 302.558 315.048 302.558 316.235V316.235C302.558 317.422 301.569 318.384 300.349 318.384Z" fill="white"/>
<path d="M305.668 286.914H191.267C188.827 286.914 186.848 284.99 186.848 282.616V221.055C186.848 218.681 188.827 216.757 191.267 216.757H305.668C308.109 216.757 310.087 218.681 310.087 221.055V282.616C310.087 284.99 308.109 286.914 305.668 286.914Z" stroke="#475B5B" stroke-miterlimit="10"/>
<path d="M211.316 216.757V286.914" stroke="#475B5B" stroke-miterlimit="10"/>
<path d="M236.084 216.757V286.914" stroke="#475B5B" stroke-miterlimit="10"/>
<path d="M260.852 216.757V286.914" stroke="#475B5B" stroke-miterlimit="10"/>
<path d="M285.619 216.757V286.914" stroke="#475B5B" stroke-miterlimit="10"/>
<path d="M310.087 239.223H186.849" stroke="#475B5B" stroke-miterlimit="10"/>
<path d="M310.087 264.448H186.849" stroke="#475B5B" stroke-miterlimit="10"/>
<path d="M239.384 206.673H191.267C188.827 206.673 186.848 204.749 186.848 202.375V202.375C186.848 200.001 188.827 198.076 191.267 198.076H239.384C241.825 198.076 243.803 200.001 243.803 202.375V202.375C243.803 204.749 241.825 206.673 239.384 206.673Z" fill="#475B5B"/>
<path d="M217.617 206.673H191.267C188.827 206.673 186.848 204.749 186.848 202.375V202.375C186.848 200.001 188.827 198.076 191.267 198.076H217.617C220.058 198.076 222.036 200.001 222.036 202.375V202.375C222.036 204.749 220.058 206.673 217.617 206.673Z" fill="#F9CFA9"/>
<path d="M253.378 206.673C255.818 206.673 257.796 204.749 257.796 202.375C257.796 200.001 255.818 198.076 253.378 198.076C250.937 198.076 248.959 200.001 248.959 202.375C248.959 204.749 250.937 206.673 253.378 206.673Z" fill="#F9CFA9"/>
<path d="M291.675 206.673H267.596C265.155 206.673 263.177 204.749 263.177 202.375V202.375C263.177 200.001 265.155 198.076 267.596 198.076H291.675C294.115 198.076 296.094 200.001 296.094 202.375V202.375C296.094 204.749 294.115 206.673 291.675 206.673Z" fill="#475B5B"/>
<path d="M269.908 206.673H267.596C265.155 206.673 263.177 204.749 263.177 202.375V202.375C263.177 200.001 265.155 198.076 267.596 198.076H269.908C272.348 198.076 274.327 200.001 274.327 202.375V202.375C274.327 204.749 272.348 206.673 269.908 206.673Z" fill="#F9CFA9"/>
<path d="M305.668 206.673C308.109 206.673 310.087 204.749 310.087 202.375C310.087 200.001 308.109 198.076 305.668 198.076C303.228 198.076 301.249 200.001 301.249 202.375C301.249 204.749 303.228 206.673 305.668 206.673Z" fill="#F9CFA9"/>
<path d="M281.2 184.315H191.267C188.827 184.315 186.848 182.391 186.848 180.017V133.675C186.848 131.301 188.827 129.377 191.267 129.377H281.2C283.641 129.377 285.619 131.301 285.619 133.675V180.017C285.619 182.391 283.641 184.315 281.2 184.315Z" stroke="#475B5B" stroke-miterlimit="10"/>
<path d="M234.892 156.843C234.892 167 226.434 175.228 216.002 175.228C205.561 175.228 197.103 167 197.103 156.843C197.103 146.695 205.561 138.467 216.002 138.467V156.843H234.892V156.843Z" fill="#878D8B"/>
<path d="M236.729 155.056H217.839V136.68C228.271 136.68 236.729 144.908 236.729 155.056Z" fill="#F9CFA9"/>
<path d="M271.115 146.214H252.171C250.397 146.214 248.959 144.815 248.959 143.09C248.959 141.364 250.397 139.965 252.171 139.965H271.115C272.889 139.965 274.327 141.364 274.327 143.09C274.327 144.815 272.889 146.214 271.115 146.214Z" fill="#F9CFA9"/>
<path d="M271.115 155.841H268.073C266.299 155.841 264.861 154.442 264.861 152.716C264.861 150.991 266.299 149.592 268.073 149.592H271.115C272.889 149.592 274.327 150.991 274.327 152.716C274.327 154.442 272.889 155.841 271.115 155.841Z" fill="#878D8B"/>
<path d="M244.049 144.937C245.098 144.937 245.948 144.11 245.948 143.09C245.948 142.069 245.098 141.242 244.049 141.242C243 141.242 242.15 142.069 242.15 143.09C242.15 144.11 243 144.937 244.049 144.937Z" stroke="#475B5B" stroke-miterlimit="10"/>
<path d="M242.15 143.09H228.037" stroke="#475B5B" stroke-miterlimit="10"/>
<path d="M271.115 166.403H252.171C250.397 166.403 248.959 165.004 248.959 163.278C248.959 161.553 250.397 160.154 252.171 160.154H271.115C272.889 160.154 274.327 161.553 274.327 163.278C274.327 165.004 272.889 166.403 271.115 166.403Z" fill="#F9CFA9"/>
<path d="M271.115 176.029H268.073C266.299 176.029 264.861 174.631 264.861 172.905C264.861 171.179 266.299 169.78 268.073 169.78H271.115C272.889 169.78 274.327 171.179 274.327 172.905C274.327 174.631 272.889 176.029 271.115 176.029Z" fill="#878D8B"/>
<path d="M244.049 165.126C245.098 165.126 245.948 164.299 245.948 163.278C245.948 162.258 245.098 161.431 244.049 161.431C243 161.431 242.15 162.258 242.15 163.278C242.15 164.299 243 165.126 244.049 165.126Z" stroke="#475B5B" stroke-miterlimit="10"/>
<path d="M242.15 163.278H228.037" stroke="#475B5B" stroke-miterlimit="10"/>
<path d="M438.375 331.968C438.375 331.968 423.997 312.387 428.088 283.73C432.18 255.073 448.219 252.525 455.911 257.301C463.603 262.078 465.731 277.521 458.857 292.327C451.983 307.134 440.479 324.005 438.375 331.968Z" fill="#F9CFA9"/>
<path d="M439.654 354.524C439.654 354.524 440.515 345.723 444.345 338.922C448.71 331.174 457.657 333.69 456.347 340.923C455.038 348.156 442.927 349.854 439.654 354.524Z" fill="#878D8B"/>
<path d="M449.498 264.731C449.498 264.731 432.453 337.33 437.908 378.936" stroke="#475B5B" stroke-opacity="0.7" stroke-miterlimit="10" stroke-linecap="round" stroke-linejoin="round"/>
<path d="M462.936 340.923C462.936 340.923 477.351 331.599 497.973 321.834C518.594 312.069 531.196 294.008 528.414 279.077C525.632 264.147 505.501 259.053 485.207 280.864C465.546 301.994 462.936 340.923 462.936 340.923Z" fill="#878D8B"/>
<path d="M456.477 363.83C456.477 363.83 466.856 347.838 484.095 345.29C501.334 342.743 506.68 350.279 505.371 357.709C504.083 365.017 493.371 367.409 481.422 364.982C468.274 362.311 456.477 363.83 456.477 363.83Z" fill="#F9CFA9"/>
<path d="M445.655 378.936C445.655 378.936 467.367 315.041 513.411 276.406" stroke="#DEEBFF" stroke-miterlimit="10" stroke-linecap="round" stroke-linejoin="round"/>
<path d="M413.432 334.743C413.432 334.743 408.449 310.309 391.1 298.293C373.752 286.277 363.018 299.969 371.658 310.318C380.299 320.666 404.831 327.803 413.432 334.743Z" fill="#878D8B"/>
<path d="M423.228 358.526C423.228 358.526 410.576 346.458 395.847 346.458C376.534 346.458 382.446 361.698 394.828 359.593C408.612 357.25 423.228 358.526 423.228 358.526Z" fill="#F9CFA9"/>
<path d="M380.299 302.91C380.299 302.91 424.673 332.448 435.218 378.936" stroke="#DEEBFF" stroke-miterlimit="10" stroke-linecap="round" stroke-linejoin="round"/>
<path d="M467.572 377.023C469.238 377.023 470.561 378.408 470.413 380.021C470.412 380.031 470.411 380.041 470.41 380.051C467.881 408.976 458.622 425.303 455.715 429.8C455.194 430.605 454.285 431.087 453.308 431.087H424.744C423.761 431.087 422.851 430.596 422.328 429.786C421.641 428.721 420.601 427 419.378 424.611C418.359 422.601 417.202 420.126 416.026 417.169C412.658 408.729 409.069 396.39 407.646 380.039C407.505 378.42 408.818 377.023 410.489 377.023H467.572V377.023Z" fill="#F9CFA9"/>
<path d="M470.412 380.021L470.41 380.051C463.587 381.954 454.881 386.617 448.103 397.829C437.57 415.257 428.864 422.788 419.378 424.611C418.359 422.601 417.202 420.126 416.026 417.169C420.379 414.998 425.889 410.291 429.167 400.16C432.611 389.556 436 381.954 441.684 377.023H467.572C469.238 377.023 470.561 378.408 470.412 380.021Z" fill="#475B5B" fill-opacity="0.7"/>
<path d="M424.01 387.565C419.761 385.389 413.345 395.98 417.643 398.276C421.941 400.573 429.132 390.187 424.01 387.565Z" fill="#475B5B" fill-opacity="0.7"/>
<path d="M458.428 411.665C453.506 406.84 439.846 418.815 444.781 423.829C449.717 428.842 464.36 417.48 458.428 411.665Z" fill="#475B5B" fill-opacity="0.7"/>
<path d="M394.134 431.086H497.176" stroke="#475B5B" stroke-miterlimit="10" stroke-linecap="round" stroke-linejoin="round"/>
<path d="M46.2762 431.086H369.404" stroke="#475B5B" stroke-miterlimit="10" stroke-linecap="round" stroke-linejoin="round"/>
<path d="M148.667 448.318H97.1742" stroke="#475B5B" stroke-miterlimit="10" stroke-linecap="round" stroke-linejoin="round"/>
<path d="M461.087 448.318H165.434" stroke="#475B5B" stroke-miterlimit="10" stroke-linecap="round" stroke-linejoin="round"/>
<path d="M317.523 465.551H352.421" stroke="#475B5B" stroke-miterlimit="10" stroke-linecap="round" stroke-linejoin="round"/>
<path d="M149.069 465.551H306.006" stroke="#475B5B" stroke-miterlimit="10" stroke-linecap="round" stroke-linejoin="round"/>
<path d="M113.036 385.782L113.364 400.907H122.038L122.692 385.782H113.036Z" fill="#ECBDBB"/>
<path d="M110.745 395.812H126.293C126.293 395.812 131.018 405.63 149.37 417.305C161.118 424.78 158.26 431.086 158.26 431.086H126.129L117.89 417.925L117.368 431.086H108.623C107.816 410.602 110.745 395.812 110.745 395.812Z" fill="#475B5B"/>
<path d="M91.5964 227.052L93.9465 391.355H145.392C145.392 391.355 138.731 308.248 126.893 227.211C121.056 206.037 92.9057 209.858 91.5964 227.052Z" fill="#878D8B"/>
<path d="M119.419 230.661C119.419 230.661 118.219 241.168 126.402 241.381" stroke="#475B5B" stroke-miterlimit="10" stroke-linecap="round" stroke-linejoin="round"/>
<path d="M107.582 381.579L100.543 256.452L101.887 255.442C104.055 253.813 105.273 251.26 105.154 248.598L104.253 228.432" stroke="#475B5B" stroke-miterlimit="10" stroke-linecap="round" stroke-linejoin="round"/>
<path d="M139.57 383.465H98.5171" stroke="#475B5B" stroke-miterlimit="10" stroke-linecap="round" stroke-linejoin="round"/>
<path d="M43.3331 384.047L39.6758 398.75L48.0619 400.907L52.6685 386.447L43.3331 384.047Z" fill="#ECBDBB"/>
<path d="M36.7691 395.812H52.3172C52.3172 395.812 57.042 405.63 75.3937 417.305C87.1421 424.78 84.2846 431.086 84.2846 431.086H52.1535L43.9146 417.925L43.3922 431.086H34.6473C33.8399 410.602 36.7691 395.812 36.7691 395.812Z" fill="#475B5B"/>
<path d="M64.3083 225.258L22.2031 387.64L73.0478 393.796C73.0478 393.796 88.5454 315.476 98.3909 234.187C98.3107 212.264 70.0916 208.96 64.3083 225.258Z" fill="#878D8B"/>
<path d="M93.1982 273.51C95.0186 260.702 96.7804 247.484 98.3909 234.187C98.379 230.937 97.7489 228.097 96.6652 225.669" stroke="#475B5B" stroke-miterlimit="10" stroke-linecap="round" stroke-linejoin="round"/>
<path d="M39.1645 378.627L68.1925 246.953L70.6725 246.269C75.2089 245.019 78.7042 241.493 79.8238 237.038L81.6129 229.918" stroke="#475B5B" stroke-miterlimit="10" stroke-linecap="round" stroke-linejoin="round"/>
<path d="M69.5564 386.366L28.6946 381.149" stroke="#475B5B" stroke-miterlimit="10" stroke-linecap="round" stroke-linejoin="round"/>
<path d="M110.078 179.271C119.04 190.833 136.634 210.183 145.376 208.213C151.801 206.768 163.86 189.411 169.808 180.3C171.965 177.003 173.317 174.782 173.317 174.782C170.495 170.53 163.264 167.512 163.264 167.512L157.903 171.193L142.928 181.483C135.501 168.864 120.648 148.316 114.589 145.514C114.589 145.514 101.109 167.71 110.078 179.271Z" fill="#F9CFA9"/>
<path d="M143.161 182.987C143.161 182.987 143.063 194.86 143.161 199.534" stroke="#ECBDBB" stroke-miterlimit="10" stroke-linecap="round" stroke-linejoin="round"/>
<path d="M157.903 171.193L169.808 180.3C171.965 177.003 173.317 174.782 173.317 174.782C170.495 170.53 163.264 167.512 163.264 167.512L157.903 171.193Z" fill="#878D8B"/>
<path d="M108.917 97.6424C108.917 97.6424 108.854 97.5225 108.72 97.3148C107.772 95.8477 103.28 90.002 92.4846 91.112C80.1603 92.3791 75.3508 107 79.1584 113.043C82.9659 119.086 75.8518 121.815 68.4372 124.837C61.0226 127.858 55.111 137.703 62.1248 146.572C69.1386 155.442 104.909 157.489 107.214 146.962C109.518 136.435 102.204 127.956 103.106 119.476L108.917 97.6424Z" fill="#475B5B"/>
<path d="M101.714 120.942L100.568 126.649L99.4059 132.435L93.1936 131.655L94.2678 120.599L94.5964 117.23L101.714 120.942Z" fill="#ECBDBB"/>
<path d="M101.714 120.942L100.568 126.649C96.8568 126.182 95.1014 123.218 94.2677 120.599L94.5964 117.23L101.714 120.942Z" fill="#404B7C"/>
<path d="M79.567 131.562C79.567 131.562 93.9955 125.616 108.925 132.732L106.119 141.114L81.571 140.237L79.567 131.562Z" fill="#F9CFA9"/>
<path d="M55.6995 231.638C58.9728 201.579 63.1347 150.276 63.1347 150.276C63.1347 150.276 76.1603 137.215 93.3943 137.605C110.628 137.995 120.648 151.446 120.648 151.446C120.648 151.446 129.465 164.897 129.265 171.525C129.065 178.152 124.255 196.477 124.255 196.477C124.255 196.477 127.057 215.907 130.003 231.828C130.003 231.828 98.4145 237.674 55.6995 231.638Z" fill="#F9CFA9"/>
<path d="M59.9548 227.211C59.9548 227.211 108.072 231.032 126.893 227.211" stroke="#ECBDBB" stroke-miterlimit="10" stroke-linecap="round" stroke-linejoin="round"/>
<path d="M83.2154 138.883C86.3706 138.03 89.7904 137.524 93.3943 137.605C97.263 137.693 100.768 138.438 103.878 139.542" stroke="#ECBDBB" stroke-miterlimit="10" stroke-linecap="round" stroke-linejoin="round"/>
<path d="M121.708 153.133C124.045 156.953 129.422 166.332 129.265 171.525C129.105 176.809 126.016 189.528 124.77 194.468" stroke="#ECBDBB" stroke-miterlimit="10" stroke-linecap="round" stroke-linejoin="round"/>
<path d="M37.8589 206.339C38.3135 211.893 42.3546 214.634 48.8367 214.988C52.7146 215.2 56.5855 214.433 60.1528 212.939C64.0742 211.296 67.6852 209.609 67.6852 209.609L62.751 197.135L68.9683 186.713C68.9683 186.713 74.0299 178.052 77.769 172.079C83.7359 162.546 70.952 142.506 63.0015 150.385C49.769 163.487 37.1583 197.632 37.8589 206.339Z" fill="#F9CFA9"/>
<path d="M63.3371 211.57C65.831 210.475 67.6852 209.609 67.6852 209.609L62.7511 197.135L68.9683 186.713C68.9683 186.713 74.0299 178.052 77.769 172.079C82.1323 165.108 76.4691 152.518 70.0011 149.336" stroke="#ECBDBB" stroke-miterlimit="10" stroke-linecap="round" stroke-linejoin="round"/>
<path d="M55.9487 193.764C55.9487 193.764 51.9362 195.221 47.284 197.696" stroke="#ECBDBB" stroke-miterlimit="10" stroke-linecap="round" stroke-linejoin="round"/>
<path d="M73.8394 205.501C73.8394 205.501 71.4278 207.233 67.6869 209.612C58.5264 205.078 58.1855 196.283 58.4241 192.918L64.3294 191.268C74.2655 194.998 73.8394 205.501 73.8394 205.501Z" fill="#475B5B"/>
<path d="M64.7301 193.043L77.0095 189.094L82.0874 183.51C83.2057 182.28 84.8033 181.563 86.4909 181.534L95.1316 181.387L103.785 174.84C104.446 174.34 105.383 174.386 105.988 174.949H105.988C106.664 175.578 106.685 176.621 106.036 177.275L97.2684 186.114L99.1918 189.623L96.8481 192.401L97.609 197.523L80.8716 196.993L70.9688 203.351C70.9688 203.351 64.631 202.098 64.7301 193.043Z" fill="#ECBDBB"/>
<path d="M87.3084 184.325L89.8953 188.398C90.5635 189.45 90.3054 190.823 89.298 191.577L87.2094 193.14" stroke="#404B7C" stroke-miterlimit="10" stroke-linecap="round" stroke-linejoin="round"/>
<path d="M91.7152 184.181L94.3021 188.253C94.9702 189.305 94.7122 190.678 93.7047 191.432L91.6161 193.236" stroke="#404B7C" stroke-miterlimit="10" stroke-linecap="round" stroke-linejoin="round"/>
<path d="M96.1219 184.036L98.7088 188.109C99.3769 189.161 99.1189 190.534 98.1114 191.288L96.0229 192.851" stroke="#404B7C" stroke-miterlimit="10" stroke-linecap="round" stroke-linejoin="round"/>
<path d="M90.2584 195.18C90.2982 194.036 91.2321 193.113 92.4072 193.055L97.5107 192.806C98.8871 192.725 100.056 193.775 100.083 195.116C100.11 196.456 98.9864 197.549 97.609 197.523L92.4906 197.456C91.2223 197.44 90.2155 196.413 90.2584 195.18V195.18V195.18Z" fill="#ECBDBB"/>
<path d="M90.5878 196.401C90.3651 196.047 90.2428 195.627 90.2584 195.18V195.18C90.2982 194.036 91.2321 193.113 92.4072 193.055L97.5107 192.806C97.9021 192.783 98.2768 192.851 98.6132 192.992" stroke="#404B7C" stroke-miterlimit="10" stroke-linecap="round" stroke-linejoin="round"/>
<path d="M98.472 99.7474C91.5683 103.402 87.9237 123.992 100.23 124.998C112.536 126.004 112.536 92.3031 98.472 99.7474Z" fill="#ECBDBB"/>
<path d="M90.6125 116.346C90.6125 116.346 92.991 110.512 95.9901 106.89C95.9901 106.89 103.333 111.417 109.641 109.204C115.949 106.991 119.465 95.2205 114.088 92.9067C108.71 90.5929 105.814 95.8241 105.814 95.8241C105.814 95.8241 82.6496 89.2851 90.6125 116.346Z" fill="#475B5B"/>
<path d="M93.1979 114.536C93.1979 114.536 91.233 106.991 85.0281 108.5C78.8232 110.009 84.511 121.477 93.4047 117.654L93.1979 114.536Z" fill="#ECBDBB"/>
<path d="M90.7991 116.313C90.6338 116.313 90.4775 116.216 90.4137 116.057C90.3963 116.014 88.6435 111.76 84.9626 111.217C84.7364 111.184 84.5812 110.979 84.6156 110.76C84.6495 110.539 84.8616 110.389 85.0862 110.422C89.245 111.035 91.1073 115.571 91.1844 115.764C91.2672 115.971 91.1622 116.204 90.9493 116.285C90.9 116.304 90.8491 116.313 90.7991 116.313Z" fill="#475B5B"/>
<path d="M87.4494 115.58C87.2264 115.58 87.0426 115.408 87.0361 115.19C87.0349 115.135 87.0099 113.827 88.0198 112.261C88.141 112.073 88.3971 112.015 88.5898 112.135C88.7833 112.252 88.8418 112.501 88.7203 112.689C87.8517 114.035 87.863 115.158 87.8635 115.169C87.8675 115.391 87.6869 115.575 87.4595 115.58C87.4563 115.58 87.4526 115.58 87.4494 115.58Z" fill="#475B5B"/>
<path d="M96.5981 111.396C96.5981 111.396 98.0691 108.804 100.09 109.907C100.09 109.907 100.174 109.307 100.715 109.317C101.257 109.328 101.235 110.977 101.235 110.977C101.235 110.977 98.7611 110.669 96.5981 111.396Z" fill="#404B7C"/>
<path d="M108.165 113.169C108.165 113.169 108.123 110.462 106.486 111.14C106.486 111.14 106.468 110.64 106.123 110.568C105.526 110.445 105.331 111.99 105.331 111.99C105.331 111.99 107.059 112.096 108.165 113.169Z" fill="#404B7C"/>
<path d="M100.518 114.737C100.578 113.98 100.116 113.329 99.487 113.282C98.8578 113.235 98.2994 113.81 98.2399 114.567C98.1803 115.324 98.6421 115.975 99.2713 116.022C99.9006 116.069 100.459 115.493 100.518 114.737Z" fill="#404B7C"/>
<path d="M99.6686 114.48C99.8364 114.48 99.9724 114.348 99.9724 114.184C99.9724 114.021 99.8364 113.889 99.6686 113.889C99.5008 113.889 99.3648 114.021 99.3648 114.184C99.3648 114.348 99.5008 114.48 99.6686 114.48Z" fill="white"/>
<path d="M107.23 115.237C107.289 114.48 106.828 113.828 106.198 113.781C105.569 113.735 105.011 114.31 104.951 115.067C104.892 115.824 105.354 116.475 105.983 116.522C106.612 116.569 107.17 115.993 107.23 115.237Z" fill="#404B7C"/>
<path d="M106.38 114.98C106.548 114.98 106.684 114.848 106.684 114.684C106.684 114.521 106.548 114.389 106.38 114.389C106.212 114.389 106.076 114.521 106.076 114.684C106.076 114.848 106.212 114.98 106.38 114.98Z" fill="white"/>
<path d="M103.13 119.619C102.791 119.619 102.474 119.558 102.246 119.485C102.03 119.415 101.913 119.187 101.984 118.977C102.055 118.767 102.29 118.651 102.506 118.72C102.518 118.724 103.677 119.082 104.028 118.374C104.104 118.221 104.071 118.164 104.058 118.142C103.931 117.924 103.316 117.762 102.922 117.728C102.697 117.709 102.529 117.518 102.544 117.3L102.734 114.618C102.75 114.396 102.949 114.233 103.175 114.244C103.404 114.259 103.575 114.451 103.56 114.673L103.396 116.983C103.841 117.068 104.5 117.271 104.777 117.743C104.896 117.947 104.993 118.283 104.773 118.725C104.429 119.418 103.744 119.619 103.13 119.619Z" fill="#404B7C"/>
<path d="M102.983 122.083C102.983 122.083 99.8483 123.856 98.1029 120.122L102.983 122.083Z" fill="white"/>
<path d="M121.173 158.915L118.817 186.036C118.654 187.912 120.083 189.432 122.007 189.432H165.973C167.898 189.432 169.59 187.912 169.753 186.036L172.109 158.915C172.272 157.039 170.844 155.519 168.919 155.519H124.953C123.029 155.519 121.336 157.039 121.173 158.915Z" fill="#475B5B"/>
<path d="M123.628 158.915L121.272 186.036C121.109 187.912 122.538 189.432 124.462 189.432H168.428C170.353 189.432 172.045 187.912 172.208 186.036L174.564 158.915C174.727 157.039 173.299 155.519 171.374 155.519H127.408C125.483 155.519 123.791 157.039 123.628 158.915Z" fill="#878D8B"/>
<path d="M135.008 163.844H129.061C128.112 163.844 127.408 163.094 127.488 162.169V162.169C127.569 161.244 128.403 160.494 129.352 160.494H135.299C136.248 160.494 136.952 161.244 136.872 162.169V162.169C136.791 163.094 135.957 163.844 135.008 163.844Z" fill="white"/>
<path d="M129.907 162.838C130.32 162.444 130.354 161.826 129.982 161.457C129.61 161.087 128.974 161.107 128.561 161.5C128.148 161.894 128.115 162.512 128.486 162.881C128.858 163.25 129.494 163.231 129.907 162.838Z" fill="#878D8B"/>
<path d="M132.628 162.837C133.041 162.444 133.075 161.826 132.703 161.457C132.331 161.087 131.695 161.107 131.282 161.5C130.869 161.894 130.835 162.512 131.207 162.881C131.579 163.25 132.215 163.231 132.628 162.837Z" fill="#878D8B"/>
<path d="M175.556 181.736C178.72 180.445 177.12 177.242 177.12 177.242C179.23 174.746 177.411 172.476 177.411 172.476C179.156 170.079 177.356 168.092 177.356 168.092C178.094 166.726 177.694 165.594 177.141 164.824C176.622 164.1 175.759 163.694 174.852 163.706C170.529 163.764 165.018 164.603 163.797 165.032C161.845 165.719 161.498 167.761 162.672 168.724C162.672 168.724 160.573 170.797 162.113 172.669C162.113 172.669 160.3 175.003 162.684 177.119C162.684 177.119 161.225 179.66 164.528 181.258C164.868 181.333 172.462 182.999 175.556 181.736Z" fill="#ECBDBB"/>
<path d="M174.611 167.531L164.922 168.092" stroke="#404B7C" stroke-miterlimit="10" stroke-linecap="round" stroke-linejoin="round"/>
<path d="M174.611 172.476H163.783" stroke="#404B7C" stroke-miterlimit="10" stroke-linecap="round" stroke-linejoin="round"/>
<path d="M174.137 177.084L164.24 176.701" stroke="#404B7C" stroke-miterlimit="10" stroke-linecap="round" stroke-linejoin="round"/>
</svg>
