<svg width="500" height="500" viewBox="0 0 500 500" fill="none" xmlns="http://www.w3.org/2000/svg">
<path d="M391.48 404.17L391.06 404.54C375.16 418.8 361.89 418.79 361.89 418.79C361.89 418.79 361.31 405.25 377.32 390.28L378.04 389.61C394.79 374.38 404.54 371.16 409.04 376.11C413.54 381.06 402.83 393.85 391.48 404.17Z" fill="#878D8B"/>
<path d="M391.06 404.54C375.16 418.8 361.89 418.79 361.89 418.79C361.89 418.79 361.31 405.25 377.32 390.28C377.26 394.88 382.46 397.52 396.09 387.7C396.09 387.69 380.78 404.81 391.06 404.54Z" fill="#475B5B" fill-opacity="0.8"/>
<path d="M364.42 417C364.319 417.001 364.22 416.971 364.136 416.914C364.052 416.857 363.987 416.776 363.951 416.682C363.914 416.588 363.906 416.484 363.929 416.386C363.953 416.287 364.005 416.198 364.08 416.13L405.19 378.76C405.289 378.68 405.416 378.641 405.543 378.651C405.67 378.662 405.788 378.72 405.874 378.814C405.959 378.909 406.006 379.032 406.003 379.16C406 379.287 405.949 379.409 405.86 379.5L364.75 416.87C364.66 416.952 364.542 416.998 364.42 417Z" fill="#475B5B"/>
<path d="M392.79 389.15C392.67 389.36 392.55 389.57 392.42 389.78C378.42 413.68 362.08 418.92 362.08 418.92C362.08 418.92 355.99 402.44 369.81 377.63C370.01 377.26 370.23 376.89 370.44 376.52C385.07 351.09 395.81 343.24 403.34 347.57C410.87 351.9 402.7 371.92 392.79 389.15Z" fill="#475B5B" fill-opacity="0.5"/>
<path d="M392.42 389.78C378.42 413.68 362.08 418.92 362.08 418.92C362.08 418.92 355.99 402.44 369.81 377.63C371.56 383.33 379.02 384.52 391.95 367C391.95 367 379.85 394.19 392.42 389.78Z" fill="#475B5B" fill-opacity="0.7"/>
<path d="M364.3 415.57C364.212 415.569 364.127 415.546 364.051 415.502C363.975 415.458 363.913 415.395 363.869 415.319C363.826 415.243 363.803 415.157 363.803 415.069C363.803 414.982 363.826 414.896 363.87 414.82L399.77 352.41C399.836 352.295 399.946 352.21 400.074 352.176C400.203 352.141 400.34 352.159 400.455 352.225C400.57 352.291 400.655 352.401 400.689 352.529C400.724 352.658 400.706 352.795 400.64 352.91L364.74 415.32C364.696 415.397 364.631 415.461 364.554 415.505C364.477 415.549 364.389 415.571 364.3 415.57Z" fill="#475B5B"/>
<path d="M328 403.69L328.49 404.09C347.16 419.49 362.17 418.86 362.17 418.86C362.17 418.86 362.17 403.5 343.38 387.3L342.53 386.58C322.86 370.12 311.67 366.92 306.8 372.75C301.93 378.58 314.71 392.54 328 403.69Z" fill="#878D8B"/>
<path d="M328.53 404.1C347.2 419.5 362.21 418.87 362.21 418.87C362.21 418.87 362.21 403.51 343.42 387.31C343.7 392.52 337.94 395.74 322.05 385.31C322 385.26 340.17 403.93 328.53 404.1Z" fill="#475B5B" fill-opacity="0.8"/>
<path d="M359.23 416.87C359.113 416.869 358.999 416.826 358.91 416.75L310.64 376.36C310.589 376.318 310.548 376.266 310.517 376.208C310.486 376.15 310.468 376.086 310.461 376.021C310.455 375.956 310.462 375.889 310.482 375.827C310.501 375.764 310.533 375.706 310.575 375.655C310.617 375.604 310.669 375.563 310.727 375.532C310.785 375.501 310.849 375.483 310.914 375.477C310.98 375.47 311.046 375.477 311.108 375.497C311.171 375.516 311.229 375.548 311.28 375.59L359.56 416C359.634 416.068 359.687 416.156 359.71 416.253C359.733 416.351 359.727 416.454 359.691 416.547C359.656 416.641 359.593 416.722 359.51 416.78C359.428 416.837 359.33 416.869 359.23 416.87Z" fill="#475B5B"/>
<path d="M326.59 384.72C326.73 384.97 326.87 385.21 327.01 385.44C343.1 413 361.95 419 361.95 419C361.95 419 368.95 400 353.05 371.45C352.81 371.02 352.57 370.6 352.33 370.17C335.49 340.89 323.11 331.85 314.44 336.84C305.77 341.83 315.18 364.88 326.59 384.72Z" fill="#475B5B" fill-opacity="0.6"/>
<path d="M327 385.44C343.1 413 361.95 419 361.95 419C361.95 419 368.95 400 353.05 371.45C351.05 378.02 342.45 379.39 327.56 359.21C327.56 359.22 341.49 390.53 327 385.44Z" fill="#475B5B"/>
<path d="M359.4 415.07C359.313 415.069 359.227 415.046 359.152 415.002C359.076 414.958 359.014 414.896 358.97 414.82L317.63 343C317.597 342.943 317.576 342.88 317.567 342.815C317.559 342.749 317.563 342.683 317.581 342.619C317.598 342.556 317.627 342.496 317.668 342.444C317.708 342.392 317.758 342.348 317.815 342.315C317.872 342.282 317.935 342.261 318.001 342.252C318.066 342.244 318.132 342.248 318.196 342.266C318.259 342.283 318.319 342.312 318.371 342.353C318.423 342.393 318.467 342.443 318.5 342.5L359.83 414.36C359.865 414.434 359.88 414.516 359.876 414.598C359.871 414.68 359.847 414.759 359.804 414.83C359.762 414.9 359.703 414.958 359.632 415C359.562 415.042 359.482 415.066 359.4 415.07Z" fill="#475B5B"/>
<path d="M376.72 368.66C376.72 368.96 376.72 369.26 376.72 369.55C376.48 403.47 362.29 419 362.29 419C362.29 419 345.75 405.22 345.29 370.42C345.29 369.9 345.29 369.42 345.29 368.86C345.29 332.91 351.91 318.01 362.56 318.01C373.21 318.01 376.72 344.3 376.72 368.66Z" fill="#878D8B"/>
<path d="M376.71 369.55C376.48 403.47 362.29 419 362.29 419C362.29 419 345.75 405.22 345.29 370.42C350.64 375.42 359.29 372.11 362.29 345.61C362.29 345.65 366.06 381.92 376.71 369.55Z" fill="#475B5B" fill-opacity="0.8"/>
<path d="M362.29 414.1C362.157 414.1 362.03 414.047 361.936 413.954C361.843 413.86 361.79 413.733 361.79 413.6V325.38C361.79 325.247 361.843 325.12 361.936 325.026C362.03 324.933 362.157 324.88 362.29 324.88C362.423 324.88 362.55 324.933 362.644 325.026C362.737 325.12 362.79 325.247 362.79 325.38V413.6C362.79 413.733 362.737 413.86 362.644 413.954C362.55 414.047 362.423 414.1 362.29 414.1Z" fill="#475B5B"/>
<path d="M376.39 468.47H343.47C340.843 468.469 338.318 467.45 336.427 465.626C334.536 463.802 333.426 461.316 333.33 458.69L331.91 418.87C331.894 418.402 331.972 417.935 332.14 417.498C332.309 417.06 332.563 416.661 332.889 416.324C333.214 415.987 333.605 415.719 334.036 415.537C334.468 415.354 334.931 415.26 335.4 415.26H384.46C384.929 415.26 385.392 415.354 385.824 415.537C386.255 415.719 386.646 415.987 386.971 416.324C387.297 416.661 387.551 417.06 387.72 417.498C387.888 417.935 387.966 418.402 387.95 418.87L386.53 458.69C386.434 461.316 385.324 463.802 383.433 465.626C381.542 467.45 379.017 468.469 376.39 468.47Z" fill="#F9CFA9"/>
<path d="M384.46 415.26H374.85C374.11 418.48 374.33 423.12 380.63 425.31C382.897 426.138 385.355 426.297 387.71 425.77L387.96 418.87C387.976 418.401 387.897 417.933 387.729 417.495C387.56 417.057 387.305 416.658 386.978 416.321C386.651 415.984 386.26 415.716 385.827 415.534C385.394 415.351 384.929 415.258 384.46 415.26Z" fill="#878D8B" fill-opacity="0.7"/>
<path d="M363.12 428.15C361.84 423.62 364.26 418.43 366.18 415.26H355.63C349.55 425.44 353.23 443.94 369.75 439.98C377.93 437.98 383.51 439.06 387.17 440.8L387.45 432.8C377.92 426.86 365 434.65 363.12 428.15Z" fill="#878D8B" fill-opacity="0.6"/>
<path d="M385 463.67C377 446 362.55 463.33 353.07 444.82C346.58 432.15 337.89 432.13 332.44 433.82L332.75 442.53C349.69 435.91 348.95 463.59 363.36 461.42C371.06 460.26 375.43 464.35 377.83 468.42C379.3 468.203 380.705 467.665 381.944 466.844C383.183 466.023 384.227 464.939 385 463.67Z" fill="#878D8B" fill-opacity="0.6"/>
<path d="M340.42 451.92C336.05 453.01 340.18 462.8 343.97 460.2C347.76 457.6 343.73 451.09 340.42 451.92Z" fill="#878D8B" fill-opacity="0.9"/>
<path d="M376.89 445.22C373.89 447.01 379.14 453.34 381.37 450.57C383.6 447.8 379.16 443.87 376.89 445.22Z" fill="#878D8B" fill-opacity="0.9"/>
<path d="M378.34 57.05H164.84V253.8H378.34V57.05Z" fill="#878D8B" fill-opacity="0.8"/>
<path d="M378.72 57.05H164.46C162.875 57.05 161.59 58.3349 161.59 59.92V59.93C161.59 61.5151 162.875 62.8 164.46 62.8H378.72C380.305 62.8 381.59 61.5151 381.59 59.93V59.92C381.59 58.3349 380.305 57.05 378.72 57.05Z" fill="#475B5B"/>
<path d="M299.47 62.8H243.72C243.343 62.8 242.97 62.7258 242.622 62.5815C242.273 62.4373 241.957 62.2259 241.691 61.9594C241.424 61.6929 241.213 61.3765 241.068 61.0283C240.924 60.6801 240.85 60.3069 240.85 59.93V52.67L248.23 45.3H295L302.38 52.68V59.93C302.38 60.3103 302.305 60.6868 302.158 61.0376C302.011 61.3885 301.796 61.7066 301.525 61.9737C301.255 62.2407 300.933 62.4513 300.581 62.5931C300.228 62.735 299.85 62.8053 299.47 62.8Z" fill="#475B5B"/>
<path d="M253.03 57.55C254.549 57.55 255.78 56.3188 255.78 54.8C255.78 53.2812 254.549 52.05 253.03 52.05C251.511 52.05 250.28 53.2812 250.28 54.8C250.28 56.3188 251.511 57.55 253.03 57.55Z" fill="white"/>
<path d="M290.16 57.55C291.679 57.55 292.91 56.3188 292.91 54.8C292.91 53.2812 291.679 52.05 290.16 52.05C288.641 52.05 287.41 53.2812 287.41 54.8C287.41 56.3188 288.641 57.55 290.16 57.55Z" fill="white"/>
<path d="M378.72 248.05H164.46C162.875 248.05 161.59 249.335 161.59 250.92V250.93C161.59 252.515 162.875 253.8 164.46 253.8H378.72C380.305 253.8 381.59 252.515 381.59 250.93V250.92C381.59 249.335 380.305 248.05 378.72 248.05Z" fill="#475B5B"/>
<path d="M351.84 77.8H191.35C189.146 77.8 187.36 79.5864 187.36 81.79V229.06C187.36 231.264 189.146 233.05 191.35 233.05H351.84C354.044 233.05 355.83 231.264 355.83 229.06V81.79C355.83 79.5864 354.044 77.8 351.84 77.8Z" fill="#475B5B" fill-opacity="0.6"/>
<path d="M228.84 230C228.707 230 228.58 229.947 228.486 229.854C228.393 229.76 228.34 229.633 228.34 229.5V79.8C228.34 79.6674 228.393 79.5402 228.486 79.4464C228.58 79.3527 228.707 79.3 228.84 79.3C228.973 79.3 229.1 79.3527 229.194 79.4464C229.287 79.5402 229.34 79.6674 229.34 79.8V229.55C229.328 229.674 229.269 229.788 229.177 229.872C229.085 229.955 228.964 230.001 228.84 230Z" fill="#475B5B"/>
<path d="M271.59 230C271.457 230 271.33 229.947 271.236 229.854C271.143 229.76 271.09 229.633 271.09 229.5V79.8C271.09 79.6674 271.143 79.5402 271.236 79.4464C271.33 79.3527 271.457 79.3 271.59 79.3C271.723 79.3 271.85 79.3527 271.944 79.4464C272.037 79.5402 272.09 79.6674 272.09 79.8V229.55C272.078 229.674 272.019 229.788 271.927 229.872C271.835 229.955 271.714 230.001 271.59 230Z" fill="#475B5B"/>
<path d="M314.34 230C314.207 230 314.08 229.947 313.986 229.854C313.893 229.76 313.84 229.633 313.84 229.5V79.8C313.84 79.6674 313.893 79.5402 313.986 79.4464C314.08 79.3527 314.207 79.3 314.34 79.3C314.473 79.3 314.6 79.3527 314.694 79.4464C314.787 79.5402 314.84 79.6674 314.84 79.8V229.55C314.828 229.674 314.769 229.788 314.677 229.872C314.585 229.955 314.464 230.001 314.34 230Z" fill="#475B5B"/>
<path d="M219.39 94.8H196.35C195.129 94.8 194.14 95.7895 194.14 97.01C194.14 98.2306 195.129 99.22 196.35 99.22H219.39C220.611 99.22 221.6 98.2306 221.6 97.01C221.6 95.7895 220.611 94.8 219.39 94.8Z" fill="#878D8B"/>
<path d="M219.39 105.38H196.35C195.129 105.38 194.14 106.369 194.14 107.59C194.14 108.811 195.129 109.8 196.35 109.8H219.39C220.611 109.8 221.6 108.811 221.6 107.59C221.6 106.369 220.611 105.38 219.39 105.38Z" fill="#878D8B"/>
<path d="M219.39 115.97H196.35C195.129 115.97 194.14 116.959 194.14 118.18C194.14 119.401 195.129 120.39 196.35 120.39H219.39C220.611 120.39 221.6 119.401 221.6 118.18C221.6 116.959 220.611 115.97 219.39 115.97Z" fill="#878D8B"/>
<path d="M258.29 150.55H235.25C234.029 150.55 233.04 151.539 233.04 152.76C233.04 153.981 234.029 154.97 235.25 154.97H258.29C259.511 154.97 260.5 153.981 260.5 152.76C260.5 151.539 259.511 150.55 258.29 150.55Z" fill="white"/>
<path d="M258.29 161.13H235.25C234.029 161.13 233.04 162.119 233.04 163.34C233.04 164.561 234.029 165.55 235.25 165.55H258.29C259.511 165.55 260.5 164.561 260.5 163.34C260.5 162.119 259.511 161.13 258.29 161.13Z" fill="white"/>
<path d="M247.94 171.72H235.25C234.029 171.72 233.04 172.709 233.04 173.93C233.04 175.151 234.029 176.14 235.25 176.14H247.94C249.161 176.14 250.15 175.151 250.15 173.93C250.15 172.709 249.161 171.72 247.94 171.72Z" fill="white"/>
<path d="M347.04 194.55H324C322.779 194.55 321.79 195.539 321.79 196.76C321.79 197.981 322.779 198.97 324 198.97H347.04C348.261 198.97 349.25 197.981 349.25 196.76C349.25 195.539 348.261 194.55 347.04 194.55Z" fill="#F9CFA9"/>
<path d="M347.04 205.13H324C322.779 205.13 321.79 206.119 321.79 207.34C321.79 208.561 322.779 209.55 324 209.55H347.04C348.261 209.55 349.25 208.561 349.25 207.34C349.25 206.119 348.261 205.13 347.04 205.13Z" fill="#F9CFA9"/>
<path d="M336.69 215.72H324C322.779 215.72 321.79 216.709 321.79 217.93C321.79 219.151 322.779 220.14 324 220.14H336.69C337.911 220.14 338.9 219.151 338.9 217.93C338.9 216.709 337.911 215.72 336.69 215.72Z" fill="#F9CFA9"/>
<path d="M256.63 132.55C263.63 123.55 262.8 106.8 262.8 106.8H239.23C239.23 106.8 240.06 123.55 233.06 132.55H256.63Z" fill="#878D8B"/>
<path d="M251.27 109.8C253.755 109.8 255.77 107.785 255.77 105.3C255.77 102.815 253.755 100.8 251.27 100.8C248.785 100.8 246.77 102.815 246.77 105.3C246.77 107.785 248.785 109.8 251.27 109.8Z" fill="#475B5B"/>
<path d="M297.54 182.3C304.54 173.3 303.71 156.55 303.71 156.55H280.14C280.14 156.55 281 173.3 274 182.3H297.57H297.54Z" fill="#F9CFA9"/>
<path d="M292.18 159.55C294.665 159.55 296.68 157.535 296.68 155.05C296.68 152.565 294.665 150.55 292.18 150.55C289.695 150.55 287.68 152.565 287.68 155.05C287.68 157.535 289.695 159.55 292.18 159.55Z" fill="#475B5B"/>
<path d="M320.45 118.59L343.45 113.09C344.061 112.943 344.705 113.039 345.246 113.358C345.787 113.677 346.183 114.194 346.35 114.8L353.71 141.5C353.797 141.813 353.82 142.141 353.777 142.463C353.734 142.785 353.627 143.096 353.462 143.376C353.297 143.656 353.077 143.9 352.815 144.093C352.554 144.286 352.256 144.424 351.94 144.5L328.94 150C328.329 150.147 327.685 150.051 327.144 149.732C326.603 149.413 326.207 148.896 326.04 148.29L318.68 121.59C318.593 121.277 318.57 120.949 318.613 120.627C318.656 120.305 318.763 119.994 318.928 119.714C319.093 119.434 319.313 119.19 319.575 118.997C319.836 118.804 320.134 118.666 320.45 118.59Z" fill="#878D8B"/>
<path d="M324.85 127.17C324.717 127.186 324.584 127.148 324.479 127.066C324.374 126.983 324.306 126.863 324.29 126.73C324.274 126.597 324.311 126.464 324.394 126.359C324.477 126.254 324.597 126.186 324.73 126.17L344.04 121.55C344.173 121.52 344.312 121.543 344.427 121.615C344.543 121.687 344.624 121.802 344.655 121.935C344.685 122.068 344.662 122.207 344.59 122.322C344.518 122.438 344.403 122.52 344.27 122.55L325 127.16H324.88L324.85 127.17Z" fill="#475B5B"/>
<path d="M326.52 133C326.387 133.016 326.254 132.978 326.149 132.896C326.044 132.813 325.976 132.693 325.96 132.56C325.944 132.427 325.981 132.294 326.064 132.189C326.147 132.084 326.267 132.016 326.4 132L345.71 127.38C345.776 127.365 345.844 127.363 345.91 127.374C345.977 127.385 346.04 127.409 346.097 127.445C346.154 127.481 346.204 127.528 346.243 127.582C346.282 127.637 346.31 127.699 346.325 127.765C346.34 127.831 346.342 127.899 346.331 127.965C346.32 128.032 346.296 128.095 346.26 128.152C346.224 128.209 346.177 128.259 346.123 128.298C346.068 128.337 346.006 128.365 345.94 128.38L326.64 133H326.52Z" fill="#475B5B"/>
<path d="M328.19 138.84C328.057 138.856 327.924 138.818 327.819 138.736C327.714 138.653 327.646 138.533 327.63 138.4C327.614 138.267 327.651 138.134 327.734 138.029C327.817 137.924 327.937 137.856 328.07 137.84L339.95 135C340.083 134.969 340.222 134.993 340.337 135.065C340.453 135.137 340.534 135.252 340.565 135.385C340.595 135.518 340.572 135.657 340.5 135.772C340.428 135.888 340.313 135.969 340.18 136L328.31 138.84H328.19Z" fill="#475B5B"/>
<path d="M332.22 119.51C334.705 119.51 336.72 117.495 336.72 115.01C336.72 112.525 334.705 110.51 332.22 110.51C329.735 110.51 327.72 112.525 327.72 115.01C327.72 117.495 329.735 119.51 332.22 119.51Z" fill="#475B5B"/>
<path d="M223.64 197.09L200.64 191.59C200.029 191.443 199.385 191.539 198.844 191.858C198.303 192.177 197.907 192.694 197.74 193.3L190.43 220C190.343 220.313 190.32 220.641 190.363 220.963C190.406 221.285 190.513 221.596 190.678 221.876C190.843 222.156 191.063 222.4 191.325 222.593C191.586 222.786 191.884 222.924 192.2 223L215.2 228.5C215.811 228.647 216.455 228.551 216.996 228.232C217.537 227.913 217.933 227.396 218.1 226.79L225.46 200.09C225.546 199.773 225.567 199.442 225.521 199.117C225.476 198.792 225.364 198.48 225.194 198.199C225.024 197.919 224.798 197.676 224.531 197.485C224.264 197.294 223.961 197.16 223.64 197.09Z" fill="#878D8B"/>
<path d="M219.23 205.67H219.11L199.8 201C199.667 200.969 199.552 200.888 199.48 200.772C199.408 200.657 199.384 200.518 199.415 200.385C199.445 200.252 199.527 200.137 199.643 200.065C199.758 199.993 199.897 199.969 200.03 200L219.34 204.63C219.478 204.645 219.604 204.713 219.692 204.821C219.779 204.929 219.82 205.067 219.805 205.205C219.79 205.343 219.722 205.469 219.614 205.557C219.506 205.644 219.368 205.685 219.23 205.67Z" fill="#475B5B"/>
<path d="M217.56 211.51H217.44L198.13 206.89C197.997 206.859 197.882 206.778 197.81 206.662C197.738 206.547 197.714 206.408 197.745 206.275C197.775 206.142 197.857 206.027 197.973 205.955C198.088 205.883 198.227 205.859 198.36 205.89L217.67 210.52C217.792 210.545 217.901 210.614 217.975 210.715C218.049 210.816 218.082 210.941 218.068 211.065C218.054 211.19 217.994 211.304 217.9 211.386C217.806 211.469 217.685 211.513 217.56 211.51Z" fill="#475B5B"/>
<path d="M215.9 217.34H215.78L203.91 214.5C203.777 214.469 203.662 214.388 203.59 214.272C203.518 214.157 203.494 214.018 203.525 213.885C203.555 213.752 203.637 213.637 203.753 213.565C203.868 213.493 204.007 213.469 204.14 213.5L216 216.35C216.122 216.375 216.23 216.444 216.303 216.543C216.377 216.643 216.41 216.767 216.398 216.89C216.385 217.014 216.328 217.128 216.236 217.211C216.144 217.294 216.024 217.34 215.9 217.34Z" fill="#475B5B"/>
<path d="M211.86 198.01C214.345 198.01 216.36 195.995 216.36 193.51C216.36 191.025 214.345 189.01 211.86 189.01C209.375 189.01 207.36 191.025 207.36 193.51C207.36 195.995 209.375 198.01 211.86 198.01Z" fill="#475B5B"/>
<path d="M331.01 167.38C332.573 167.38 333.84 166.113 333.84 164.55C333.84 162.987 332.573 161.72 331.01 161.72C329.447 161.72 328.18 162.987 328.18 164.55C328.18 166.113 329.447 167.38 331.01 167.38Z" fill="#475B5B"/>
<path d="M342.43 175.8C344.639 175.8 346.43 174.009 346.43 171.8C346.43 169.591 344.639 167.8 342.43 167.8C340.221 167.8 338.43 169.591 338.43 171.8C338.43 174.009 340.221 175.8 342.43 175.8Z" fill="#F9CFA9"/>
<path d="M247.78 211.8C254.098 211.8 259.22 206.678 259.22 200.36C259.22 194.042 254.098 188.92 247.78 188.92C241.462 188.92 236.34 194.042 236.34 200.36C236.34 206.678 241.462 211.8 247.78 211.8Z" fill="#F9CFA9"/>
<path d="M262.03 221.17C264.686 221.17 266.84 219.016 266.84 216.36C266.84 213.704 264.686 211.55 262.03 211.55C259.374 211.55 257.22 213.704 257.22 216.36C257.22 219.016 259.374 221.17 262.03 221.17Z" fill="#475B5B"/>
<path d="M293.5 105.32L296.87 112.14L304.4 113.23C304.738 113.282 305.056 113.428 305.316 113.65C305.576 113.873 305.769 114.164 305.873 114.49C305.977 114.816 305.988 115.165 305.904 115.497C305.821 115.83 305.646 116.132 305.4 116.37L300 121.69L301.29 129.18C301.348 129.518 301.31 129.866 301.181 130.185C301.052 130.503 300.836 130.778 300.558 130.98C300.28 131.182 299.952 131.302 299.609 131.327C299.267 131.351 298.924 131.28 298.62 131.12L291.89 127.58L285.16 131.12C284.856 131.28 284.513 131.351 284.171 131.327C283.828 131.302 283.5 131.182 283.222 130.98C282.944 130.778 282.728 130.503 282.599 130.185C282.47 129.866 282.432 129.518 282.49 129.18L283.78 121.69L278.33 116.38C278.084 116.142 277.909 115.84 277.826 115.507C277.742 115.175 277.753 114.826 277.857 114.5C277.961 114.174 278.154 113.883 278.414 113.66C278.674 113.438 278.992 113.292 279.33 113.24L286.86 112.15L290.23 105.33C290.384 105.029 290.618 104.777 290.906 104.601C291.193 104.424 291.524 104.33 291.862 104.329C292.2 104.328 292.531 104.42 292.82 104.595C293.109 104.769 293.344 105.02 293.5 105.32Z" fill="#F9CFA9"/>
<path d="M360.26 282.52C360.127 282.54 359.992 282.506 359.885 282.427C359.777 282.347 359.705 282.228 359.685 282.095C359.665 281.962 359.699 281.827 359.778 281.719C359.858 281.612 359.977 281.54 360.11 281.52C360.11 281.52 360.79 281.31 361.96 280.85C362.022 280.82 362.09 280.804 362.158 280.802C362.227 280.8 362.296 280.812 362.36 280.837C362.423 280.863 362.481 280.901 362.53 280.95C362.578 280.999 362.616 281.057 362.641 281.121C362.666 281.185 362.677 281.254 362.674 281.323C362.671 281.391 362.654 281.459 362.624 281.521C362.594 281.582 362.551 281.637 362.499 281.682C362.447 281.727 362.386 281.76 362.32 281.78C361.12 282.25 360.44 282.46 360.41 282.47L360.26 282.52Z" fill="#475B5B"/>
<path d="M366.87 279.76C366.737 279.789 366.599 279.764 366.484 279.691C366.37 279.618 366.289 279.503 366.26 279.37C366.231 279.237 366.256 279.099 366.329 278.984C366.402 278.87 366.517 278.789 366.65 278.76C368.17 278.03 369.65 277.22 371.2 276.37C371.257 276.333 371.321 276.309 371.389 276.298C371.456 276.287 371.524 276.29 371.59 276.306C371.656 276.323 371.718 276.353 371.772 276.394C371.826 276.435 371.871 276.487 371.905 276.546C371.938 276.605 371.959 276.671 371.966 276.738C371.973 276.806 371.967 276.874 371.947 276.939C371.926 277.004 371.893 277.064 371.849 277.116C371.805 277.168 371.751 277.21 371.69 277.24C370.17 278.1 368.62 278.92 367.08 279.66C367.019 279.709 366.947 279.744 366.87 279.76Z" fill="#475B5B"/>
<path d="M374.12 275.77C374.013 275.768 373.91 275.731 373.825 275.665C373.74 275.6 373.679 275.509 373.65 275.406C373.621 275.303 373.626 275.194 373.663 275.093C373.701 274.993 373.77 274.908 373.86 274.85C375.02 274.13 376.18 273.37 377.31 272.6C377.364 272.558 377.425 272.528 377.491 272.511C377.556 272.494 377.625 272.491 377.692 272.501C377.759 272.511 377.823 272.535 377.881 272.571C377.938 272.607 377.988 272.654 378.027 272.71C378.066 272.765 378.093 272.829 378.106 272.895C378.12 272.961 378.12 273.03 378.106 273.096C378.092 273.163 378.065 273.226 378.026 273.281C377.987 273.337 377.938 273.384 377.88 273.42C376.74 274.2 375.57 274.97 374.39 275.7C374.308 275.748 374.215 275.773 374.12 275.77ZM381.76 270.44C381.657 270.439 381.556 270.407 381.472 270.347C381.388 270.287 381.325 270.202 381.291 270.104C381.257 270.007 381.254 269.901 381.282 269.802C381.311 269.703 381.369 269.615 381.45 269.55C382.79 268.49 384.12 267.38 385.39 266.25C385.439 266.206 385.497 266.172 385.559 266.15C385.621 266.129 385.687 266.119 385.753 266.123C385.819 266.127 385.884 266.143 385.943 266.172C386.003 266.201 386.056 266.241 386.1 266.29C386.144 266.339 386.178 266.397 386.2 266.459C386.221 266.521 386.231 266.587 386.227 266.653C386.223 266.719 386.207 266.784 386.178 266.843C386.149 266.903 386.109 266.956 386.06 267C384.77 268.15 383.43 269.27 382.06 270.34C381.973 270.405 381.868 270.44 381.76 270.44ZM388 265C387.9 265.001 387.802 264.971 387.719 264.916C387.636 264.86 387.572 264.781 387.534 264.688C387.496 264.596 387.487 264.494 387.508 264.396C387.529 264.299 387.578 264.209 387.65 264.14C388.65 263.14 389.65 262.14 390.53 261.21C390.623 261.123 390.744 261.075 390.871 261.075C390.998 261.075 391.12 261.123 391.212 261.209C391.305 261.296 391.362 261.414 391.37 261.54C391.379 261.667 391.34 261.792 391.26 261.89C390.33 262.89 389.35 263.89 388.34 264.89C388.244 264.967 388.123 265.006 388 265ZM394.3 258.15C394.204 258.151 394.111 258.125 394.03 258.074C393.949 258.024 393.884 257.951 393.843 257.865C393.802 257.779 393.786 257.682 393.798 257.588C393.81 257.493 393.849 257.403 393.91 257.33C394.99 256.01 396.04 254.63 397.02 253.24C397.097 253.131 397.214 253.058 397.345 253.035C397.476 253.013 397.611 253.043 397.72 253.12C397.829 253.197 397.902 253.314 397.925 253.445C397.948 253.576 397.917 253.711 397.84 253.82C396.84 255.23 395.78 256.62 394.69 257.97C394.644 258.026 394.585 258.071 394.52 258.102C394.454 258.133 394.383 258.149 394.31 258.15H394.3ZM399.17 251.46C399.08 251.46 398.992 251.436 398.915 251.39C398.838 251.344 398.775 251.278 398.732 251.199C398.689 251.121 398.668 251.032 398.671 250.942C398.674 250.853 398.702 250.765 398.75 250.69C399.49 249.55 400.21 248.37 400.89 247.18C400.956 247.065 401.066 246.98 401.194 246.946C401.323 246.911 401.46 246.929 401.575 246.995C401.69 247.061 401.775 247.171 401.809 247.299C401.844 247.428 401.826 247.565 401.76 247.68C401.07 248.88 400.34 250.08 399.59 251.24C399.546 251.306 399.486 251.36 399.417 251.398C399.347 251.437 399.269 251.458 399.19 251.46H399.17ZM403.75 243.35C403.665 243.35 403.581 243.329 403.507 243.288C403.433 243.246 403.37 243.187 403.325 243.115C403.28 243.043 403.254 242.961 403.25 242.876C403.245 242.791 403.263 242.706 403.3 242.63C404.05 241.1 404.75 239.52 405.39 237.94C405.44 237.817 405.538 237.718 405.661 237.667C405.783 237.615 405.922 237.615 406.045 237.665C406.168 237.715 406.267 237.813 406.318 237.936C406.37 238.058 406.37 238.197 406.32 238.32C405.67 239.92 404.96 241.52 404.2 243.08C404.16 243.163 404.097 243.232 404.019 243.282C403.942 243.331 403.852 243.358 403.76 243.36L403.75 243.35ZM406.97 235.73C406.914 235.74 406.856 235.74 406.8 235.73C406.675 235.685 406.574 235.592 406.518 235.472C406.461 235.352 406.455 235.215 406.5 235.09C406.96 233.82 407.4 232.51 407.8 231.19C407.838 231.057 407.928 230.945 408.049 230.879C408.109 230.846 408.175 230.825 408.243 230.818C408.311 230.81 408.379 230.816 408.445 230.835C408.511 230.854 408.572 230.886 408.625 230.929C408.679 230.971 408.723 231.024 408.756 231.084C408.789 231.144 408.81 231.21 408.817 231.278C408.825 231.346 408.819 231.414 408.8 231.48C408.39 232.81 407.95 234.14 407.49 235.48C407.442 235.565 407.37 235.634 407.282 235.678C407.195 235.723 407.097 235.741 407 235.73H406.97ZM409.63 226.81H409.51C409.382 226.779 409.271 226.699 409.201 226.586C409.132 226.474 409.11 226.339 409.14 226.21C409.53 224.57 409.88 222.87 410.14 221.21C410.151 221.144 410.175 221.082 410.211 221.025C410.246 220.969 410.292 220.92 410.347 220.881C410.401 220.843 410.462 220.815 410.527 220.801C410.592 220.786 410.659 220.784 410.725 220.795C410.791 220.806 410.853 220.83 410.91 220.866C410.966 220.901 411.015 220.947 411.054 221.002C411.092 221.056 411.12 221.117 411.134 221.182C411.149 221.247 411.151 221.314 411.14 221.38C410.84 223.1 410.48 224.81 410.09 226.47C410.057 226.567 409.996 226.651 409.913 226.712C409.831 226.773 409.732 226.807 409.63 226.81ZM411.16 218.68H411.1C410.971 218.66 410.854 218.59 410.776 218.486C410.697 218.381 410.663 218.25 410.68 218.12C410.87 216.78 411.03 215.41 411.17 214.03C411.185 213.898 411.251 213.777 411.354 213.693C411.456 213.609 411.588 213.569 411.72 213.58C411.786 213.586 411.85 213.605 411.908 213.637C411.966 213.668 412.018 213.71 412.06 213.761C412.102 213.812 412.133 213.871 412.152 213.935C412.171 213.998 412.177 214.064 412.17 214.13C412.03 215.52 411.87 216.91 411.68 218.26C411.661 218.38 411.598 218.489 411.504 218.566C411.41 218.644 411.292 218.684 411.17 218.68H411.16ZM412.01 209.41C411.944 209.407 411.88 209.392 411.82 209.364C411.76 209.337 411.707 209.298 411.662 209.25C411.618 209.201 411.583 209.145 411.56 209.083C411.538 209.021 411.527 208.956 411.53 208.89C411.6 207.31 411.64 205.69 411.64 204.09V203.75C411.64 203.617 411.693 203.49 411.786 203.396C411.88 203.303 412.007 203.25 412.14 203.25C412.273 203.25 412.4 203.303 412.494 203.396C412.587 203.49 412.64 203.617 412.64 203.75V204.1C412.64 205.72 412.64 207.35 412.53 208.95C412.52 209.081 412.458 209.203 412.359 209.289C412.26 209.375 412.131 209.418 412 209.41H412.01ZM412.06 201.13C411.931 201.13 411.807 201.08 411.713 200.991C411.62 200.901 411.565 200.779 411.56 200.65C411.56 199.3 411.45 197.91 411.36 196.53C411.356 196.464 411.365 196.398 411.386 196.336C411.408 196.274 411.441 196.217 411.485 196.167C411.529 196.118 411.582 196.078 411.641 196.049C411.7 196.021 411.764 196.004 411.83 196C411.896 195.995 411.962 196.003 412.025 196.023C412.088 196.044 412.146 196.078 412.195 196.122C412.245 196.166 412.285 196.219 412.313 196.279C412.342 196.339 412.358 196.404 412.36 196.47C412.45 197.86 412.52 199.26 412.56 200.62C412.563 200.686 412.552 200.751 412.53 200.813C412.507 200.875 412.472 200.931 412.428 200.98C412.383 201.028 412.33 201.067 412.27 201.094C412.21 201.122 412.146 201.137 412.08 201.14L412.06 201.13ZM411.41 191.84C411.286 191.841 411.165 191.795 411.073 191.712C410.981 191.628 410.922 191.514 410.91 191.39C410.73 189.71 410.51 187.98 410.26 186.27C410.241 186.137 410.276 186.003 410.357 185.896C410.438 185.789 410.557 185.719 410.69 185.7C410.823 185.681 410.957 185.716 411.064 185.797C411.171 185.878 411.241 185.997 411.26 186.13C411.51 187.85 411.73 189.59 411.91 191.28C411.924 191.411 411.886 191.543 411.803 191.646C411.721 191.749 411.601 191.815 411.47 191.83H411.42L411.41 191.84ZM410.28 183.64C410.162 183.639 410.048 183.597 409.958 183.52C409.868 183.443 409.809 183.337 409.79 183.22C409.563 181.887 409.317 180.533 409.05 179.16C409.025 179.027 409.053 178.89 409.129 178.779C409.205 178.667 409.322 178.59 409.455 178.565C409.588 178.54 409.725 178.568 409.836 178.644C409.948 178.72 410.025 178.837 410.05 178.97C410.323 180.35 410.573 181.713 410.8 183.06C410.811 183.125 410.81 183.192 410.796 183.256C410.781 183.321 410.754 183.382 410.716 183.435C410.678 183.489 410.629 183.535 410.573 183.57C410.517 183.605 410.455 183.629 410.39 183.64H410.3H410.28ZM408.46 174.5C408.346 174.501 408.236 174.462 408.146 174.391C408.057 174.32 407.995 174.221 407.97 174.11C407.59 172.46 407.18 170.78 406.74 169.11C406.707 168.977 406.728 168.837 406.798 168.72C406.868 168.603 406.982 168.518 407.115 168.485C407.248 168.452 407.388 168.473 407.505 168.543C407.622 168.613 407.707 168.727 407.74 168.86C408.18 170.55 408.6 172.24 408.98 173.86C408.995 173.924 408.997 173.991 408.985 174.056C408.974 174.121 408.95 174.183 408.915 174.239C408.88 174.295 408.834 174.343 408.78 174.381C408.726 174.419 408.665 174.446 408.6 174.46H408.49L408.46 174.5Z" fill="#475B5B"/>
<path d="M406.42 166.44C406.311 166.439 406.204 166.403 406.118 166.336C406.031 166.269 405.968 166.176 405.94 166.07C405.76 165.403 405.577 164.763 405.39 164.15C405.365 164.067 405.363 163.98 405.382 163.896C405.401 163.811 405.442 163.734 405.5 163.67C405.5 163.67 405.98 163.14 406.77 162.17C406.809 162.112 406.859 162.062 406.918 162.024C406.977 161.987 407.043 161.962 407.112 161.952C407.181 161.941 407.252 161.945 407.319 161.964C407.387 161.982 407.449 162.015 407.504 162.059C407.558 162.103 407.602 162.158 407.633 162.221C407.665 162.283 407.683 162.352 407.686 162.421C407.69 162.491 407.679 162.561 407.653 162.626C407.628 162.691 407.59 162.751 407.54 162.8C407.02 163.44 406.63 163.89 406.42 164.13C406.58 164.683 406.737 165.237 406.89 165.79C406.908 165.854 406.914 165.92 406.906 165.986C406.898 166.052 406.877 166.116 406.845 166.173C406.812 166.231 406.768 166.282 406.716 166.322C406.664 166.363 406.604 166.393 406.54 166.41L406.42 166.44Z" fill="#475B5B"/>
<path d="M410.36 158.83C410.265 158.827 410.173 158.797 410.095 158.744C410.016 158.691 409.954 158.616 409.917 158.529C409.879 158.442 409.867 158.346 409.882 158.253C409.896 158.159 409.937 158.071 410 158C411 156.6 412 155.15 412.94 153.69C412.974 153.631 413.019 153.58 413.073 153.539C413.127 153.498 413.189 153.468 413.255 153.452C413.321 153.436 413.39 153.433 413.457 153.445C413.524 153.456 413.588 153.48 413.645 153.517C413.702 153.554 413.751 153.602 413.789 153.658C413.827 153.714 413.853 153.778 413.866 153.845C413.878 153.911 413.877 153.98 413.862 154.046C413.848 154.112 413.82 154.175 413.78 154.23C412.78 155.71 411.78 157.18 410.78 158.59C410.736 158.662 410.674 158.722 410.601 158.764C410.528 158.806 410.445 158.829 410.36 158.83Z" fill="#475B5B"/>
<path d="M415 151.83C414.911 151.831 414.823 151.807 414.746 151.763C414.669 151.718 414.606 151.654 414.562 151.576C414.518 151.499 414.496 151.411 414.497 151.322C414.499 151.233 414.524 151.146 414.57 151.07C415.29 149.88 415.99 148.66 416.65 147.45C416.714 147.333 416.821 147.247 416.949 147.209C417.076 147.172 417.213 147.186 417.33 147.25C417.447 147.314 417.533 147.421 417.571 147.549C417.608 147.676 417.594 147.813 417.53 147.93C416.86 149.16 416.15 150.39 415.43 151.59C415.385 151.664 415.322 151.725 415.247 151.767C415.171 151.809 415.086 151.831 415 151.83ZM419.47 143.51C419.401 143.525 419.329 143.525 419.26 143.51C419.2 143.482 419.146 143.443 419.101 143.394C419.057 143.345 419.022 143.287 419 143.225C418.978 143.163 418.968 143.097 418.971 143.031C418.975 142.964 418.991 142.9 419.02 142.84C419.77 141.25 420.47 139.65 421.11 138.06C421.134 137.999 421.17 137.943 421.216 137.896C421.262 137.849 421.317 137.811 421.377 137.785C421.437 137.759 421.502 137.746 421.568 137.745C421.634 137.744 421.699 137.756 421.76 137.78C421.821 137.804 421.877 137.84 421.924 137.886C421.971 137.932 422.009 137.987 422.035 138.047C422.061 138.107 422.075 138.172 422.075 138.238C422.076 138.304 422.064 138.369 422.04 138.43C421.4 140.03 420.69 141.66 419.93 143.27C419.881 143.351 419.81 143.417 419.725 143.46C419.64 143.502 419.545 143.52 419.45 143.51H419.47ZM422.68 135.76C422.6 135.76 422.521 135.741 422.449 135.704C422.378 135.667 422.317 135.613 422.271 135.547C422.225 135.481 422.195 135.406 422.185 135.326C422.174 135.246 422.183 135.165 422.21 135.09C422.68 133.77 423.11 132.43 423.49 131.09C423.527 130.957 423.615 130.845 423.735 130.777C423.855 130.71 423.997 130.693 424.13 130.73C424.263 130.767 424.375 130.855 424.443 130.975C424.51 131.095 424.527 131.237 424.49 131.37C424.1 132.7 423.66 134.05 423.19 135.37C423.164 135.488 423.096 135.593 422.998 135.664C422.901 135.736 422.781 135.77 422.66 135.76H422.68ZM425.25 126.68H425.15C425.086 126.667 425.025 126.641 424.97 126.604C424.916 126.568 424.869 126.521 424.833 126.466C424.797 126.411 424.772 126.35 424.759 126.285C424.747 126.221 424.747 126.154 424.76 126.09C425.12 124.37 425.41 122.64 425.61 120.96C425.63 120.829 425.699 120.711 425.803 120.629C425.907 120.547 426.038 120.508 426.17 120.52C426.236 120.527 426.3 120.548 426.357 120.58C426.415 120.612 426.466 120.656 426.507 120.708C426.548 120.76 426.578 120.82 426.596 120.884C426.614 120.948 426.618 121.014 426.61 121.08C426.4 122.8 426.11 124.55 425.75 126.3C425.72 126.411 425.653 126.508 425.561 126.575C425.468 126.643 425.355 126.676 425.24 126.67L425.25 126.68ZM426.4 118.37C426.334 118.366 426.27 118.349 426.211 118.321C426.152 118.292 426.099 118.252 426.055 118.203C426.011 118.153 425.978 118.096 425.956 118.034C425.935 117.972 425.926 117.906 425.93 117.84C426.01 116.68 426.04 115.52 426.04 114.39V113.68C426.039 113.614 426.05 113.549 426.074 113.488C426.098 113.427 426.134 113.371 426.179 113.323C426.225 113.276 426.279 113.238 426.339 113.212C426.4 113.186 426.464 113.171 426.53 113.17C426.661 113.172 426.787 113.224 426.881 113.315C426.976 113.406 427.032 113.529 427.04 113.66V114.38C427.04 115.54 427.04 116.72 426.93 117.9C426.926 117.967 426.909 118.032 426.88 118.092C426.85 118.152 426.809 118.205 426.759 118.249C426.709 118.293 426.65 118.326 426.587 118.347C426.523 118.368 426.457 118.375 426.39 118.37H426.4ZM426.16 108.94C426.037 108.941 425.918 108.897 425.826 108.815C425.734 108.734 425.675 108.622 425.66 108.5C425.455 106.782 425.157 105.076 424.77 103.39C424.756 103.324 424.754 103.256 424.766 103.19C424.778 103.124 424.802 103.061 424.839 103.004C424.875 102.948 424.922 102.899 424.977 102.86C425.032 102.822 425.094 102.794 425.16 102.78C425.226 102.766 425.294 102.764 425.36 102.776C425.426 102.788 425.489 102.812 425.546 102.849C425.602 102.885 425.651 102.932 425.69 102.987C425.728 103.042 425.756 103.104 425.77 103.17C426.167 104.892 426.471 106.635 426.68 108.39C426.688 108.456 426.684 108.522 426.666 108.586C426.648 108.65 426.618 108.71 426.577 108.762C426.536 108.814 426.485 108.858 426.427 108.89C426.37 108.922 426.306 108.943 426.24 108.95H426.18L426.16 108.94ZM424.46 100.73C424.352 100.73 424.247 100.695 424.16 100.63C424.073 100.565 424.01 100.474 423.98 100.37C423.58 99.05 423.12 97.73 422.61 96.45C422.586 96.3889 422.574 96.3237 422.575 96.258C422.576 96.1923 422.589 96.1274 422.615 96.067C422.641 96.0066 422.679 95.952 422.726 95.9062C422.773 95.8604 422.829 95.8243 422.89 95.8C422.951 95.7757 423.016 95.7637 423.082 95.7646C423.148 95.7655 423.213 95.7794 423.273 95.8054C423.333 95.8314 423.388 95.869 423.434 95.9161C423.48 95.9633 423.516 96.0189 423.54 96.08C424.06 97.39 424.54 98.73 424.94 100.08C424.978 100.206 424.964 100.342 424.902 100.458C424.84 100.574 424.735 100.661 424.61 100.7L424.46 100.73ZM420.86 92C420.769 91.9993 420.68 91.9738 420.602 91.9262C420.525 91.8786 420.462 91.8108 420.42 91.73C419.62 90.22 418.73 88.73 417.77 87.27C417.711 87.1602 417.695 87.0324 417.726 86.9116C417.756 86.7908 417.831 86.6857 417.934 86.6169C418.038 86.548 418.164 86.5205 418.287 86.5396C418.41 86.5586 418.522 86.623 418.6 86.72C419.6 88.2 420.49 89.72 421.3 91.27C421.331 91.3283 421.351 91.3923 421.357 91.4582C421.363 91.5241 421.357 91.5906 421.337 91.6539C421.318 91.7172 421.286 91.7759 421.243 91.8267C421.201 91.8776 421.149 91.9195 421.09 91.95C421.019 91.9851 420.94 92.0023 420.86 92ZM416.37 84.92C416.292 84.92 416.216 84.9019 416.146 84.8672C416.077 84.8325 416.017 84.7821 415.97 84.72C415.16 83.63 414.28 82.54 413.36 81.48C413.274 81.3792 413.231 81.2483 413.242 81.1161C413.252 80.9839 413.314 80.8612 413.415 80.775C413.516 80.6888 413.647 80.6462 413.779 80.6565C413.911 80.6668 414.034 80.7292 414.12 80.83C415.05 81.91 415.94 83.02 416.77 84.13C416.829 84.2042 416.865 84.2935 416.875 84.3876C416.885 84.4817 416.868 84.5766 416.826 84.6615C416.784 84.7463 416.719 84.8175 416.638 84.8668C416.558 84.9161 416.465 84.9415 416.37 84.94V84.92ZM410.16 77.82C410.028 77.8181 409.902 77.7642 409.81 77.67C408.61 76.48 407.32 75.29 405.98 74.14C405.93 74.0973 405.889 74.0452 405.859 73.9867C405.83 73.9282 405.812 73.8644 405.807 73.7989C405.801 73.7334 405.809 73.6676 405.83 73.6052C405.85 73.5427 405.882 73.4849 405.925 73.435C405.968 73.3851 406.02 73.3441 406.078 73.3143C406.137 73.2845 406.201 73.2666 406.266 73.2615C406.332 73.2564 406.397 73.2642 406.46 73.2846C406.522 73.3049 406.58 73.3373 406.63 73.38C407.99 74.55 409.29 75.75 410.51 76.96C410.586 77.0287 410.638 77.1188 410.661 77.2184C410.684 77.3179 410.676 77.4221 410.638 77.5168C410.6 77.6116 410.533 77.6924 410.448 77.7484C410.363 77.8044 410.262 77.8328 410.16 77.83V77.82ZM403.88 72.26C403.767 72.2593 403.658 72.2206 403.57 72.15C402.5 71.3 401.38 70.45 400.24 69.63C400.133 69.5518 400.061 69.4341 400.04 69.3028C400.019 69.1715 400.052 69.0374 400.13 68.93C400.208 68.8226 400.326 68.7507 400.457 68.73C400.589 68.7094 400.723 68.7418 400.83 68.82C401.98 69.65 403.11 70.51 404.19 71.37C404.275 71.4335 404.337 71.5222 404.368 71.6233C404.399 71.7245 404.397 71.8329 404.363 71.9329C404.328 72.033 404.263 72.1195 404.176 72.1801C404.09 72.2407 403.986 72.2721 403.88 72.27V72.26ZM396.2 66.77C396.104 66.7697 396.01 66.742 395.93 66.69C394.5 65.77 393 64.85 391.47 63.97C391.413 63.9372 391.363 63.8934 391.323 63.8412C391.282 63.789 391.253 63.7294 391.236 63.6658C391.218 63.6022 391.214 63.5358 391.222 63.4705C391.231 63.4052 391.252 63.3421 391.285 63.285C391.318 63.2279 391.362 63.1778 391.414 63.1376C391.466 63.0974 391.526 63.0678 391.589 63.0506C391.653 63.0335 391.719 63.029 391.785 63.0374C391.85 63.0459 391.913 63.0672 391.97 63.1C393.51 64 395.02 64.92 396.46 65.85C396.554 65.9057 396.627 65.9905 396.668 66.0916C396.709 66.1927 396.716 66.3044 396.688 66.4098C396.659 66.5152 396.597 66.6084 396.511 66.6753C396.425 66.7421 396.319 66.7789 396.21 66.78L396.2 66.77Z" fill="#475B5B"/>
<path d="M388.94 62.48C388.856 62.4804 388.774 62.4598 388.7 62.42L386.94 61.48C386.874 61.4549 386.814 61.4161 386.764 61.3661C386.714 61.3162 386.675 61.2562 386.65 61.1901C386.625 61.1241 386.614 61.0535 386.618 60.9829C386.623 60.9124 386.642 60.8436 386.674 60.781C386.707 60.7183 386.753 60.6634 386.808 60.6197C386.864 60.576 386.928 60.5446 386.997 60.5275C387.065 60.5104 387.137 60.508 387.206 60.5205C387.276 60.533 387.342 60.5601 387.4 60.6L389.17 61.55C389.263 61.6047 389.335 61.6878 389.377 61.787C389.418 61.8862 389.427 61.9962 389.401 62.1006C389.375 62.2051 389.317 62.2984 389.233 62.3667C389.15 62.4351 389.047 62.4748 388.94 62.48Z" fill="#475B5B"/>
<path d="M410.707 163.607C410.772 160.377 408.205 157.705 404.974 157.64C401.744 157.576 399.072 160.143 399.007 163.373C398.943 166.604 401.51 169.276 404.74 169.34C407.971 169.405 410.643 166.838 410.707 163.607Z" fill="#F9CFA9"/>
<path d="M366.129 282.164C366.203 278.934 363.644 276.256 360.413 276.183C357.183 276.109 354.506 278.668 354.432 281.898C354.359 285.128 356.918 287.806 360.148 287.879C363.378 287.953 366.056 285.394 366.129 282.164Z" fill="#F9CFA9"/>
<path d="M387.18 96.05C406.328 96.05 421.85 80.5277 421.85 61.38C421.85 42.2323 406.328 26.71 387.18 26.71C368.032 26.71 352.51 42.2323 352.51 61.38C352.51 80.5277 368.032 96.05 387.18 96.05Z" fill="#475B5B"/>
<path d="M387.18 89.21C402.55 89.21 415.01 76.7501 415.01 61.38C415.01 46.0099 402.55 33.55 387.18 33.55C371.81 33.55 359.35 46.0099 359.35 61.38C359.35 76.7501 371.81 89.21 387.18 89.21Z" fill="#878D8B" fill-opacity="0.1"/>
<path d="M387.18 63.34C388.262 63.34 389.14 62.4625 389.14 61.38C389.14 60.2975 388.262 59.42 387.18 59.42C386.098 59.42 385.22 60.2975 385.22 61.38C385.22 62.4625 386.098 63.34 387.18 63.34Z" fill="white"/>
<path d="M388.43 36.38H385.93V42.55H388.43V36.38Z" fill="white"/>
<path d="M405.747 44.5958L403.98 42.828L399.617 47.1909L401.385 48.9587L405.747 44.5958Z" fill="white"/>
<path d="M412.18 62.63V60.13H406.01V62.63H412.18Z" fill="white"/>
<path d="M403.964 79.9471L405.732 78.1794L401.369 73.8165L399.601 75.5843L403.964 79.9471Z" fill="white"/>
<path d="M385.93 86.38H388.43V80.21H385.93V86.38Z" fill="white"/>
<path d="M368.623 78.1742L370.391 79.942L374.754 75.5791L372.986 73.8113L368.623 78.1742Z" fill="white"/>
<path d="M362.18 60.13V62.63H368.35V60.13H362.18Z" fill="white"/>
<path d="M370.386 42.8228L368.618 44.5906L372.981 48.9535L374.748 47.1857L370.386 42.8228Z" fill="white"/>
<path d="M387.76 45H386.59L386 60.13C385.993 60.2917 386.019 60.4532 386.077 60.6046C386.134 60.756 386.221 60.8943 386.333 61.011C386.445 61.1278 386.58 61.2207 386.729 61.2841C386.878 61.3475 387.038 61.3801 387.2 61.38C387.362 61.3801 387.522 61.3475 387.671 61.2841C387.82 61.2207 387.955 61.1278 388.067 61.011C388.179 60.8943 388.266 60.756 388.323 60.6046C388.381 60.4532 388.407 60.2917 388.4 60.13L387.76 45Z" fill="white"/>
<path d="M375.16 72.58L376 73.4L387.16 63.11C387.276 62.998 387.369 62.8637 387.432 62.7151C387.496 62.5664 387.528 62.4065 387.528 62.245C387.528 62.0835 387.496 61.9236 387.432 61.7749C387.369 61.6263 387.276 61.492 387.16 61.38C387.048 61.2636 386.914 61.1709 386.765 61.1076C386.616 61.0444 386.457 61.0117 386.295 61.0117C386.133 61.0117 385.974 61.0444 385.825 61.1076C385.676 61.1709 385.542 61.2636 385.43 61.38L375.16 72.58Z" fill="white"/>
<path d="M328.27 244.39H283.67C280.113 244.39 277.23 247.273 277.23 250.83V313.2C277.23 316.757 280.113 319.64 283.67 319.64H328.27C331.827 319.64 334.71 316.757 334.71 313.2V250.83C334.71 247.273 331.827 244.39 328.27 244.39Z" fill="#F9CFA9"/>
<path d="M326.02 254.14H301.7C301.01 254.14 300.45 254.7 300.45 255.39C300.45 256.08 301.01 256.64 301.7 256.64H326.02C326.71 256.64 327.27 256.08 327.27 255.39C327.27 254.7 326.71 254.14 326.02 254.14Z" fill="white"/>
<path d="M291.88 250.33H287.57C285.963 250.33 284.66 251.633 284.66 253.24V257.55C284.66 259.157 285.963 260.46 287.57 260.46H291.88C293.487 260.46 294.79 259.157 294.79 257.55V253.24C294.79 251.633 293.487 250.33 291.88 250.33Z" fill="white"/>
<path d="M287.54 253.08L285.97 254.64L289.85 258.52L299.1 250.83L290.35 256.08L287.54 253.08Z" fill="#475B5B"/>
<path d="M326.02 271.89H301.7C301.01 271.89 300.45 272.45 300.45 273.14C300.45 273.83 301.01 274.39 301.7 274.39H326.02C326.71 274.39 327.27 273.83 327.27 273.14C327.27 272.45 326.71 271.89 326.02 271.89Z" fill="white"/>
<path d="M291.88 268.08H287.57C285.963 268.08 284.66 269.383 284.66 270.99V275.3C284.66 276.907 285.963 278.21 287.57 278.21H291.88C293.487 278.21 294.79 276.907 294.79 275.3V270.99C294.79 269.383 293.487 268.08 291.88 268.08Z" fill="white"/>
<path d="M326.02 289.64H301.7C301.01 289.64 300.45 290.2 300.45 290.89C300.45 291.58 301.01 292.14 301.7 292.14H326.02C326.71 292.14 327.27 291.58 327.27 290.89C327.27 290.2 326.71 289.64 326.02 289.64Z" fill="white"/>
<path d="M291.88 285.83H287.57C285.963 285.83 284.66 287.133 284.66 288.74V293.05C284.66 294.657 285.963 295.96 287.57 295.96H291.88C293.487 295.96 294.79 294.657 294.79 293.05V288.74C294.79 287.133 293.487 285.83 291.88 285.83Z" fill="white"/>
<path d="M326.02 307.39H301.7C301.01 307.39 300.45 307.95 300.45 308.64C300.45 309.33 301.01 309.89 301.7 309.89H326.02C326.71 309.89 327.27 309.33 327.27 308.64C327.27 307.95 326.71 307.39 326.02 307.39Z" fill="white"/>
<path d="M291.88 303.58H287.57C285.963 303.58 284.66 304.883 284.66 306.49V310.8C284.66 312.407 285.963 313.71 287.57 313.71H291.88C293.487 313.71 294.79 312.407 294.79 310.8V306.49C294.79 304.883 293.487 303.58 291.88 303.58Z" fill="white"/>
<path d="M248.22 293.18H217.91C214.773 293.18 212.23 295.723 212.23 298.86V342.05C212.23 345.187 214.773 347.73 217.91 347.73H248.22C251.357 347.73 253.9 345.187 253.9 342.05V298.86C253.9 295.723 251.357 293.18 248.22 293.18Z" fill="#878D8B"/>
<path d="M247.69 300.25H229.9C229.442 300.25 229.07 300.622 229.07 301.08V301.23C229.07 301.688 229.442 302.06 229.9 302.06H247.69C248.148 302.06 248.52 301.688 248.52 301.23V301.08C248.52 300.622 248.148 300.25 247.69 300.25Z" fill="white"/>
<path d="M222.82 297.49H219.76C218.578 297.49 217.62 298.448 217.62 299.63V302.69C217.62 303.872 218.578 304.83 219.76 304.83H222.82C224.002 304.83 224.96 303.872 224.96 302.69V299.63C224.96 298.448 224.002 297.49 222.82 297.49Z" fill="white"/>
<path d="M247.69 313.12H229.9C229.442 313.12 229.07 313.492 229.07 313.95V314.1C229.07 314.558 229.442 314.93 229.9 314.93H247.69C248.148 314.93 248.52 314.558 248.52 314.1V313.95C248.52 313.492 248.148 313.12 247.69 313.12Z" fill="white"/>
<path d="M222.82 310.35H219.76C218.578 310.35 217.62 311.308 217.62 312.49V315.55C217.62 316.732 218.578 317.69 219.76 317.69H222.82C224.002 317.69 224.96 316.732 224.96 315.55V312.49C224.96 311.308 224.002 310.35 222.82 310.35Z" fill="white"/>
<path d="M247.69 325.99H229.9C229.442 325.99 229.07 326.362 229.07 326.82V326.97C229.07 327.428 229.442 327.8 229.9 327.8H247.69C248.148 327.8 248.52 327.428 248.52 326.97V326.82C248.52 326.362 248.148 325.99 247.69 325.99Z" fill="white"/>
<path d="M222.82 323.22H219.76C218.578 323.22 217.62 324.178 217.62 325.36V328.42C217.62 329.602 218.578 330.56 219.76 330.56H222.82C224.002 330.56 224.96 329.602 224.96 328.42V325.36C224.96 324.178 224.002 323.22 222.82 323.22Z" fill="white"/>
<path d="M247.69 338.85H229.9C229.442 338.85 229.07 339.222 229.07 339.68V339.83C229.07 340.288 229.442 340.66 229.9 340.66H247.69C248.148 340.66 248.52 340.288 248.52 339.83V339.68C248.52 339.222 248.148 338.85 247.69 338.85Z" fill="white"/>
<path d="M222.82 336.09H219.76C218.578 336.09 217.62 337.048 217.62 338.23V341.29C217.62 342.472 218.578 343.43 219.76 343.43H222.82C224.002 343.43 224.96 342.472 224.96 341.29V338.23C224.96 337.048 224.002 336.09 222.82 336.09Z" fill="white"/>
<path d="M104.08 81.1C106.101 81.1 107.74 79.4614 107.74 77.44C107.74 75.4186 106.101 73.78 104.08 73.78C102.059 73.78 100.42 75.4186 100.42 77.44C100.42 79.4614 102.059 81.1 104.08 81.1Z" fill="#475B5B"/>
<path d="M90.26 84.75C91.2596 84.75 92.07 83.9396 92.07 82.94C92.07 81.9404 91.2596 81.13 90.26 81.13C89.2604 81.13 88.45 81.9404 88.45 82.94C88.45 83.9396 89.2604 84.75 90.26 84.75Z" fill="#475B5B"/>
<path d="M416.32 311.35C419.44 311.35 421.97 308.82 421.97 305.7C421.97 302.58 419.44 300.05 416.32 300.05C413.2 300.05 410.67 302.58 410.67 305.7C410.67 308.82 413.2 311.35 416.32 311.35Z" fill="#475B5B"/>
<path d="M401.04 301.41C402.586 301.41 403.84 300.156 403.84 298.61C403.84 297.064 402.586 295.81 401.04 295.81C399.494 295.81 398.24 297.064 398.24 298.61C398.24 300.156 399.494 301.41 401.04 301.41Z" fill="#475B5B"/>
<path d="M239.28 405.57C242.4 405.57 244.93 403.04 244.93 399.92C244.93 396.8 242.4 394.27 239.28 394.27C236.16 394.27 233.63 396.8 233.63 399.92C233.63 403.04 236.16 405.57 239.28 405.57Z" fill="#475B5B"/>
<path d="M224 395.62C225.546 395.62 226.8 394.366 226.8 392.82C226.8 391.274 225.546 390.02 224 390.02C222.454 390.02 221.2 391.274 221.2 392.82C221.2 394.366 222.454 395.62 224 395.62Z" fill="#475B5B"/>
<path d="M117.84 144.64C105.43 146.49 93.84 189.81 90.09 201.81C86.34 213.81 88.84 240.64 88.84 240.64C88.84 240.64 98.59 245.39 102.84 240.14C102.84 240.14 106.84 214.06 111.59 200.81C116.34 187.56 123.34 177.06 126.84 164.56C130.34 152.06 127.34 143.22 117.84 144.64Z" fill="#F9CFA9"/>
<path d="M85.47 239.93L86 250.55C89.1551 252.56 92.9312 253.359 96.63 252.8C103 251.93 105.25 248.93 105.25 248.93L105.38 239.18C105.38 239.18 97.47 234.3 85.47 239.93Z" fill="#878D8B"/>
<path d="M79.51 230.47L77.34 263.64L112.51 252.72L115.68 219.97L79.51 230.47Z" fill="#878D8B"/>
<path d="M77.34 263.64L74.01 262.55L76.18 229.39L79.51 230.47L77.34 263.64Z" fill="#475B5B"/>
<path d="M115.68 219.97L112.34 218.89L76.18 229.39L79.51 230.47L115.68 219.97Z" fill="#475B5B"/>
<path d="M83.53 261.62C83.53 261.62 83.72 264.75 86.09 265.62C86.7924 265.874 87.5415 265.972 88.2856 265.908C89.0298 265.845 89.7512 265.62 90.4 265.25C91.2007 265.49 92.0459 265.541 92.8698 265.401C93.6937 265.26 94.474 264.931 95.15 264.44C95.15 264.44 97.78 265.32 99.09 263.63C99.09 263.63 102.34 264.38 103.34 261.38C104.34 258.38 104.59 254.13 103.28 253.19C101.97 252.25 101.06 254.35 101.06 254.35C100.881 254.083 100.639 253.862 100.356 253.708C100.074 253.554 99.7577 253.47 99.4356 253.464C99.1136 253.459 98.7949 253.531 98.5066 253.674C98.2184 253.818 97.9691 254.029 97.78 254.29C97.78 254.29 95.94 252.51 94 254.82C94 254.82 92.78 253.07 91.22 254.2C89.66 255.33 88.81 259.78 88.63 260.2L83.53 261.62Z" fill="#ECBDBB"/>
<path d="M92.28 263C92.1996 262.999 92.1207 262.978 92.05 262.94C91.934 262.878 91.8469 262.773 91.8076 262.648C91.7683 262.523 91.78 262.387 91.84 262.27C92.7705 260.179 93.3321 257.943 93.5 255.66C93.508 255.527 93.5683 255.403 93.6677 255.315C93.7671 255.227 93.8974 255.182 94.03 255.19C94.1626 255.198 94.2866 255.258 94.3748 255.358C94.4629 255.457 94.508 255.587 94.5 255.72C94.3282 258.14 93.7289 260.51 92.73 262.72C92.6888 262.804 92.6247 262.875 92.5452 262.925C92.4656 262.974 92.3737 263 92.28 263Z" fill="#475B5B"/>
<path d="M96 262.77C95.9276 262.786 95.8524 262.786 95.78 262.77C95.7208 262.741 95.6679 262.701 95.6243 262.652C95.5807 262.602 95.5473 262.545 95.5259 262.483C95.5045 262.421 95.4956 262.355 95.4998 262.289C95.5039 262.223 95.521 262.159 95.55 262.1C96.4532 260.004 97.0072 257.775 97.19 255.5C97.2002 255.368 97.2612 255.246 97.3601 255.158C97.4589 255.07 97.588 255.024 97.72 255.03C97.7857 255.034 97.85 255.051 97.9092 255.079C97.9684 255.108 98.0214 255.148 98.065 255.197C98.1087 255.247 98.1422 255.304 98.1637 255.366C98.1851 255.428 98.1941 255.494 98.19 255.56C98.007 257.974 97.4188 260.341 96.45 262.56C96.3998 262.631 96.3318 262.688 96.2529 262.725C96.174 262.762 96.0868 262.777 96 262.77Z" fill="#475B5B"/>
<path d="M99.62 262.18C99.5316 262.181 99.4445 262.159 99.3675 262.116C99.2906 262.072 99.2264 262.009 99.1817 261.933C99.137 261.857 99.1133 261.77 99.113 261.682C99.1127 261.593 99.1358 261.507 99.18 261.43C100.24 259.55 100.49 255.56 100.49 255.52C100.5 255.388 100.561 255.266 100.66 255.178C100.759 255.09 100.888 255.044 101.02 255.05C101.086 255.054 101.15 255.071 101.209 255.099C101.268 255.128 101.321 255.168 101.365 255.217C101.409 255.267 101.442 255.324 101.464 255.386C101.485 255.448 101.494 255.514 101.49 255.58C101.49 255.75 101.22 259.84 100.05 261.92C100.008 261.997 99.9456 262.062 99.87 262.108C99.7945 262.154 99.7082 262.178 99.62 262.18Z" fill="#475B5B"/>
<path d="M93.01 431.14L90.44 440.41L87.18 452.14H78.01L79.15 439.28L79.85 431.47L93.01 431.14Z" fill="#ECBDBB"/>
<path d="M79.85 431.47L93.01 431.14L90.44 440.41L79.15 439.28L79.85 431.47Z" fill="#475B5B"/>
<path d="M72.34 468.47C72.26 468.14 73.76 456.47 77.26 449.3C81.0509 449.727 84.8708 449.838 88.68 449.63C88.68 449.63 98.1 456.8 106.43 459.96C114.76 463.12 116.6 464.38 116.35 468.46H72.35L72.34 468.47Z" fill="#475B5B"/>
<path d="M102.84 249.3C102.84 249.3 76.84 320.8 65.84 435.8H112.34C112.34 435.8 120.34 351.3 139.34 295.3L148.59 253.55C153.68 220 115.68 214.3 102.84 249.3Z" fill="#878D8B"/>
<path d="M111.85 281.18C110.34 281.18 103.34 275.41 102.64 273.89C101.94 272.37 104.64 261.32 105.41 257.94C105.441 257.816 105.518 257.708 105.626 257.639C105.734 257.571 105.864 257.546 105.99 257.57C112.604 258.731 119.283 259.479 125.99 259.81C126.061 259.813 126.131 259.832 126.195 259.864C126.259 259.896 126.315 259.942 126.359 259.998C126.404 260.054 126.436 260.119 126.453 260.188C126.471 260.257 126.473 260.33 126.46 260.4C125.99 262.89 123.65 275.4 123.39 275.99C123 277.07 112.81 281.18 111.85 281.18ZM106.28 258.63C104.68 265.35 103.28 272.63 103.56 273.48C104.13 274.73 110.8 280.12 111.86 280.18C112.92 280.24 121.6 276.38 122.54 275.56C122.8 274.64 124.35 266.5 125.43 260.78C119.007 260.44 112.609 259.722 106.27 258.63H106.28Z" fill="#475B5B"/>
<path d="M101.84 431.8H101.78C101.649 431.785 101.529 431.719 101.447 431.616C101.364 431.513 101.326 431.381 101.34 431.25C108.76 368.44 127.66 296.65 127.85 295.93C127.884 295.797 127.97 295.684 128.088 295.615C128.207 295.545 128.347 295.526 128.48 295.56C128.613 295.594 128.726 295.68 128.795 295.798C128.865 295.917 128.884 296.057 128.85 296.19C128.66 296.91 109.77 368.63 102.36 431.37C102.343 431.494 102.28 431.606 102.183 431.686C102.087 431.766 101.965 431.806 101.84 431.8Z" fill="#475B5B"/>
<path d="M167.06 431.14L166 441.07L164.81 452.14H155.65L154.59 439.3L153.95 431.47L167.06 431.14Z" fill="#ECBDBB"/>
<path d="M167.06 431.14L166 441.07L154.59 439.3L153.95 431.47L167.06 431.14Z" fill="#475B5B"/>
<path d="M150 468.47C149.92 468.14 151.42 456.47 154.92 449.3C158.711 449.727 162.531 449.838 166.34 449.63C166.34 449.63 175.76 456.8 184.09 459.96C192.42 463.12 194.26 464.38 194.01 468.46H150V468.47Z" fill="#475B5B"/>
<path d="M131.34 254.81C131.34 254.81 124.51 280.68 133.76 304.81C135.89 349.55 138.76 411.7 139.34 435.81H191.9C191.9 435.81 194.27 311.92 182.03 252.6C169.79 193.28 126.84 215.31 131.34 254.81Z" fill="#878D8B"/>
<path d="M133.76 305.3C133.656 305.299 133.555 305.266 133.471 305.205C133.386 305.144 133.323 305.058 133.29 304.96C127.68 288.07 127.06 275.41 130.84 254.79C130.595 252.636 130.489 250.468 130.52 248.3C130.52 248.167 130.573 248.04 130.666 247.946C130.76 247.853 130.887 247.8 131.02 247.8C131.153 247.8 131.28 247.853 131.374 247.946C131.467 248.04 131.52 248.167 131.52 248.3C131.488 250.451 131.595 252.602 131.84 254.74C131.848 254.79 131.848 254.84 131.84 254.89C128.08 275.36 128.69 287.89 134.24 304.63C134.281 304.756 134.27 304.893 134.21 305.011C134.15 305.129 134.046 305.219 133.92 305.26L133.76 305.3Z" fill="#475B5B"/>
<path d="M160.23 282.81C158.23 282.81 149.67 279.43 148.67 278.19C147.67 276.95 146.74 264.51 146.47 260.71C146.464 260.639 146.474 260.567 146.498 260.5C146.522 260.433 146.56 260.371 146.61 260.32C146.659 260.266 146.719 260.224 146.787 260.198C146.855 260.172 146.928 260.162 147 260.17C147.11 260.17 158.28 260.81 167.84 258.74C167.91 258.726 167.983 258.726 168.053 258.742C168.123 258.758 168.188 258.789 168.245 258.833C168.302 258.877 168.349 258.932 168.382 258.995C168.416 259.059 168.436 259.128 168.44 259.2C168.61 261.93 169.44 275.56 169.34 276.2C169.19 277.34 161.34 282.53 160.47 282.74C160.393 282.773 160.313 282.797 160.23 282.81ZM147.51 261.2C148.06 268.66 148.91 276.78 149.46 277.56C150.25 278.56 159.11 282.05 160.23 281.81C161.35 281.57 167.7 276.97 168.36 276.05C168.36 275.05 167.87 266.11 167.49 259.84C160.9 261.023 154.2 261.479 147.51 261.2Z" fill="#475B5B"/>
<path d="M146.51 295.47C131.37 294.32 121.15 294.3 121.05 294.3C120.917 294.3 120.79 294.247 120.696 294.154C120.603 294.06 120.55 293.933 120.55 293.8C120.55 293.667 120.603 293.54 120.696 293.446C120.79 293.353 120.917 293.3 121.05 293.3C121.15 293.3 131.41 293.3 146.59 294.47C146.656 294.475 146.72 294.493 146.778 294.523C146.837 294.553 146.889 294.595 146.932 294.645C146.975 294.695 147.007 294.753 147.027 294.816C147.048 294.878 147.055 294.944 147.05 295.01C147.045 295.076 147.027 295.14 146.997 295.198C146.967 295.257 146.925 295.309 146.875 295.352C146.825 295.395 146.767 295.427 146.704 295.447C146.642 295.468 146.576 295.475 146.51 295.47Z" fill="#475B5B"/>
<path d="M179.34 430.3H179.29C179.224 430.294 179.16 430.275 179.102 430.243C179.044 430.212 178.992 430.17 178.95 430.119C178.908 430.068 178.877 430.009 178.858 429.945C178.839 429.882 178.833 429.816 178.84 429.75C185.76 363.07 175.44 257.66 175.34 256.6C175.327 256.467 175.367 256.335 175.451 256.232C175.535 256.129 175.657 256.063 175.79 256.05C175.923 256.037 176.055 256.077 176.158 256.161C176.261 256.245 176.327 256.367 176.34 256.5C176.44 257.56 186.76 363.07 179.84 429.85C179.828 429.974 179.769 430.088 179.677 430.172C179.585 430.255 179.464 430.301 179.34 430.3Z" fill="#475B5B"/>
<path d="M145.43 143.72C145.43 143.72 147.6 138.05 148.51 136.14C142.213 135.024 135.79 134.799 129.43 135.47L132.43 143.72H145.43Z" fill="#F9CFA9"/>
<path d="M117.84 144.64C117.84 144.64 137.67 137.81 161.17 146.47C161.17 146.47 181.34 207.8 185.84 251.8C185.84 251.8 143.59 261.8 98.09 252.3C98.09 252.3 101.84 170.3 117.84 144.64Z" fill="#F9CFA9"/>
<path d="M145.83 143.19H145.76C140.281 142.472 134.738 142.389 129.24 142.94C129.174 142.947 129.108 142.94 129.045 142.921C128.982 142.902 128.923 142.871 128.872 142.829C128.821 142.787 128.778 142.736 128.747 142.678C128.716 142.619 128.697 142.556 128.69 142.49C128.683 142.424 128.69 142.358 128.709 142.295C128.728 142.232 128.759 142.173 128.801 142.122C128.843 142.071 128.894 142.028 128.952 141.997C129.011 141.966 129.074 141.947 129.14 141.94C134.714 141.38 140.335 141.464 145.89 142.19C146.023 142.198 146.147 142.258 146.235 142.358C146.323 142.457 146.368 142.587 146.36 142.72C146.352 142.853 146.292 142.977 146.192 143.065C146.093 143.153 145.963 143.198 145.83 143.19Z" fill="#ECBDBB"/>
<path d="M100.84 218.4H100.79C100.659 218.385 100.539 218.319 100.457 218.216C100.374 218.113 100.336 217.981 100.35 217.85C103.05 192.49 108.21 159.16 117.43 144.38C117.5 144.267 117.612 144.187 117.742 144.157C117.871 144.127 118.007 144.15 118.12 144.22C118.233 144.29 118.313 144.402 118.343 144.532C118.373 144.661 118.35 144.797 118.28 144.91C109.15 159.52 104 192.7 101.34 218C101.317 218.115 101.254 218.217 101.162 218.291C101.071 218.364 100.957 218.402 100.84 218.4Z" fill="#ECBDBB"/>
<path d="M178.8 248.8C178.677 248.801 178.558 248.757 178.466 248.675C178.374 248.594 178.315 248.482 178.3 248.36C175.05 222.2 166.94 193.96 166.86 193.68C166.823 193.547 166.84 193.405 166.907 193.285C166.975 193.165 167.087 193.077 167.22 193.04C167.353 193.003 167.495 193.02 167.615 193.087C167.735 193.155 167.823 193.267 167.86 193.4C167.94 193.68 176.07 222 179.33 248.23C179.347 248.361 179.311 248.494 179.231 248.599C179.15 248.704 179.031 248.773 178.9 248.79H178.8V248.8Z" fill="#ECBDBB"/>
<path d="M203 168.05L207.75 159.55C207.75 159.55 205.75 149.3 205.67 147.72C205.59 146.14 210.25 141.14 210.75 140.72C211.25 140.3 216.42 140.22 216.42 140.22C217.24 139.869 218.13 139.715 219.02 139.77C219.304 139.778 219.573 139.896 219.771 140.1C219.969 140.303 220.08 140.576 220.08 140.86C220.08 140.86 222.3 140.27 222.36 141.92C222.556 141.894 222.754 141.894 222.95 141.92C223.183 141.973 223.395 142.092 223.563 142.262C223.73 142.432 223.845 142.646 223.895 142.88C223.944 143.113 223.926 143.356 223.842 143.579C223.757 143.803 223.611 143.997 223.42 144.14C222.3 144.98 220.27 146.5 220.18 146.66C220.09 146.82 216.06 152.97 215.99 153.22C215.92 153.47 215.15 160.44 214.74 161.85C214.33 163.26 210.26 173 210.26 173L203 168.05Z" fill="#ECBDBB"/>
<path d="M209 145.68C208.896 145.681 208.794 145.65 208.708 145.591C208.623 145.532 208.558 145.447 208.522 145.349C208.487 145.251 208.483 145.145 208.512 145.044C208.54 144.944 208.599 144.855 208.68 144.79C208.84 144.65 212.74 141.45 214.95 140.61C215.012 140.587 215.077 140.576 215.143 140.579C215.209 140.581 215.274 140.597 215.334 140.624C215.393 140.651 215.447 140.69 215.492 140.738C215.537 140.787 215.572 140.843 215.595 140.905C215.618 140.967 215.629 141.032 215.626 141.098C215.624 141.164 215.608 141.229 215.581 141.289C215.554 141.348 215.515 141.402 215.467 141.447C215.418 141.492 215.362 141.527 215.3 141.55C213.25 142.32 209.36 145.55 209.3 145.55C209.217 145.626 209.112 145.671 209 145.68Z" fill="#475B5B"/>
<path d="M211.59 146.68C211.485 146.68 211.383 146.647 211.298 146.586C211.212 146.524 211.149 146.438 211.116 146.338C211.082 146.239 211.081 146.131 211.113 146.031C211.144 145.931 211.206 145.843 211.29 145.78C213.539 144.081 215.909 142.546 218.38 141.19C218.44 141.158 218.507 141.139 218.575 141.134C218.643 141.129 218.711 141.137 218.776 141.16C218.84 141.182 218.9 141.217 218.95 141.263C219 141.309 219.041 141.365 219.069 141.427C219.097 141.489 219.112 141.556 219.113 141.625C219.114 141.693 219.101 141.761 219.075 141.824C219.049 141.887 219.01 141.944 218.961 141.991C218.912 142.039 218.854 142.076 218.79 142.1C216.385 143.431 214.076 144.928 211.88 146.58C211.796 146.643 211.695 146.678 211.59 146.68Z" fill="#475B5B"/>
<path d="M216 146.65C215.897 146.651 215.797 146.62 215.712 146.562C215.628 146.504 215.563 146.422 215.527 146.326C215.491 146.229 215.485 146.125 215.511 146.025C215.536 145.926 215.592 145.837 215.67 145.77C217.439 144.266 219.375 142.971 221.44 141.91C221.561 141.854 221.699 141.849 221.823 141.895C221.948 141.941 222.049 142.034 222.105 142.155C222.161 142.276 222.166 142.414 222.12 142.538C222.074 142.663 221.981 142.764 221.86 142.82C219.88 143.845 218.022 145.089 216.32 146.53C216.231 146.606 216.117 146.649 216 146.65Z" fill="#475B5B"/>
<path d="M196.51 177.39C196.26 176.97 195.51 173.31 195.84 172.47C197.508 170.147 199.437 168.023 201.59 166.14C202.51 165.64 212.26 169.22 213.67 176.56C213.67 176.56 210.92 182.89 210.34 183.23C209.76 183.57 204.26 183.4 200.92 181.65C199.035 180.734 197.491 179.242 196.51 177.39Z" fill="#878D8B"/>
<path d="M198.51 172.64L191.18 180.81C191.18 180.81 174.35 153.64 161.18 146.48C161.18 146.48 156.85 143.65 155.85 159.15C154.85 174.65 160.35 185.15 160.35 185.15C160.35 185.15 182.35 205.15 189.68 206.32C197.01 207.49 203.51 194.49 208.35 180.65C206 176.3 202.93 173.29 198.51 172.64Z" fill="#F9CFA9"/>
<path d="M174.34 197.43C174.227 197.429 174.118 197.391 174.03 197.32C166.84 191.7 160.03 185.56 160.03 185.5C159.985 185.46 159.948 185.413 159.92 185.36C159.86 185.25 154.37 174.56 155.36 159.1C155.7 153.81 156.47 150.04 157.64 147.89C157.704 147.773 157.811 147.687 157.939 147.649C158.066 147.612 158.203 147.626 158.32 147.69C158.437 147.754 158.523 147.861 158.561 147.989C158.598 148.116 158.584 148.253 158.52 148.37C157.42 150.37 156.69 154.02 156.36 159.16C155.692 167.946 157.207 176.761 160.77 184.82C161.5 185.48 167.9 191.24 174.67 196.53C174.756 196.594 174.82 196.685 174.85 196.788C174.881 196.891 174.878 197.002 174.841 197.103C174.804 197.204 174.735 197.291 174.645 197.35C174.554 197.409 174.448 197.437 174.34 197.43Z" fill="#ECBDBB"/>
<path d="M196.72 189.37C196.626 189.37 196.534 189.344 196.455 189.295C196.375 189.245 196.311 189.174 196.27 189.09C194.873 186.601 193.282 184.227 191.51 181.99C191.441 181.886 191.413 181.759 191.433 181.635C191.452 181.512 191.517 181.4 191.615 181.322C191.713 181.244 191.837 181.206 191.962 181.214C192.087 181.223 192.204 181.279 192.29 181.37C194.108 183.657 195.737 186.089 197.16 188.64C197.199 188.716 197.219 188.801 197.216 188.886C197.213 188.972 197.188 189.055 197.144 189.128C197.1 189.201 197.038 189.262 196.964 189.304C196.889 189.347 196.806 189.369 196.72 189.37Z" fill="#ECBDBB"/>
<path d="M144.26 110.3C153.51 110.12 154.51 119.97 151.59 127.13C148.67 134.29 142.67 131.63 139.17 126.71C135.67 121.79 135.84 110.47 144.26 110.3Z" fill="#ECBDBB"/>
<path d="M147.16 122.37L149.04 122.43C149.581 121.225 150 119.969 150.29 118.68C151.116 119.663 151.994 120.601 152.92 121.49C153.11 121.49 158.86 116.3 159.23 114.74C159.6 113.18 153.09 102 146.09 100.8C139.09 99.6 126.22 108.55 125.59 110.43C124.96 112.31 125.15 117.93 124.59 119.56C124.03 121.19 114.03 123.12 111.84 126.44C109.65 129.76 110.28 134.75 111.72 139.07C113.16 143.39 108.22 145.32 102.47 148.07C96.72 150.82 92.6 163.32 105.85 170.82C119.1 178.32 140.85 168.08 143.73 156.57C145.94 147.74 144.62 144.33 143.29 139.75C141.96 135.17 148.94 139.06 144.86 127.57C142.7 121.48 146.28 119.4 146.28 119.4L147.16 122.37Z" fill="#475B5B"/>
<path d="M147.67 122.85C148.06 122 148.241 121.07 148.2 120.136C148.158 119.202 147.894 118.292 147.43 117.48C147.215 117.034 146.874 116.661 146.449 116.407C146.025 116.152 145.535 116.028 145.04 116.05C142.1 116.3 142.85 122.55 147.26 123.8L147.67 122.85Z" fill="#ECBDBB"/>
<path d="M146.62 122.18H146.53C146.4 122.156 146.285 122.081 146.21 121.972C146.136 121.864 146.107 121.73 146.13 121.6C146.13 121.6 146.64 118.81 145.13 118.23C145.005 118.184 144.904 118.09 144.849 117.969C144.794 117.848 144.789 117.71 144.835 117.585C144.881 117.46 144.975 117.359 145.096 117.304C145.217 117.249 145.355 117.244 145.48 117.29C147.81 118.16 147.18 121.63 147.15 121.78C147.126 121.9 147.059 122.007 146.961 122.081C146.863 122.154 146.742 122.19 146.62 122.18Z" fill="#475B5B"/>
<path d="M145 120.5C144.908 120.5 144.818 120.476 144.739 120.428C144.66 120.38 144.596 120.312 144.554 120.23C144.511 120.149 144.492 120.057 144.499 119.965C144.505 119.873 144.537 119.785 144.59 119.71C145.038 119.139 145.659 118.729 146.36 118.54C146.493 118.507 146.633 118.528 146.75 118.598C146.867 118.668 146.952 118.782 146.985 118.915C147.018 119.048 146.997 119.188 146.927 119.305C146.857 119.422 146.743 119.507 146.61 119.54C146.134 119.67 145.711 119.947 145.4 120.33C145.35 120.387 145.289 120.431 145.219 120.461C145.15 120.49 145.075 120.504 145 120.5Z" fill="#475B5B"/>
<path d="M138.18 110.3C140.78 105.9 137.85 97.64 131.18 97.97C129.665 98.0546 128.182 98.4445 126.822 99.1164C125.461 99.7883 124.25 100.728 123.262 101.88C122.274 103.032 121.529 104.371 121.071 105.818C120.614 107.265 120.453 108.79 120.6 110.3C121.09 116.47 132.18 120.47 138.18 110.3Z" fill="#475B5B"/>
<path d="M128.63 117C128.118 117 127.606 116.959 127.1 116.88C126.967 116.86 126.848 116.788 126.768 116.681C126.689 116.573 126.655 116.438 126.675 116.305C126.695 116.172 126.767 116.053 126.874 115.973C126.982 115.894 127.117 115.86 127.25 115.88C131.25 116.51 135.25 114.32 137.75 110.02C138.225 109.102 138.513 108.1 138.599 107.07C138.685 106.04 138.566 105.004 138.25 104.02C138.213 103.887 138.23 103.745 138.297 103.625C138.365 103.505 138.477 103.417 138.61 103.38C138.743 103.343 138.885 103.36 139.005 103.427C139.125 103.495 139.213 103.607 139.25 103.74C139.61 104.861 139.742 106.043 139.639 107.216C139.536 108.388 139.2 109.529 138.65 110.57C136.17 114.69 132.52 117 128.63 117Z" fill="#878D8B"/>
</svg>
