<svg width="500" height="500" viewBox="0 0 500 500" fill="none" xmlns="http://www.w3.org/2000/svg">
<path d="M364.51 475.64H318.29C318.157 475.64 318.03 475.587 317.936 475.494C317.843 475.4 317.79 475.273 317.79 475.14C317.79 475.007 317.843 474.88 317.936 474.786C318.03 474.693 318.157 474.64 318.29 474.64H364.51C364.643 474.64 364.77 474.693 364.864 474.786C364.957 474.88 365.01 475.007 365.01 475.14C365.01 475.273 364.957 475.4 364.864 475.494C364.77 475.587 364.643 475.64 364.51 475.64Z" fill="#475B5B"/>
<path d="M236.81 475.64H190.59C190.457 475.64 190.33 475.587 190.236 475.494C190.143 475.4 190.09 475.273 190.09 475.14C190.09 475.007 190.143 474.88 190.236 474.786C190.33 474.693 190.457 474.64 190.59 474.64H236.81C236.943 474.64 237.07 474.693 237.164 474.786C237.257 474.88 237.31 475.007 237.31 475.14C237.31 475.273 237.257 475.4 237.164 475.494C237.07 475.587 236.943 475.64 236.81 475.64Z" fill="#475B5B"/>
<path d="M335.45 478.71H263.35C263.217 478.71 263.09 478.657 262.996 478.564C262.903 478.47 262.85 478.343 262.85 478.21C262.85 478.077 262.903 477.95 262.996 477.856C263.09 477.763 263.217 477.71 263.35 477.71H335.45C335.516 477.71 335.581 477.723 335.641 477.748C335.702 477.773 335.757 477.81 335.804 477.856C335.85 477.903 335.887 477.958 335.912 478.019C335.937 478.079 335.95 478.144 335.95 478.21C335.95 478.276 335.937 478.341 335.912 478.401C335.887 478.462 335.85 478.517 335.804 478.564C335.757 478.61 335.702 478.647 335.641 478.672C335.581 478.697 335.516 478.71 335.45 478.71Z" fill="#475B5B"/>
<path d="M187 478.71H168.27C168.137 478.71 168.01 478.657 167.916 478.564C167.823 478.47 167.77 478.343 167.77 478.21C167.77 478.077 167.823 477.95 167.916 477.856C168.01 477.763 168.137 477.71 168.27 477.71H187C187.133 477.71 187.26 477.763 187.354 477.856C187.447 477.95 187.5 478.077 187.5 478.21C187.5 478.343 187.447 478.47 187.354 478.564C187.26 478.657 187.133 478.71 187 478.71Z" fill="#475B5B"/>
<path d="M187.06 378.43C187.06 378.43 174.78 379.19 164.86 371C154.94 362.81 152.28 350.24 152.28 350.24C152.28 350.24 165.54 350.32 175.16 356.76C184.78 363.2 187.06 378.43 187.06 378.43Z" fill="#475B5B" fill-opacity="0.8"/>
<path d="M212 364.11C212 364.11 211.24 349.56 225.64 339.26C240.04 328.96 249.89 335.62 249.89 335.62C249.89 335.62 241.69 360.78 212 364.11Z" fill="#475B5B" fill-opacity="0.8"/>
<path d="M199.11 326.07C199.11 326.07 186.38 313.95 194.11 291.82C201.84 269.69 218.81 262.42 218.81 262.42C218.81 262.42 222.81 280.51 220.02 297.13C216.69 317 199.11 326.07 199.11 326.07Z" fill="#475B5B" fill-opacity="0.8"/>
<path d="M176.83 324.86C176.83 324.41 182.59 306.98 169.71 292.43C156.83 277.88 142.89 275.76 142.89 275.76C142.89 275.76 146.38 295.31 153.95 308.65C161.52 321.99 176.83 324.86 176.83 324.86Z" fill="#475B5B" fill-opacity="0.8"/>
<path d="M195 398.89C194.54 328.07 211.87 277.72 211.87 277.72C201.16 299.85 195.95 330.39 193.42 356.51C188.56 346.03 169.35 305.62 152.56 284.29C152.56 284.29 185.9 340.72 192.74 364.29C192.28 370.03 191.95 375.46 191.74 380.45C182.93 371.66 165.07 360.63 165.07 360.63C174.79 368.38 187.2 380.82 191.53 385.23C190.96 399.88 191.19 409.58 191.19 409.58H194.8L196.45 410.19C196.45 409.58 202.31 364.12 235.04 341.89C235 341.88 208.13 351.66 195 398.89Z" fill="#475B5B"/>
<path d="M219.41 467.47H170.31L164.86 405.94H224.87L219.41 467.47Z" fill="#F9CFA9"/>
<path d="M178.5 428.52C187.44 433.52 193.05 428.82 188.35 416.24C186.53 411.35 188.35 408.1 191.24 405.93H180.62C179.822 407.015 179.354 408.308 179.273 409.652C179.191 410.997 179.499 412.336 180.16 413.51C183.16 418.81 184.55 424.72 176.22 421.39C170.85 419.24 167.64 419.63 166.11 420.13L167.11 431.35C169.58 428.42 173.49 425.72 178.5 428.52Z" fill="#878D8B" fill-opacity="0.8"/>
<path d="M204.41 434.28C205.77 444.28 203.35 449.13 185.47 443.22C176.47 440.22 171.56 445.36 168.87 451.22L170.31 467.46H173.68C174.51 459.63 177.53 444.11 189.56 448.97C205.32 455.34 213.2 454.43 212.14 438.21C211.33 425.87 219.14 426.96 222.9 428.21L223.5 421.4C213.74 418.5 203.26 425.85 204.41 434.28Z" fill="#878D8B" fill-opacity="0.8"/>
<path d="M188.35 457.16C181.9 458.63 183.05 465.04 189.11 463.37C195.17 461.7 193.65 455.95 188.35 457.16Z" fill="#878D8B"/>
<path d="M216.38 437.61C215.1 438.95 215.32 444.28 217.59 442.61C219.86 440.94 219.57 434.28 216.38 437.61Z" fill="#878D8B"/>
<path d="M199.41 412.3C193.89 417.36 200.32 423.97 203.35 418.82C206.38 413.67 203 409 199.41 412.3Z" fill="#878D8B"/>
<path d="M317.29 417.54V437.81H326.27L328.31 418.22L317.29 417.54Z" fill="#ECBDBB"/>
<path d="M315 436.82L328.06 435.91C328.06 435.91 330.51 448.42 330.37 452.1C330.23 455.78 326.97 469.51 326.97 469.51H321.66L321.52 459.58L311.25 467.5C309.442 468.894 307.223 469.65 304.94 469.65H292.61C292.184 469.653 291.765 469.537 291.402 469.315C291.038 469.093 290.743 468.773 290.551 468.393C290.359 468.013 290.277 467.586 290.314 467.162C290.35 466.737 290.505 466.331 290.76 465.99C292.256 464.173 294.112 462.686 296.21 461.62C306.81 455.77 315 436.82 315 436.82Z" fill="#878D8B"/>
<path d="M319.6 224.52C319.6 224.52 314.16 253.09 313.89 258.8C313.62 264.51 315.52 421.49 315.52 421.49L331.57 422.31C331.57 422.31 341.64 363 343.27 349.67C344.9 336.34 359.59 278.93 359.59 278.93C359.59 278.93 365.3 236.49 362.04 221.25C358.78 206.01 325.59 195.41 319.6 224.52Z" fill="#475B5B"/>
<path d="M327.39 417.09H327.32C327.189 417.073 327.07 417.004 326.989 416.899C326.909 416.794 326.873 416.661 326.89 416.53L345.76 274.76C345.78 274.63 345.849 274.513 345.954 274.432C346.058 274.352 346.189 274.316 346.32 274.33C346.451 274.347 346.57 274.416 346.651 274.521C346.731 274.626 346.767 274.759 346.75 274.89L327.89 416.66C327.873 416.78 327.813 416.89 327.721 416.969C327.629 417.048 327.511 417.091 327.39 417.09Z" fill="#878D8B"/>
<path d="M385.99 425.03L387.35 445.02L395.24 445.29L395.64 424.75L385.99 425.03Z" fill="#ECBDBB"/>
<path d="M386.39 442.44L396.86 441.9C396.86 441.9 401.35 455.37 401.49 459.45C401.63 463.53 399.72 479.85 399.72 479.85C399.72 479.85 394.28 484.61 389.79 484.75C385.3 484.89 380 481.75 379.59 481.21C379.18 480.67 385.58 460 386.39 442.44Z" fill="#878D8B"/>
<path d="M349.94 276H349.87C347.94 275.73 341.6 274.7 341.15 272.62C340.74 270.7 338.07 231.9 337.96 230.24C337.952 230.109 337.995 229.98 338.081 229.881C338.167 229.782 338.289 229.72 338.42 229.71C338.55 229.704 338.678 229.749 338.777 229.834C338.875 229.92 338.937 230.04 338.95 230.17C339.95 244.17 341.81 270.93 342.12 272.41C342.33 273.41 346.37 274.51 350 275.01C350.119 275.033 350.226 275.098 350.301 275.194C350.376 275.29 350.413 275.41 350.405 275.531C350.398 275.653 350.347 275.767 350.261 275.853C350.175 275.94 350.061 275.992 349.94 276Z" fill="#878D8B"/>
<path d="M346.26 230C346.26 230 348.16 279.52 348.16 282.78C348.16 286.04 369.92 348.89 371.83 357.6C373.74 366.31 382.71 428.34 382.71 428.34C382.71 428.34 391.71 431.06 399.31 428.34C399.31 428.34 402.85 372.57 401.76 365.22C400.67 357.87 397.13 343.73 397.13 343.73C397.13 343.73 404.48 275.17 404.75 262.66C405.02 250.15 393.05 220.22 393.05 220.22C393.05 220.22 348.17 179.9 346.26 230Z" fill="#475B5B"/>
<path d="M353.27 300.27C353.162 300.27 353.057 300.235 352.97 300.17C352.883 300.105 352.82 300.014 352.79 299.91L347.69 282.91C347.684 282.867 347.684 282.823 347.69 282.78L347.53 277.2L345.76 230C345.757 229.934 345.768 229.869 345.79 229.807C345.813 229.745 345.848 229.689 345.892 229.64C345.937 229.592 345.99 229.553 346.05 229.526C346.11 229.498 346.174 229.483 346.24 229.48C346.307 229.473 346.374 229.48 346.438 229.501C346.501 229.522 346.56 229.556 346.609 229.602C346.658 229.647 346.697 229.703 346.723 229.765C346.749 229.826 346.762 229.893 346.76 229.96L348.51 277.16L348.67 282.68L353.75 299.68C353.788 299.806 353.774 299.942 353.712 300.058C353.65 300.174 353.545 300.261 353.42 300.3L353.27 300.27Z" fill="#878D8B"/>
<path d="M392.4 265.64C391.4 265.56 382.73 264.81 381.75 262.05C380.84 259.5 377.75 241.42 377.65 240.65C377.639 240.585 377.64 240.518 377.655 240.454C377.669 240.389 377.696 240.328 377.734 240.275C377.772 240.221 377.821 240.175 377.877 240.14C377.933 240.105 377.995 240.081 378.06 240.07C378.191 240.05 378.325 240.081 378.433 240.157C378.541 240.234 378.616 240.35 378.64 240.48C378.64 240.67 381.82 259.24 382.7 261.71C383.28 263.34 389.01 264.37 392.49 264.64C392.556 264.646 392.62 264.665 392.678 264.695C392.736 264.726 392.788 264.768 392.83 264.818C392.873 264.869 392.904 264.927 392.924 264.99C392.944 265.053 392.951 265.119 392.945 265.185C392.939 265.251 392.92 265.315 392.89 265.373C392.859 265.431 392.817 265.483 392.767 265.525C392.716 265.568 392.658 265.599 392.595 265.619C392.532 265.639 392.466 265.646 392.4 265.64Z" fill="#878D8B"/>
<path d="M396 424.71C395.867 424.71 395.74 424.657 395.646 424.564C395.553 424.47 395.5 424.343 395.5 424.21V376.69C395.5 370.69 390.5 344.4 390.43 344.14C390.426 344.103 390.426 344.067 390.43 344.03C390.43 343.32 392.06 272.7 392.06 267.68C392.06 262.66 389.19 240.22 389.16 239.99C389.143 239.859 389.179 239.726 389.259 239.621C389.34 239.516 389.459 239.447 389.59 239.43C389.721 239.416 389.852 239.452 389.956 239.532C390.061 239.613 390.13 239.73 390.15 239.86C390.27 240.79 393.06 262.62 393.06 267.67C393.06 272.72 391.48 341.67 391.43 343.99C391.75 345.66 396.51 370.61 396.51 376.68V424.2C396.511 424.267 396.499 424.334 396.474 424.397C396.449 424.459 396.411 424.516 396.364 424.564C396.316 424.611 396.259 424.649 396.197 424.674C396.134 424.699 396.067 424.711 396 424.71Z" fill="#878D8B"/>
<path d="M274.76 40.33H139.54C133.807 40.33 129.16 44.9773 129.16 50.71V230.19C129.16 235.923 133.807 240.57 139.54 240.57H274.76C280.493 240.57 285.14 235.923 285.14 230.19V50.71C285.14 44.9773 280.493 40.33 274.76 40.33Z" fill="#475B5B" fill-opacity="0.2"/>
<path d="M264.19 79.8H236.09C234.665 79.8 233.51 80.9551 233.51 82.38V82.39C233.51 83.8149 234.665 84.97 236.09 84.97H264.19C265.615 84.97 266.77 83.8149 266.77 82.39V82.38C266.77 80.9551 265.615 79.8 264.19 79.8Z" fill="#878D8B"/>
<path d="M264.19 92.24H236.09C234.665 92.24 233.51 93.3951 233.51 94.82V94.83C233.51 96.2549 234.665 97.41 236.09 97.41H264.19C265.615 97.41 266.77 96.2549 266.77 94.83V94.82C266.77 93.3951 265.615 92.24 264.19 92.24Z" fill="#878D8B"/>
<path d="M264.19 104.69H236.09C234.665 104.69 233.51 105.845 233.51 107.27V107.28C233.51 108.705 234.665 109.86 236.09 109.86H264.19C265.615 109.86 266.77 108.705 266.77 107.28V107.27C266.77 105.845 265.615 104.69 264.19 104.69Z" fill="#878D8B"/>
<path d="M152.08 207.93C151.947 207.93 151.82 207.877 151.726 207.784C151.633 207.69 151.58 207.563 151.58 207.43V153.37C151.58 153.237 151.633 153.11 151.726 153.016C151.82 152.923 151.947 152.87 152.08 152.87C152.213 152.87 152.34 152.923 152.434 153.016C152.527 153.11 152.58 153.237 152.58 153.37V207.43C152.58 207.563 152.527 207.69 152.434 207.784C152.34 207.877 152.213 207.93 152.08 207.93Z" fill="#475B5B"/>
<path d="M174.11 207.93C173.977 207.93 173.85 207.877 173.756 207.784C173.663 207.69 173.61 207.563 173.61 207.43V153.37C173.61 153.237 173.663 153.11 173.756 153.016C173.85 152.923 173.977 152.87 174.11 152.87C174.243 152.87 174.37 152.923 174.464 153.016C174.557 153.11 174.61 153.237 174.61 153.37V207.43C174.61 207.563 174.557 207.69 174.464 207.784C174.37 207.877 174.243 207.93 174.11 207.93Z" fill="#475B5B"/>
<path d="M196.14 207.93C196.007 207.93 195.88 207.877 195.786 207.784C195.693 207.69 195.64 207.563 195.64 207.43V153.37C195.64 153.237 195.693 153.11 195.786 153.016C195.88 152.923 196.007 152.87 196.14 152.87C196.273 152.87 196.4 152.923 196.494 153.016C196.587 153.11 196.64 153.237 196.64 153.37V207.43C196.64 207.563 196.587 207.69 196.494 207.784C196.4 207.877 196.273 207.93 196.14 207.93Z" fill="#475B5B"/>
<path d="M218.16 207.93C218.027 207.93 217.9 207.877 217.806 207.784C217.713 207.69 217.66 207.563 217.66 207.43V153.37C217.66 153.237 217.713 153.11 217.806 153.016C217.9 152.923 218.027 152.87 218.16 152.87C218.293 152.87 218.42 152.923 218.514 153.016C218.607 153.11 218.66 153.237 218.66 153.37V207.43C218.66 207.563 218.607 207.69 218.514 207.784C218.42 207.877 218.293 207.93 218.16 207.93Z" fill="#475B5B"/>
<path d="M240.19 207.93C240.057 207.93 239.93 207.877 239.836 207.784C239.743 207.69 239.69 207.563 239.69 207.43V153.37C239.69 153.237 239.743 153.11 239.836 153.016C239.93 152.923 240.057 152.87 240.19 152.87C240.323 152.87 240.45 152.923 240.544 153.016C240.637 153.11 240.69 153.237 240.69 153.37V207.43C240.69 207.563 240.637 207.69 240.544 207.784C240.45 207.877 240.323 207.93 240.19 207.93Z" fill="#475B5B"/>
<path d="M262.22 207.93C262.087 207.93 261.96 207.877 261.866 207.784C261.773 207.69 261.72 207.563 261.72 207.43V153.37C261.72 153.237 261.773 153.11 261.866 153.016C261.96 152.923 262.087 152.87 262.22 152.87C262.353 152.87 262.48 152.923 262.574 153.016C262.667 153.11 262.72 153.237 262.72 153.37V207.43C262.72 207.563 262.667 207.69 262.574 207.784C262.48 207.877 262.353 207.93 262.22 207.93Z" fill="#475B5B"/>
<path d="M262.22 163.87H152.08C151.947 163.87 151.82 163.817 151.726 163.724C151.633 163.63 151.58 163.503 151.58 163.37C151.58 163.237 151.633 163.11 151.726 163.016C151.82 162.923 151.947 162.87 152.08 162.87H262.22C262.353 162.87 262.48 162.923 262.574 163.016C262.667 163.11 262.72 163.237 262.72 163.37C262.72 163.503 262.667 163.63 262.574 163.724C262.48 163.817 262.353 163.87 262.22 163.87Z" fill="#475B5B"/>
<path d="M262.22 185.9H152.08C151.947 185.9 151.82 185.847 151.726 185.754C151.633 185.66 151.58 185.533 151.58 185.4C151.58 185.267 151.633 185.14 151.726 185.046C151.82 184.953 151.947 184.9 152.08 184.9H262.22C262.353 184.9 262.48 184.953 262.574 185.046C262.667 185.14 262.72 185.267 262.72 185.4C262.72 185.533 262.667 185.66 262.574 185.754C262.48 185.847 262.353 185.9 262.22 185.9Z" fill="#475B5B"/>
<path d="M262.22 207.93H152.08C151.947 207.93 151.82 207.877 151.726 207.784C151.633 207.69 151.58 207.563 151.58 207.43C151.58 207.297 151.633 207.17 151.726 207.076C151.82 206.983 151.947 206.93 152.08 206.93H262.22C262.353 206.93 262.48 206.983 262.574 207.076C262.667 207.17 262.72 207.297 262.72 207.43C262.72 207.563 262.667 207.69 262.574 207.784C262.48 207.877 262.353 207.93 262.22 207.93Z" fill="#475B5B"/>
<path d="M152.08 207.93C151.982 207.929 151.887 207.899 151.806 207.844C151.725 207.789 151.662 207.711 151.625 207.62C151.587 207.53 151.578 207.43 151.596 207.334C151.615 207.238 151.661 207.15 151.73 207.08L173.73 185.08C173.822 184.986 173.948 184.932 174.08 184.93H196L240 162.93C240.069 162.897 240.144 162.88 240.22 162.88H262.22C262.353 162.88 262.48 162.933 262.574 163.026C262.667 163.12 262.72 163.247 262.72 163.38C262.72 163.513 262.667 163.64 262.574 163.734C262.48 163.827 262.353 163.88 262.22 163.88H240.31L196.31 185.88C196.241 185.913 196.166 185.93 196.09 185.93H174.31L152.43 207.81C152.333 207.893 152.208 207.936 152.08 207.93Z" fill="#475B5B"/>
<path d="M196.14 188.14C197.653 188.14 198.88 186.913 198.88 185.4C198.88 183.887 197.653 182.66 196.14 182.66C194.627 182.66 193.4 183.887 193.4 185.4C193.4 186.913 194.627 188.14 196.14 188.14Z" fill="#F9CFA9"/>
<path d="M174.11 188.14C175.623 188.14 176.85 186.913 176.85 185.4C176.85 183.887 175.623 182.66 174.11 182.66C172.597 182.66 171.37 183.887 171.37 185.4C171.37 186.913 172.597 188.14 174.11 188.14Z" fill="#F9CFA9"/>
<path d="M152.08 210.32C153.593 210.32 154.82 209.093 154.82 207.58C154.82 206.067 153.593 204.84 152.08 204.84C150.567 204.84 149.34 206.067 149.34 207.58C149.34 209.093 150.567 210.32 152.08 210.32Z" fill="#F9CFA9"/>
<path d="M240.19 166.11C241.703 166.11 242.93 164.883 242.93 163.37C242.93 161.857 241.703 160.63 240.19 160.63C238.677 160.63 237.45 161.857 237.45 163.37C237.45 164.883 238.677 166.11 240.19 166.11Z" fill="#F9CFA9"/>
<path d="M262.22 166.11C263.733 166.11 264.96 164.883 264.96 163.37C264.96 161.857 263.733 160.63 262.22 160.63C260.707 160.63 259.48 161.857 259.48 163.37C259.48 164.883 260.707 166.11 262.22 166.11Z" fill="#F9CFA9"/>
<path d="M184.26 141.9C204.545 141.9 220.99 125.455 220.99 105.17C220.99 84.8846 204.545 68.44 184.26 68.44C163.975 68.44 147.53 84.8846 147.53 105.17C147.53 125.455 163.975 141.9 184.26 141.9Z" fill="#475B5B"/>
<path d="M184.26 131.88C199.012 131.88 210.97 119.922 210.97 105.17C210.97 90.4185 199.012 78.46 184.26 78.46C169.508 78.46 157.55 90.4185 157.55 105.17C157.55 119.922 169.508 131.88 184.26 131.88Z" fill="#ECBDBB"/>
<path d="M184.26 121.86C193.478 121.86 200.95 114.388 200.95 105.17C200.95 95.9524 193.478 88.48 184.26 88.48C175.042 88.48 167.57 95.9524 167.57 105.17C167.57 114.388 175.042 121.86 184.26 121.86Z" fill="#475B5B"/>
<path d="M184.26 111.84C187.944 111.84 190.93 108.854 190.93 105.17C190.93 101.486 187.944 98.5 184.26 98.5C180.576 98.5 177.59 101.486 177.59 105.17C177.59 108.854 180.576 111.84 184.26 111.84Z" fill="#ECBDBB"/>
<path d="M219.37 68.61L220.82 70.06L185.72 105.16C185.625 105.255 185.512 105.331 185.387 105.382C185.263 105.434 185.13 105.46 184.995 105.46C184.86 105.46 184.727 105.434 184.603 105.382C184.478 105.331 184.365 105.255 184.27 105.16C184.175 105.065 184.099 104.952 184.048 104.827C183.996 104.703 183.97 104.57 183.97 104.435C183.97 104.3 183.996 104.167 184.048 104.043C184.099 103.918 184.175 103.805 184.27 103.71L219.37 68.61Z" fill="#E9F3FF"/>
<path d="M220.812 70.0578C221.21 69.6595 221.21 69.0137 220.812 68.6153C220.414 68.217 219.768 68.217 219.37 68.6153C218.971 69.0137 218.971 69.6595 219.37 70.0578C219.768 70.4562 220.414 70.4562 220.812 70.0578Z" fill="#878D8B"/>
<path d="M206.32 81.67V71.74C206.32 71.1069 206.444 70.4798 206.686 69.8947C206.928 69.3096 207.283 68.7779 207.73 68.33L221.11 55V64.93C221.11 65.5631 220.986 66.1902 220.744 66.7753C220.502 67.3604 220.147 67.8921 219.7 68.34L206.32 81.67Z" fill="#475B5B"/>
<path d="M207.76 83.11H217.69C218.323 83.1105 218.95 82.9862 219.535 82.7442C220.12 82.5023 220.652 82.1475 221.1 81.7L234.48 68.32H224.55C223.917 68.3196 223.29 68.4438 222.705 68.6858C222.12 68.9277 221.588 69.2825 221.14 69.73L207.76 83.11Z" fill="#475B5B"/>
<path d="M284.62 145.26L271.92 135.11L267.12 140.18L277.45 153.24L284.62 145.26Z" fill="#ECBDBB"/>
<path d="M271.65 136L271.92 135.09C271.92 135.09 268.02 127.43 267.79 127.34C267.56 127.25 246.93 116.5 246.16 116.23C245.39 115.96 244.26 117.23 244.85 118.32C245.44 119.41 257.05 127.16 257.05 127.16L254.6 138.6C254.6 138.6 262.54 141.55 267.11 140.19C271.68 138.83 271.65 136 271.65 136Z" fill="#ECBDBB"/>
<path d="M252 127.17C252 127.17 255.4 125.72 257.31 125.95C259.22 126.18 261.16 129.26 261.16 130.17C261.053 130.848 260.696 131.462 260.16 131.89C260.305 132.607 260.352 133.34 260.3 134.07C260.173 134.6 259.908 135.087 259.53 135.48C259.651 136.045 259.681 136.626 259.62 137.2C259.48 137.83 257.76 138.92 257.35 139.1C255.4 138.932 253.479 138.522 251.63 137.88C250.77 137.47 250.57 135.44 251.32 134.61C251.32 134.61 250.14 131.98 251.77 130.61C251.79 130.62 250.25 128 252 127.17Z" fill="#ECBDBB"/>
<path d="M258 139.23C257.892 139.23 257.787 139.195 257.701 139.13C257.615 139.065 257.552 138.974 257.522 138.871C257.491 138.767 257.495 138.657 257.533 138.556C257.57 138.455 257.639 138.369 257.73 138.31C258.29 138.012 258.775 137.592 259.15 137.08C259.199 136.575 259.169 136.066 259.06 135.57C259.043 135.49 259.046 135.407 259.069 135.329C259.092 135.25 259.133 135.179 259.19 135.12C259.494 134.8 259.711 134.408 259.82 133.98C259.868 133.311 259.825 132.638 259.69 131.98C259.673 131.892 259.679 131.801 259.709 131.717C259.739 131.632 259.791 131.557 259.86 131.5C260.284 131.167 260.573 130.691 260.67 130.16C260.67 129.48 258.89 126.63 257.26 126.44H257.15C257.084 126.435 257.02 126.418 256.961 126.389C256.902 126.359 256.85 126.318 256.807 126.269C256.72 126.168 256.676 126.038 256.685 125.905C256.694 125.772 256.756 125.649 256.856 125.562C256.957 125.474 257.087 125.431 257.22 125.44H257.38C259.59 125.7 261.67 129.01 261.67 130.15C261.594 130.891 261.236 131.575 260.67 132.06C260.799 132.746 260.829 133.446 260.76 134.14C260.642 134.683 260.391 135.188 260.03 135.61C260.123 136.166 260.123 136.734 260.03 137.29C259.625 138.09 258.978 138.741 258.18 139.15C258.126 139.188 258.065 139.216 258 139.23Z" fill="#475B5B"/>
<path d="M259.21 132.08C259.102 132.08 258.997 132.045 258.91 131.98C258.15 131.368 257.325 130.841 256.45 130.41C255.345 130.561 254.25 130.775 253.17 131.05C253.037 131.081 252.898 131.057 252.783 130.985C252.667 130.913 252.585 130.798 252.555 130.665C252.524 130.532 252.548 130.393 252.62 130.278C252.692 130.162 252.807 130.081 252.94 130.05C254.116 129.744 255.312 129.523 256.52 129.39C257.614 129.803 258.629 130.402 259.52 131.16C259.614 131.22 259.686 131.31 259.723 131.415C259.76 131.521 259.761 131.635 259.725 131.741C259.69 131.847 259.619 131.938 259.526 132C259.433 132.061 259.321 132.089 259.21 132.08Z" fill="#475B5B"/>
<path d="M258.23 135.79C258.15 135.789 258.071 135.768 258 135.73C257.27 135.334 256.473 135.077 255.65 134.97C254.726 135.035 253.809 135.179 252.91 135.4C252.777 135.43 252.638 135.407 252.523 135.335C252.407 135.263 252.325 135.148 252.295 135.015C252.264 134.882 252.288 134.743 252.36 134.628C252.432 134.512 252.547 134.43 252.68 134.4C253.664 134.157 254.668 134.003 255.68 133.94C256.668 134.044 257.625 134.34 258.5 134.81C258.63 134.846 258.74 134.932 258.807 135.049C258.874 135.166 258.891 135.305 258.855 135.435C258.819 135.565 258.733 135.675 258.616 135.742C258.499 135.809 258.36 135.826 258.23 135.79Z" fill="#475B5B"/>
<path d="M260.41 130.63C260.358 128.607 260.472 126.584 260.75 124.58C260.95 123.97 266.23 124 267.75 124.44C269.27 124.88 271.89 135.11 271.89 135.11C271.89 135.11 267.58 135.46 265.89 134.58C264.2 133.7 264.09 129 264.09 129C264.09 129 263.74 132.26 260.41 130.63Z" fill="#ECBDBB"/>
<path d="M266 135.1C265.923 135.098 265.847 135.078 265.78 135.04L266.01 134.6L265.76 135.03C264.57 134.4 264.05 132.39 263.83 130.85C263.659 131.031 263.459 131.182 263.24 131.3C262.758 131.505 262.234 131.592 261.712 131.552C261.19 131.512 260.685 131.346 260.24 131.07C259.61 130.76 260.05 126.46 260.24 125.15C260.257 125.02 260.324 124.902 260.427 124.82C260.529 124.738 260.659 124.699 260.79 124.71C260.921 124.725 261.041 124.791 261.123 124.894C261.206 124.997 261.244 125.129 261.23 125.26C261.07 126.65 260.93 129.45 260.96 130.26C261.244 130.425 261.562 130.523 261.889 130.547C262.216 130.571 262.545 130.521 262.85 130.4C263.093 130.225 263.298 130.003 263.453 129.747C263.608 129.491 263.709 129.206 263.75 128.91C263.767 128.785 263.83 128.672 263.926 128.59C264.022 128.509 264.144 128.466 264.27 128.47C264.396 128.475 264.515 128.527 264.604 128.616C264.693 128.705 264.745 128.824 264.75 128.95C264.8 130.65 265.26 133.56 266.29 134.1C266.411 134.162 266.503 134.269 266.546 134.398C266.589 134.527 266.579 134.668 266.52 134.79C266.479 134.891 266.406 134.977 266.312 135.033C266.218 135.089 266.109 135.112 266 135.1Z" fill="#475B5B"/>
<path d="M336.47 127.53C336.47 127.53 325.47 138.41 310.08 163.99C310.08 163.99 287.91 147.67 287.5 147.8C287.09 147.93 276.07 159.09 276.07 159.09C276.07 159.09 298.65 187.66 309.13 190.24C319.61 192.82 344.77 165.35 353.2 150.24C361.63 135.13 349 116.37 336.47 127.53Z" fill="#878D8B"/>
<path d="M313.86 183C313.731 183 313.607 182.95 313.513 182.861C313.42 182.771 313.365 182.649 313.36 182.52C312.962 176.87 311.867 171.291 310.1 165.91C310.056 165.784 310.064 165.646 310.122 165.526C310.181 165.406 310.284 165.314 310.41 165.27C310.536 165.226 310.674 165.234 310.794 165.292C310.914 165.351 311.006 165.454 311.05 165.58C312.845 171.052 313.957 176.725 314.36 182.47C314.363 182.536 314.352 182.601 314.33 182.663C314.307 182.725 314.272 182.781 314.228 182.83C314.183 182.878 314.13 182.917 314.07 182.944C314.01 182.972 313.946 182.987 313.88 182.99L313.86 183Z" fill="#475B5B"/>
<path d="M281.33 140.36L289.58 146.98C289.58 146.98 274.89 163.21 274.98 162.98C275.07 162.75 267.82 152.98 267.82 152.98L281.33 140.36Z" fill="#475B5B"/>
<path d="M364 111C364 111 350.4 116.26 343 126.05C335.6 135.84 329.94 157.05 329.94 157.05L332.84 167.05L317.24 225.82C326.735 230.508 337.125 233.107 347.71 233.44C365.3 233.98 399.31 229.99 399.31 229.99C399.31 229.99 387.43 178.3 387.25 171.59C387.07 164.88 390 131.11 390 131.11C390 131.11 373.83 113.51 364 111Z" fill="#F9CFA9"/>
<path d="M355.17 228.25C336.63 228.25 324.87 224.25 324.72 224.25C324.658 224.228 324.6 224.195 324.551 224.151C324.501 224.107 324.461 224.054 324.432 223.994C324.404 223.935 324.387 223.87 324.383 223.804C324.379 223.738 324.388 223.672 324.41 223.61C324.432 223.548 324.465 223.49 324.509 223.441C324.553 223.391 324.606 223.351 324.666 223.322C324.725 223.294 324.79 223.277 324.856 223.273C324.922 223.269 324.988 223.278 325.05 223.3C325.25 223.37 345.16 230.08 374.05 225.9C374.183 225.881 374.317 225.916 374.424 225.997C374.531 226.078 374.601 226.197 374.62 226.33C374.639 226.463 374.604 226.597 374.523 226.704C374.442 226.811 374.323 226.881 374.19 226.9C367.89 227.805 361.534 228.256 355.17 228.25Z" fill="#ECBDBB"/>
<path d="M347.12 176.5C346.987 176.508 346.857 176.463 346.758 176.375C346.658 176.287 346.598 176.163 346.59 176.03C346.582 175.897 346.627 175.767 346.715 175.668C346.803 175.568 346.927 175.508 347.06 175.5C353.41 174.77 360.55 173.5 361.61 172.61C360.679 172.198 359.685 171.944 358.67 171.86C350.937 170.778 343.106 170.59 335.33 171.3L334.33 171.37C334.197 171.37 334.07 171.317 333.976 171.224C333.883 171.13 333.83 171.003 333.83 170.87C333.83 170.737 333.883 170.61 333.976 170.516C334.07 170.423 334.197 170.37 334.33 170.37L335.21 170.31C343.062 169.594 350.971 169.785 358.78 170.88C361.58 171.31 362.67 171.8 362.65 172.61C362.65 174.34 354.19 175.68 347.14 176.49H347.08L347.12 176.5Z" fill="#ECBDBB"/>
<path d="M364 111C364 111 352.94 115.58 336.43 127.55C336.43 127.55 326.27 144.37 324.82 151.45C323.37 158.53 327.18 173.4 327.18 173.4C327.18 173.4 311.94 211.13 304.18 250.12C310.496 253.6 317.273 256.165 324.31 257.74C324.31 257.74 331.93 196.62 338.46 168.87C344.99 141.12 351.89 122.4 364 111Z" fill="#878D8B"/>
<path d="M323.75 183C323.694 183.01 323.636 183.01 323.58 183C323.455 182.955 323.354 182.862 323.298 182.742C323.241 182.622 323.235 182.485 323.28 182.36C325.12 177.36 326.41 174.09 326.7 173.36C326.27 171.65 322.98 158.14 324.38 151.36C325.38 146.45 330.53 136.92 333.51 131.67C333.54 131.609 333.582 131.555 333.634 131.511C333.686 131.467 333.746 131.434 333.811 131.413C333.876 131.393 333.944 131.387 334.012 131.394C334.079 131.401 334.145 131.422 334.204 131.455C334.263 131.489 334.315 131.534 334.356 131.588C334.397 131.642 334.427 131.704 334.444 131.77C334.46 131.836 334.463 131.904 334.452 131.971C334.441 132.039 334.417 132.103 334.38 132.16C331.43 137.35 326.38 146.78 325.38 151.56C323.97 158.44 327.69 173.13 327.73 173.28C327.763 173.381 327.763 173.489 327.73 173.59C327.73 173.59 326.35 177.01 324.26 182.7C324.218 182.798 324.146 182.88 324.054 182.934C323.962 182.987 323.856 183.011 323.75 183Z" fill="#475B5B"/>
<path d="M368.71 112.15C368.71 112.15 365.31 152.15 366.22 170.82C367.13 189.49 371.48 258.24 371.48 258.24C371.48 258.24 392.88 256.06 407.03 249.35L392.7 185.16L395.24 131.47C395.24 131.47 381.9 117.58 368.71 112.15Z" fill="#878D8B"/>
<path d="M350.75 125C350.75 125 357.35 107 364.97 107.79C372.59 108.58 373.97 127.38 373.97 127.38C373.97 127.38 366.76 122.48 362.88 122.01C359 121.54 350.75 125 350.75 125Z" fill="#F9CFA9"/>
<path d="M372.94 127.23C372.844 127.23 372.75 127.203 372.67 127.15C370.67 125.87 365.67 122.86 362.8 122.51C360.26 122.2 355.67 123.69 353.15 124.61C353.026 124.651 352.892 124.642 352.775 124.585C352.658 124.528 352.567 124.428 352.523 124.305C352.479 124.183 352.484 124.048 352.538 123.929C352.591 123.811 352.689 123.718 352.81 123.67C355.99 122.51 360.32 121.19 362.92 121.51C365.92 121.88 370.65 124.67 373.21 126.3C373.305 126.357 373.379 126.443 373.42 126.546C373.461 126.649 373.466 126.763 373.435 126.87C373.404 126.976 373.339 127.069 373.249 127.135C373.16 127.2 373.051 127.233 372.94 127.23Z" fill="#ECBDBB"/>
<path d="M278.34 174.19L279.79 171.46H320.6L319.15 174.19H278.34Z" fill="#475B5B"/>
<path d="M342.82 216.9L344.27 214.18L320.6 171.46L319.15 174.19L342.82 216.9Z" fill="#475B5B"/>
<path d="M302.01 216.9L278.34 174.19H319.15L342.82 216.9H302.01Z" fill="#878D8B" fill-opacity="0.95"/>
<path d="M313 189.25C314.55 191.69 313.29 193.66 310.19 193.66C308.544 193.603 306.933 193.177 305.474 192.414C304.015 191.65 302.745 190.569 301.76 189.25C300.21 186.81 301.47 184.84 304.57 184.84C306.216 184.897 307.827 185.323 309.286 186.086C310.745 186.85 312.015 187.931 313 189.25Z" fill="white"/>
<path d="M395.24 131.47C405.15 139.61 417 172.82 417 190C417 207.18 359.05 210.68 359.05 210.68L352.79 195.99L386 180.71C386 180.71 374.85 161.71 374 145.89C373.15 130.07 384.62 122.76 395.24 131.47Z" fill="#878D8B"/>
<path d="M359.05 211.14C358.952 211.14 358.857 211.112 358.775 211.059C358.693 211.005 358.629 210.929 358.59 210.84L352.33 196.15C352.279 196.03 352.277 195.896 352.323 195.774C352.37 195.653 352.462 195.555 352.58 195.5L385.28 180.5C383.56 177.43 374.28 160.26 373.51 145.93C373.12 138.38 375.45 132.29 379.89 129.21C381.543 128.09 383.461 127.427 385.453 127.286C387.444 127.146 389.437 127.533 391.23 128.41C391.352 128.463 391.448 128.562 391.497 128.686C391.545 128.81 391.543 128.948 391.49 129.07C391.437 129.192 391.338 129.288 391.214 129.337C391.09 129.385 390.952 129.383 390.83 129.33C389.193 128.524 387.372 128.164 385.551 128.287C383.73 128.41 381.974 129.011 380.46 130.03C376.31 132.91 374.14 138.68 374.46 145.88C375.26 161.35 386.25 180.29 386.36 180.48C386.396 180.54 386.419 180.607 386.427 180.677C386.435 180.746 386.429 180.817 386.408 180.884C386.387 180.951 386.353 181.013 386.307 181.065C386.26 181.118 386.204 181.161 386.14 181.19L353.39 196.19L359.32 210.11C361.97 209.93 379.02 208.64 393.73 204.88C393.796 204.864 393.864 204.86 393.931 204.87C393.998 204.88 394.062 204.903 394.12 204.938C394.178 204.973 394.229 205.019 394.269 205.073C394.309 205.128 394.339 205.189 394.355 205.255C394.371 205.321 394.375 205.389 394.365 205.456C394.355 205.523 394.332 205.587 394.297 205.645C394.262 205.703 394.216 205.754 394.162 205.794C394.107 205.834 394.046 205.864 393.98 205.88C377.98 209.97 359.22 211.15 358.98 211.16L359.05 211.14Z" fill="#475B5B"/>
<path d="M409.33 187.17C409.231 187.172 409.133 187.144 409.05 187.09C400.62 181.42 388.63 181.67 388.51 181.67C388.378 181.67 388.251 181.619 388.156 181.528C388.061 181.436 388.005 181.312 388 181.18C387.999 181.114 388.01 181.049 388.034 180.988C388.058 180.927 388.094 180.871 388.139 180.823C388.185 180.776 388.239 180.738 388.299 180.712C388.36 180.686 388.424 180.671 388.49 180.67C389 180.67 400.92 180.4 409.62 186.26C409.708 186.321 409.773 186.409 409.807 186.51C409.842 186.611 409.843 186.72 409.81 186.822C409.778 186.924 409.714 187.012 409.627 187.075C409.541 187.137 409.437 187.171 409.33 187.17Z" fill="#475B5B"/>
<path d="M347.71 197.85L339.28 198.71C339.28 198.71 333.28 192.95 332.48 192.5C331.68 192.05 332.3 194.22 332.57 195.22C332.84 196.22 333.93 199.22 333.93 199.22C333.93 199.22 328.22 200.35 327.67 200.35C327.12 200.35 318.51 197.86 317.01 198.49C315.27 199.23 318.28 201.3 318.28 201.3C318.047 201.802 318.021 202.375 318.208 202.896C318.396 203.416 318.781 203.842 319.28 204.08C319.28 204.08 318.8 205.66 321.07 206.52C321.105 207.081 321.317 207.616 321.677 208.048C322.037 208.479 322.525 208.785 323.07 208.92C325.177 209.731 327.39 210.236 329.64 210.42C331.64 210.56 339.71 207.06 339.71 207.06L350.37 207.15L347.71 197.85Z" fill="#ECBDBB"/>
<path d="M346.26 196.63L354.15 194.18C354.15 194.18 360.15 198.94 360.54 212.41L349.93 212.82L346.26 196.63Z" fill="#475B5B"/>
<path d="M326.27 203.46H326.14L319.88 201.76C319.747 201.726 319.634 201.64 319.565 201.522C319.495 201.403 319.476 201.263 319.51 201.13C319.544 200.997 319.63 200.884 319.748 200.815C319.867 200.745 320.007 200.726 320.14 200.76L326.4 202.46C326.533 202.477 326.653 202.546 326.735 202.652C326.816 202.758 326.852 202.892 326.835 203.025C326.818 203.158 326.749 203.278 326.643 203.36C326.537 203.441 326.403 203.477 326.27 203.46Z" fill="#475B5B"/>
<path d="M326.61 205.87H326.49L320.81 204.51C320.744 204.495 320.682 204.467 320.627 204.428C320.573 204.389 320.526 204.339 320.49 204.282C320.454 204.225 320.43 204.162 320.419 204.095C320.408 204.029 320.41 203.961 320.425 203.895C320.44 203.829 320.468 203.767 320.507 203.712C320.546 203.658 320.596 203.611 320.653 203.575C320.71 203.539 320.773 203.515 320.84 203.504C320.906 203.493 320.974 203.495 321.04 203.51L326.72 204.87C326.853 204.885 326.974 204.951 327.057 205.055C327.141 205.159 327.18 205.292 327.165 205.425C327.15 205.558 327.084 205.679 326.98 205.762C326.876 205.846 326.743 205.885 326.61 205.87Z" fill="#475B5B"/>
<path d="M327.39 208.15H327.28L322.48 207C322.414 206.985 322.352 206.957 322.297 206.918C322.243 206.879 322.196 206.829 322.16 206.772C322.124 206.715 322.1 206.652 322.089 206.585C322.078 206.519 322.08 206.451 322.095 206.385C322.11 206.319 322.138 206.257 322.177 206.202C322.216 206.148 322.266 206.101 322.323 206.065C322.38 206.029 322.443 206.005 322.51 205.994C322.576 205.983 322.644 205.985 322.71 206L327.5 207.12C327.637 207.135 327.762 207.203 327.848 207.31C327.934 207.417 327.975 207.553 327.96 207.69C327.945 207.827 327.877 207.952 327.77 208.038C327.663 208.124 327.527 208.165 327.39 208.15Z" fill="#475B5B"/>
<path d="M367.08 116.71C367.08 116.71 365.31 119.43 363.34 119.64C362.762 119.695 362.18 119.605 361.645 119.378C361.111 119.151 360.642 118.794 360.28 118.34L358.9 111.6L358.35 108.9L356.81 101.41L364.56 98.48V98.86L365.15 103.16L367.08 116.71Z" fill="#ECBDBB"/>
<path d="M365.2 103.16C365.39 106 362.44 109.95 358.9 111.6L358.35 108.9L356.81 101.41L364.56 98.48V98.86L365.2 103.16Z" fill="#475B5B"/>
<path d="M360.94 75C360.94 75 357.6 71.52 360.24 65.8C362.88 60.08 374.66 59.04 378.43 68.31C382.2 77.58 371.81 85 360.94 75Z" fill="#475B5B"/>
<path d="M358.31 75.5C358.31 75.5 359.47 70.94 365.66 72.92C371.85 74.9 367.84 80.61 367.84 80.61L358.31 75.5Z" fill="#F9CFA9"/>
<path d="M347.77 78.84C349.708 77.0037 352.068 75.6714 354.641 74.9601C357.215 74.2487 359.924 74.18 362.53 74.76C371.71 76.66 375.32 89.18 375.53 93.94C375.74 98.7 372.47 103.53 364.1 101.83C359.376 100.891 354.703 99.7093 350.1 98.29C350.1 98.29 341.1 100.74 336.77 93.66C332.44 86.58 338.25 78.84 347.77 78.84Z" fill="#475B5B"/>
<path d="M349.95 80.13C342.57 84.74 345.73 102.3 355.8 106.38C365.87 110.46 367.8 98.9 366.95 91.38C366.1 83.86 358.65 74.69 349.95 80.13Z" fill="#ECBDBB"/>
<path d="M345.59 84C345.59 84 352.12 93.52 365.86 90.87L368.44 89.44C368.44 89.44 364.79 76.78 354.84 77.33C352.811 77.3994 350.848 78.0705 349.201 79.2582C347.554 80.4458 346.297 82.0964 345.59 84Z" fill="#475B5B"/>
<path d="M364.57 91.55C364.57 91.55 367.49 86.65 370.83 88.22C374.17 89.79 372.12 97.22 365.18 96.72L364.57 91.55Z" fill="#ECBDBB"/>
<path d="M361.09 90C361.09 90 358.99 87.25 356.9 88.86C356.856 88.683 356.75 88.5276 356.601 88.4214C356.453 88.3151 356.272 88.265 356.09 88.28C355.48 88.38 355.79 90.28 355.79 90.28C357.52 89.8321 359.322 89.7369 361.09 90Z" fill="#475B5B"/>
<path d="M348.37 94C348.37 94 347.95 90.86 349.91 91.37C349.887 91.2329 349.903 91.0919 349.958 90.9641C350.013 90.8363 350.104 90.7272 350.22 90.65C350.87 90.41 351.36 92.16 351.36 92.16C350.192 92.4376 349.144 93.0826 348.37 94Z" fill="#475B5B"/>
<path d="M358.875 95.8386C359.575 95.679 359.982 94.8469 359.784 93.98C359.587 93.113 358.859 92.5396 358.159 92.6991C357.459 92.8587 357.052 93.6908 357.249 94.5577C357.447 95.4247 358.175 95.9981 358.875 95.8386Z" fill="#475B5B"/>
<path d="M358.186 94.1235C358.374 94.0805 358.492 93.8929 358.449 93.7044C358.406 93.516 358.219 93.398 358.03 93.441C357.842 93.4839 357.724 93.6715 357.767 93.86C357.81 94.0485 357.997 94.1664 358.186 94.1235Z" fill="white"/>
<path d="M351.409 97.5361C352.109 97.3766 352.516 96.5444 352.319 95.6775C352.121 94.8105 351.394 94.2371 350.694 94.3967C349.994 94.5562 349.586 95.3883 349.784 96.2553C349.981 97.1222 350.709 97.6957 351.409 97.5361Z" fill="#475B5B"/>
<path d="M350.721 95.821C350.909 95.778 351.027 95.5904 350.984 95.402C350.941 95.2135 350.753 95.0956 350.565 95.1385C350.376 95.1815 350.259 95.3691 350.301 95.5575C350.344 95.746 350.532 95.864 350.721 95.821Z" fill="white"/>
<path d="M354.73 100.71C354.415 100.723 354.101 100.656 353.82 100.514C353.538 100.373 353.297 100.161 353.12 99.9C352.994 99.7378 352.911 99.5462 352.88 99.3433C352.848 99.1404 352.869 98.9327 352.94 98.74C353.09 98.4678 353.292 98.2283 353.536 98.0359C353.78 97.8435 354.06 97.7021 354.36 97.62L353.79 95C353.776 94.9343 353.775 94.8666 353.788 94.8007C353.8 94.7347 353.826 94.6719 353.862 94.6157C353.899 94.5595 353.946 94.5111 354.002 94.4732C354.057 94.4354 354.119 94.4088 354.185 94.395C354.251 94.3812 354.318 94.3805 354.384 94.3929C354.45 94.4053 354.513 94.4305 354.569 94.4672C354.625 94.5039 354.674 94.5513 354.712 94.6067C354.75 94.662 354.776 94.7243 354.79 94.79L355.47 97.86C355.497 97.9872 355.474 98.1199 355.405 98.23C355.336 98.3402 355.226 98.4191 355.1 98.45C354.642 98.5277 354.223 98.7565 353.91 99.1C353.898 99.1426 353.899 99.1875 353.911 99.2298C353.924 99.2722 353.947 99.3103 353.98 99.34C354.48 100.08 355.7 99.48 355.72 99.48C355.837 99.4315 355.967 99.4288 356.086 99.4726C356.204 99.5164 356.301 99.6033 356.358 99.716C356.415 99.8286 356.428 99.9587 356.393 100.08C356.358 100.201 356.278 100.305 356.17 100.37C355.722 100.592 355.23 100.709 354.73 100.71Z" fill="#475B5B"/>
<path d="M356 104H355.68C355.547 103.985 355.426 103.919 355.343 103.815C355.259 103.711 355.22 103.578 355.235 103.445C355.25 103.312 355.316 103.191 355.42 103.108C355.524 103.024 355.657 102.985 355.79 103C355.91 103 358.58 103.25 360.46 100.15C360.529 100.036 360.64 99.954 360.77 99.9221C360.899 99.8902 361.036 99.911 361.15 99.98C361.264 100.049 361.346 100.16 361.378 100.29C361.41 100.419 361.389 100.556 361.32 100.67C360.806 101.645 360.043 102.466 359.108 103.051C358.174 103.636 357.102 103.963 356 104Z" fill="#475B5B"/>
<path d="M102.7 36.09C103.844 36.09 104.976 35.8647 106.033 35.427C107.09 34.9893 108.05 34.3477 108.859 33.5389C109.668 32.7301 110.309 31.7699 110.747 30.7132C111.185 29.6564 111.41 28.5238 111.41 27.38C111.41 28.5238 111.635 29.6564 112.073 30.7132C112.511 31.7699 113.152 32.7301 113.961 33.5389C115.595 35.1723 117.81 36.09 120.12 36.09C117.81 36.09 115.595 37.0077 113.961 38.6411C112.328 40.2745 111.41 42.49 111.41 44.8C111.41 42.49 110.492 40.2745 108.859 38.6411C107.225 37.0077 105.01 36.09 102.7 36.09Z" fill="#878D8B"/>
<path d="M105.4 56.39C107.305 56.39 108.85 54.8454 108.85 52.94C108.85 51.0346 107.305 49.49 105.4 49.49C103.495 49.49 101.95 51.0346 101.95 52.94C101.95 54.8454 103.495 56.39 105.4 56.39Z" fill="#E9F3FF"/>
<path d="M113.11 67.99C114.06 67.99 114.83 67.2199 114.83 66.27C114.83 65.3201 114.06 64.55 113.11 64.55C112.16 64.55 111.39 65.3201 111.39 66.27C111.39 67.2199 112.16 67.99 113.11 67.99Z" fill="#E9F3FF"/>
<path d="M283.44 30.43C285.355 30.43 287.191 29.6693 288.545 28.3153C289.899 26.9613 290.66 25.1249 290.66 23.21C290.66 25.1249 291.421 26.9613 292.775 28.3153C294.129 29.6693 295.965 30.43 297.88 30.43C295.965 30.43 294.129 31.1907 292.775 32.5447C291.421 33.8987 290.66 35.7351 290.66 37.65C290.66 35.7351 289.899 33.8987 288.545 32.5447C287.191 31.1907 285.355 30.43 283.44 30.43Z" fill="#878D8B"/>
<path d="M246.42 23.55C247.773 23.55 248.87 22.4531 248.87 21.1C248.87 19.7469 247.773 18.65 246.42 18.65C245.067 18.65 243.97 19.7469 243.97 21.1C243.97 22.4531 245.067 23.55 246.42 23.55Z" fill="#E9F3FF"/>
<path d="M262.57 32.6C263.625 32.6 264.48 31.7449 264.48 30.69C264.48 29.6351 263.625 28.78 262.57 28.78C261.515 28.78 260.66 29.6351 260.66 30.69C260.66 31.7449 261.515 32.6 262.57 32.6Z" fill="#E9F3FF"/>
<path d="M272.44 21.56C274.743 21.56 276.61 19.693 276.61 17.39C276.61 15.087 274.743 13.22 272.44 13.22C270.137 13.22 268.27 15.087 268.27 17.39C268.27 19.693 270.137 21.56 272.44 21.56Z" fill="#E9F3FF"/>
<path d="M102.54 222.74C104.455 222.74 106.291 221.979 107.645 220.625C108.999 219.271 109.76 217.435 109.76 215.52C109.76 217.435 110.521 219.271 111.875 220.625C113.229 221.979 115.065 222.74 116.98 222.74C115.065 222.74 113.229 223.501 111.875 224.855C110.521 226.209 109.76 228.045 109.76 229.96C109.76 228.045 108.999 226.209 107.645 224.855C106.291 223.501 104.455 222.74 102.54 222.74Z" fill="#878D8B"/>
<path d="M126.79 256.24C129.767 256.24 132.18 253.827 132.18 250.85C132.18 247.873 129.767 245.46 126.79 245.46C123.813 245.46 121.4 247.873 121.4 250.85C121.4 253.827 123.813 256.24 126.79 256.24Z" fill="#E9F3FF"/>
<path d="M107.35 244.69C108.675 244.69 109.75 243.615 109.75 242.29C109.75 240.965 108.675 239.89 107.35 239.89C106.025 239.89 104.95 240.965 104.95 242.29C104.95 243.615 106.025 244.69 107.35 244.69Z" fill="#E9F3FF"/>
<path d="M117.46 203.15C118.134 203.15 118.68 202.604 118.68 201.93C118.68 201.256 118.134 200.71 117.46 200.71C116.786 200.71 116.24 201.256 116.24 201.93C116.24 202.604 116.786 203.15 117.46 203.15Z" fill="#E9F3FF"/>
<path d="M104.54 196.09C106.495 196.09 108.08 194.505 108.08 192.55C108.08 190.595 106.495 189.01 104.54 189.01C102.585 189.01 101 190.595 101 192.55C101 194.505 102.585 196.09 104.54 196.09Z" fill="#E9F3FF"/>
<path d="M271.49 253.56C273.405 253.56 275.241 252.799 276.595 251.445C277.949 250.091 278.71 248.255 278.71 246.34C278.71 247.288 278.897 248.227 279.26 249.103C279.622 249.979 280.154 250.775 280.825 251.445C281.495 252.116 282.291 252.648 283.167 253.01C284.043 253.373 284.982 253.56 285.93 253.56C284.982 253.56 284.043 253.747 283.167 254.11C282.291 254.472 281.495 255.004 280.825 255.675C280.154 256.345 279.622 257.141 279.26 258.017C278.897 258.893 278.71 259.832 278.71 260.78C278.71 258.865 277.949 257.029 276.595 255.675C275.241 254.321 273.405 253.56 271.49 253.56Z" fill="#878D8B"/>
<path d="M289.57 246.34C290.713 246.34 291.64 245.413 291.64 244.27C291.64 243.127 290.713 242.2 289.57 242.2C288.427 242.2 287.5 243.127 287.5 244.27C287.5 245.413 288.427 246.34 289.57 246.34Z" fill="#E9F3FF"/>
<path d="M289.84 266.55C291.436 266.55 292.73 265.256 292.73 263.66C292.73 262.064 291.436 260.77 289.84 260.77C288.244 260.77 286.95 262.064 286.95 263.66C286.95 265.256 288.244 266.55 289.84 266.55Z" fill="#E9F3FF"/>
<path d="M257.83 256.24C258.57 256.24 259.17 255.64 259.17 254.9C259.17 254.16 258.57 253.56 257.83 253.56C257.09 253.56 256.49 254.16 256.49 254.9C256.49 255.64 257.09 256.24 257.83 256.24Z" fill="#E9F3FF"/>
</svg>
