<svg width="500" height="502" viewBox="0 0 500 502" fill="none" xmlns="http://www.w3.org/2000/svg">
<path d="M252.05 383.367L267.69 377.865C265.6 367.233 262.17 349.753 259.48 335.989L258.43 330.607C256.88 322.645 255.72 316.682 255.43 315.306V315.256C255.518 312.868 255.819 310.492 256.33 308.158C260.33 285.196 275.69 215.689 275.69 215.689L228 219.163C228 219.163 217.07 300.487 219.74 317.927C221.74 330.969 242 366.46 252.05 383.367Z" fill="#878D8B"/>
<path d="M255.6 254.082C255.55 254.092 255.5 254.092 255.45 254.082C255.29 254.022 239.38 247.586 234.36 248.751C234.187 248.786 234.019 248.844 233.86 248.922C234.68 249.865 242.29 251.884 249.42 253.339C249.513 253.368 249.592 253.431 249.641 253.515C249.69 253.599 249.706 253.699 249.686 253.794C249.666 253.89 249.612 253.974 249.533 254.031C249.454 254.088 249.357 254.114 249.26 254.102C249.26 254.102 245.26 253.279 241.26 252.275C233.02 250.177 233.01 249.343 233 248.892C233 248.259 233.84 248.058 234.16 247.988C239.42 246.773 255.06 253.088 255.72 253.359C255.789 253.399 255.843 253.459 255.877 253.531C255.911 253.603 255.922 253.684 255.909 253.763C255.896 253.841 255.859 253.914 255.804 253.971C255.749 254.028 255.678 254.067 255.6 254.082V254.082Z" fill="#475B5B"/>
<path d="M257.33 370.105C257.248 370.104 257.168 370.078 257.101 370.029C257.035 369.981 256.985 369.912 256.96 369.833C256.32 367.755 241.21 318.981 241.75 314.132C242.29 309.282 253.29 261.773 253.75 259.755C253.774 259.654 253.837 259.566 253.925 259.512C254.013 259.457 254.119 259.44 254.22 259.464C254.321 259.488 254.408 259.551 254.462 259.639C254.517 259.728 254.534 259.834 254.51 259.936C254.4 260.428 243.05 309.483 242.51 314.222C241.97 318.961 257.51 369.091 257.69 369.603C257.705 369.652 257.711 369.704 257.706 369.756C257.701 369.807 257.687 369.857 257.662 369.903C257.638 369.949 257.605 369.989 257.565 370.022C257.525 370.055 257.479 370.08 257.43 370.094L257.33 370.105Z" fill="#475B5B"/>
<path d="M259.48 335.989C252.74 328.961 241.82 315.166 241.73 313.84C241.46 309.754 245.8 296.039 245.8 296.039C245.8 296.039 251.17 302.164 256.36 308.148C255.849 310.482 255.548 312.858 255.46 315.246V315.306C255.71 316.692 256.86 322.655 258.46 330.607L259.48 335.989Z" fill="#475B5B"/>
<path d="M227.34 243.239C227.25 243.239 227.162 243.208 227.093 243.15C227.023 243.093 226.975 243.013 226.958 242.924C226.94 242.836 226.953 242.743 226.996 242.663C227.038 242.584 227.107 242.521 227.19 242.486V242.486C228.825 241.675 230.262 240.513 231.4 239.083C233.26 236.824 235.4 232.767 234.82 226.282C234.812 226.178 234.845 226.075 234.913 225.996C234.981 225.917 235.077 225.868 235.18 225.86C235.283 225.852 235.386 225.885 235.465 225.953C235.543 226.021 235.592 226.117 235.6 226.221C236.68 239.203 227.6 243.169 227.5 243.209C227.449 243.23 227.395 243.24 227.34 243.239V243.239Z" fill="#475B5B"/>
<path d="M266.19 407.042L272.57 402.845L269.78 391.63L268.32 385.777L257.83 389.311L259.14 392.072L266.19 407.042Z" fill="#ECBDBB"/>
<path d="M269.78 391.63L268.32 385.777L257.83 389.311L259.13 392.072C262.672 392.669 266.299 392.519 269.78 391.63Z" fill="#475B5B"/>
<path d="M284.36 411.489L273.2 399.592C270 403.156 262.5 405.516 262.5 405.516C262.5 405.516 256.5 432.553 255.59 437.473C254.68 442.393 262.59 455.053 262.59 455.053L284.36 411.489Z" fill="#F9CFA9"/>
<path d="M262.63 408.929C262.721 408.929 262.81 408.897 262.88 408.839C264.449 407.787 266.359 407.374 268.22 407.684C268.316 407.685 268.409 407.65 268.481 407.586C268.553 407.522 268.599 407.434 268.61 407.338C268.621 407.242 268.596 407.146 268.541 407.067C268.486 406.988 268.404 406.933 268.31 406.911C266.237 406.565 264.111 407.04 262.38 408.236C262.318 408.288 262.274 408.357 262.253 408.435C262.232 408.513 262.235 408.595 262.263 408.671C262.29 408.747 262.34 408.812 262.406 408.858C262.471 408.905 262.55 408.929 262.63 408.929V408.929Z" fill="#475B5B"/>
<path d="M260.47 419.13C260.561 419.13 260.65 419.098 260.72 419.039C262.359 417.948 264.348 417.518 266.29 417.835C266.386 417.835 266.479 417.8 266.551 417.736C266.623 417.673 266.669 417.584 266.68 417.489C266.691 417.393 266.666 417.296 266.611 417.218C266.556 417.139 266.474 417.083 266.38 417.062C264.227 416.703 262.019 417.196 260.22 418.437C260.158 418.489 260.114 418.558 260.093 418.636C260.072 418.713 260.075 418.796 260.103 418.872C260.13 418.947 260.18 419.013 260.246 419.059C260.311 419.105 260.39 419.13 260.47 419.13V419.13Z" fill="#475B5B"/>
<path d="M258.31 429.33C258.401 429.331 258.49 429.299 258.56 429.24C260.269 428.098 262.344 427.646 264.37 427.975C264.423 427.987 264.479 427.988 264.533 427.978C264.587 427.967 264.637 427.945 264.682 427.914C264.727 427.882 264.765 427.841 264.793 427.794C264.821 427.746 264.839 427.694 264.845 427.639C264.851 427.584 264.846 427.529 264.83 427.476C264.813 427.424 264.786 427.375 264.75 427.334C264.713 427.293 264.669 427.26 264.619 427.237C264.569 427.214 264.515 427.202 264.46 427.202C262.225 426.834 259.935 427.349 258.07 428.638C258.009 428.689 257.965 428.757 257.943 428.834C257.922 428.911 257.925 428.992 257.951 429.068C257.977 429.143 258.025 429.209 258.089 429.255C258.154 429.302 258.231 429.329 258.31 429.33V429.33Z" fill="#475B5B"/>
<path d="M265.53 431.077H265.59C265.692 431.083 265.792 431.048 265.868 430.981C265.945 430.913 265.992 430.818 266 430.716L270.27 404.662C270.287 404.56 270.263 404.454 270.203 404.37C270.143 404.285 270.052 404.228 269.95 404.21C269.848 404.193 269.743 404.217 269.659 404.277C269.574 404.338 269.517 404.429 269.5 404.532L265.23 430.585C265.215 430.638 265.211 430.692 265.219 430.746C265.226 430.8 265.244 430.851 265.272 430.898C265.301 430.944 265.338 430.984 265.382 431.015C265.427 431.046 265.477 431.067 265.53 431.077V431.077Z" fill="#475B5B"/>
<path d="M262.64 455.033L272.94 434.371C262.06 428.457 255.15 434.521 255.15 434.521C255.15 434.521 253 441.148 253.89 445.184C254.78 449.22 262.64 455.033 262.64 455.033Z" fill="#475B5B"/>
<path d="M288.77 414.22L284.84 410.526L262.16 455.997L267.02 458.697L288.77 414.22Z" fill="#475B5B"/>
<path d="M279.187 415.631C280.727 414.119 280.514 411.393 278.711 409.541C276.908 407.689 274.198 407.414 272.658 408.925C271.118 410.437 271.331 413.164 273.133 415.015C274.936 416.867 277.647 417.143 279.187 415.631Z" fill="#475B5B"/>
<path d="M272 386.259L267.7 369.552C263.42 371.671 246.7 377.253 246.7 377.253L255.21 392.695C261.115 391.471 266.785 389.298 272 386.259V386.259Z" fill="#475B5B"/>
<path d="M316.51 369.492L311.98 375.647L303.76 367.554L298.03 361.902L306.65 354.944L308.63 357.876L316.51 369.492Z" fill="#ECBDBB"/>
<path d="M308.63 357.876C307.929 361.492 306.244 364.842 303.76 367.554L298 361.902L306.62 354.944L308.63 357.876Z" fill="#475B5B"/>
<path d="M324.82 422.313L331 374.01L316.55 366.46C314.7 370.888 308.4 375.606 308.4 375.606C308.4 375.606 311.68 403.096 312.4 408.066C313.12 413.036 324.82 422.313 324.82 422.313Z" fill="#F9CFA9"/>
<path d="M309.52 378.829C309.451 378.828 309.384 378.809 309.325 378.774C309.267 378.739 309.218 378.689 309.184 378.629C309.151 378.569 309.134 378.501 309.135 378.432C309.136 378.363 309.155 378.296 309.19 378.237C310.43 376.533 312.279 375.377 314.35 375.014C314.448 374.998 314.549 375.02 314.632 375.076C314.714 375.132 314.773 375.217 314.794 375.315C314.816 375.413 314.8 375.515 314.749 375.601C314.698 375.687 314.616 375.75 314.52 375.777C312.664 376.109 311 377.13 309.86 378.639C309.825 378.697 309.775 378.746 309.715 378.78C309.656 378.813 309.588 378.83 309.52 378.829V378.829Z" fill="#475B5B"/>
<path d="M310.63 389.11C310.674 389.138 310.723 389.156 310.774 389.164C310.825 389.173 310.877 389.171 310.927 389.158C310.977 389.146 311.025 389.124 311.066 389.094C311.108 389.063 311.143 389.024 311.17 388.98C312.355 387.397 314.09 386.322 316.03 385.968C316.126 385.94 316.208 385.877 316.259 385.791C316.31 385.705 316.326 385.603 316.304 385.506C316.283 385.408 316.224 385.322 316.142 385.266C316.059 385.21 315.958 385.188 315.86 385.205C313.71 385.581 311.789 386.78 310.5 388.548C310.469 388.593 310.449 388.643 310.439 388.697C310.428 388.75 310.43 388.805 310.442 388.858C310.454 388.911 310.477 388.96 310.509 389.004C310.542 389.047 310.583 389.084 310.63 389.11V389.11Z" fill="#475B5B"/>
<path d="M311.95 399.451C311.994 399.479 312.043 399.497 312.094 399.505C312.145 399.514 312.197 399.512 312.247 399.5C312.297 399.487 312.345 399.465 312.386 399.435C312.428 399.404 312.463 399.365 312.49 399.321C313.723 397.677 315.532 396.565 317.55 396.209C317.646 396.181 317.728 396.118 317.779 396.032C317.83 395.946 317.846 395.844 317.824 395.746C317.803 395.649 317.744 395.563 317.662 395.507C317.579 395.451 317.478 395.429 317.38 395.445C315.149 395.838 313.156 397.083 311.82 398.919C311.768 399.007 311.753 399.113 311.777 399.212C311.801 399.311 311.863 399.397 311.95 399.451Z" fill="#475B5B"/>
<path d="M319.22 398.427C319.236 398.517 319.283 398.598 319.352 398.657C319.422 398.715 319.509 398.748 319.6 398.749H319.67C319.721 398.74 319.769 398.722 319.812 398.694C319.856 398.667 319.894 398.631 319.923 398.589C319.953 398.547 319.974 398.5 319.986 398.45C319.997 398.4 319.999 398.348 319.99 398.297L315.45 372.293C315.441 372.242 315.423 372.194 315.396 372.15C315.369 372.107 315.333 372.069 315.291 372.039C315.249 372.009 315.202 371.988 315.152 371.976C315.102 371.965 315.051 371.963 315 371.972C314.949 371.981 314.901 371.999 314.858 372.026C314.814 372.054 314.776 372.089 314.747 372.131C314.717 372.173 314.696 372.221 314.684 372.271C314.673 372.321 314.671 372.373 314.68 372.424L319.22 398.427Z" fill="#475B5B"/>
<path d="M324.82 422.313L327.75 399.401C315.54 397.393 311.01 405.425 311.01 405.425C311.01 405.425 311.16 412.383 313.33 415.907C315.5 419.431 324.82 422.313 324.82 422.313Z" fill="#475B5B"/>
<path d="M336.06 375.125L331.13 372.936L324.69 423.377L330.17 424.321L336.06 375.125Z" fill="#475B5B"/>
<path d="M327.468 379.616C328.425 377.679 327.327 375.176 325.016 374.026C322.705 372.876 320.056 373.515 319.1 375.453C318.143 377.39 319.241 379.893 321.552 381.043C323.863 382.193 326.512 381.554 327.468 379.616Z" fill="#475B5B"/>
<path d="M256.88 254.082C256.83 254.092 256.78 254.092 256.73 254.082C256.48 253.972 250.63 251.442 250.63 247.837C250.63 244.484 251.16 225.358 251.16 225.167C251.16 225.063 251.201 224.964 251.274 224.89C251.347 224.817 251.447 224.776 251.55 224.776C251.653 224.776 251.753 224.817 251.826 224.89C251.899 224.964 251.94 225.063 251.94 225.167C251.94 225.358 251.41 244.474 251.41 247.817C251.41 250.367 255.21 252.456 256.56 253.128C256.89 250.468 258.38 238.159 259.16 224.073C259.16 223.969 259.201 223.869 259.274 223.796C259.347 223.722 259.447 223.681 259.55 223.681C259.653 223.681 259.753 223.722 259.826 223.796C259.899 223.869 259.94 223.969 259.94 224.073C259.06 239.966 257.29 253.59 257.27 253.721C257.262 253.819 257.218 253.911 257.146 253.978C257.073 254.045 256.978 254.083 256.88 254.082V254.082Z" fill="#475B5B"/>
<path d="M255.82 253.149C255.82 253.149 241.82 294.543 242.49 302.575C243.16 310.607 289.23 354.854 289.23 354.854L301.32 345.758L277.32 297.405C277.32 297.405 308.25 251 310 241.372C311.75 231.743 301 206.754 301 206.754L259.2 214.254L255.82 253.149Z" fill="#878D8B"/>
<path d="M255.82 253.54C255.75 253.54 255.681 253.522 255.621 253.486C255.56 253.45 255.511 253.399 255.477 253.337C255.443 253.276 255.427 253.206 255.429 253.136C255.431 253.065 255.452 252.997 255.49 252.938C255.94 252.215 266.49 235.127 273.06 232.697C273.92 232.386 274.84 232.135 275.19 232.697C275.42 233.079 275.84 233.801 270.67 238.902C268.21 241.321 265.67 243.611 265.6 243.641C265.522 243.71 265.419 243.745 265.315 243.739C265.211 243.732 265.114 243.684 265.045 243.606C264.976 243.527 264.941 243.424 264.948 243.32C264.954 243.215 265.002 243.118 265.08 243.048C269.62 239.032 274.44 234.173 274.51 233.129C274.102 233.141 273.7 233.237 273.33 233.41C268.44 235.207 260.93 245.99 257.71 250.89C262 247.165 271.95 238.952 280.25 235.94C280.345 235.912 280.447 235.921 280.536 235.965C280.624 236.01 280.693 236.086 280.727 236.18C280.761 236.273 280.759 236.376 280.721 236.467C280.682 236.559 280.61 236.632 280.52 236.673C269.79 240.619 256.22 253.329 256.08 253.45C256.007 253.511 255.915 253.543 255.82 253.54V253.54Z" fill="#475B5B"/>
<path d="M255 320.196C254.945 320.196 254.891 320.184 254.841 320.161C254.791 320.139 254.747 320.106 254.71 320.065C246.43 310.818 242.3 305.106 242.08 302.606C241.38 294.644 254.65 255.317 255.41 253.068L258.78 214.213C258.789 214.11 258.839 214.014 258.919 213.947C258.999 213.88 259.102 213.848 259.205 213.857C259.308 213.866 259.404 213.917 259.471 213.997C259.537 214.077 259.569 214.18 259.56 214.284L256.18 253.179C256.183 253.209 256.183 253.239 256.18 253.269C256.04 253.681 242.18 294.674 242.87 302.535C243.01 304.112 245.28 308.338 255.3 319.533C255.354 319.59 255.39 319.661 255.403 319.738C255.417 319.816 255.406 319.895 255.374 319.967C255.342 320.038 255.289 320.098 255.222 320.139C255.155 320.18 255.078 320.2 255 320.196V320.196Z" fill="#475B5B"/>
<path d="M293.67 342.675C293.6 342.674 293.531 342.654 293.471 342.617C293.411 342.58 293.362 342.527 293.33 342.464L268.63 296.341C268.596 296.281 268.578 296.214 268.578 296.145C268.578 296.076 268.596 296.009 268.63 295.949C277.42 281.271 300.33 242.807 300.75 241.101C301.13 239.585 298.83 224.364 297.19 214.495C297.173 214.392 297.197 214.287 297.257 214.202C297.317 214.117 297.408 214.06 297.51 214.043C297.612 214.025 297.717 214.05 297.801 214.11C297.886 214.17 297.943 214.262 297.96 214.364C298.38 216.894 302.05 239.133 301.51 241.291C300.97 243.45 271.82 292.164 269.42 296.18L294 342.093C294.033 342.152 294.05 342.218 294.049 342.285C294.049 342.353 294.032 342.419 293.998 342.477C293.965 342.536 293.918 342.585 293.86 342.62C293.803 342.654 293.737 342.673 293.67 342.675V342.675Z" fill="#475B5B"/>
<path d="M275.19 297.435H275.09C267.26 295.337 257.21 296.541 257.09 296.551C256.993 296.555 256.898 296.522 256.824 296.459C256.75 296.396 256.703 296.307 256.69 296.211C256.678 296.114 256.701 296.016 256.757 295.936C256.812 295.856 256.895 295.8 256.99 295.778C257.09 295.778 267.29 294.544 275.27 296.682C275.35 296.713 275.419 296.769 275.464 296.843C275.509 296.917 275.528 297.003 275.519 297.089C275.51 297.175 275.473 297.256 275.413 297.318C275.354 297.381 275.275 297.422 275.19 297.435V297.435Z" fill="#475B5B"/>
<path d="M300.89 237.175C300.18 237.095 293.97 236.322 292.89 234.052C291.81 231.783 289.06 217.988 288.95 217.356C288.94 217.305 288.94 217.253 288.951 217.202C288.961 217.152 288.981 217.103 289.01 217.061C289.039 217.018 289.075 216.981 289.118 216.952C289.161 216.924 289.209 216.904 289.26 216.894C289.311 216.884 289.363 216.884 289.413 216.895C289.464 216.905 289.511 216.925 289.554 216.954C289.597 216.983 289.634 217.02 289.662 217.063C289.69 217.106 289.71 217.155 289.72 217.205C289.72 217.346 292.57 231.633 293.6 233.701C294.4 235.297 299.24 236.191 301.04 236.392C301.143 236.412 301.235 236.472 301.294 236.56C301.353 236.647 301.375 236.755 301.355 236.859C301.335 236.963 301.275 237.054 301.188 237.113C301.101 237.173 300.993 237.195 300.89 237.175Z" fill="#475B5B"/>
<path d="M283.81 354.231C283.81 354.231 297.14 343.438 300.43 339.954L310.22 354.141C306.376 358.802 301.807 362.809 296.69 366.008L283.81 354.231Z" fill="#475B5B"/>
<path d="M213.74 177.136C210.705 179.121 207.526 180.876 204.23 182.387C198.76 184.867 192.15 186.875 187.88 184.766C179.48 180.62 165.09 132.839 165.09 132.839L172.69 129.898L198.55 163.491L201.74 160.66L204.29 158.401L213.74 177.136Z" fill="#ECBDBB"/>
<path d="M213.74 177.136C210.705 179.121 207.526 180.876 204.23 182.387C201.494 175.495 200.631 167.997 201.73 160.66L204.28 158.401L213.74 177.136Z" fill="#475B5B"/>
<path d="M190.55 179.003H190.46C190.41 178.991 190.363 178.97 190.321 178.94C190.28 178.91 190.244 178.871 190.217 178.828C190.191 178.784 190.172 178.735 190.164 178.684C190.156 178.633 190.158 178.581 190.17 178.531C191.604 173.343 194.081 168.504 197.45 164.315C197.518 164.238 197.614 164.192 197.716 164.185C197.818 164.179 197.918 164.213 197.995 164.28C198.073 164.347 198.121 164.442 198.129 164.544C198.137 164.646 198.105 164.748 198.04 164.827C194.752 168.92 192.332 173.645 190.93 178.712C190.908 178.796 190.858 178.87 190.79 178.923C190.721 178.976 190.637 179.004 190.55 179.003V179.003Z" fill="#475B5B"/>
<path d="M165.09 132.839C165.09 132.839 159.36 127.438 158.56 125.39C157.76 123.341 155.67 115.621 155.67 115.621L171.22 106.524L176.37 118.392L172.68 129.898L165.09 132.839Z" fill="#ECBDBB"/>
<path d="M156.69 111.384C154.6 112.458 155.18 114.637 155.69 115.621C156.2 116.605 159.47 123.512 161.87 122.357C164.27 121.203 162.45 116.695 160.76 113.924C159.07 111.153 157.49 110.972 156.69 111.384Z" fill="#ECBDBB"/>
<path d="M160.25 108.171C158.12 109.175 159.14 112.368 159.63 113.342C160.12 114.315 163.41 121.233 165.81 120.078C168.21 118.924 166.39 114.416 164.7 111.645C163.01 108.874 161.4 107.639 160.25 108.171Z" fill="#ECBDBB"/>
<path d="M164.25 106.073C162.16 107.147 162.87 109.727 163.58 111.093C164.09 112.097 167.36 118.984 169.76 117.829C172.16 116.675 170.09 112.297 168.65 109.396C167 105.992 165 105.671 164.25 106.073Z" fill="#ECBDBB"/>
<path d="M168.56 104.557C166.47 105.631 167.05 107.81 167.56 108.793C168.07 109.777 171.34 116.685 173.74 115.53C176.14 114.376 174.32 109.868 172.63 107.097C170.94 104.326 169.36 104.145 168.56 104.557Z" fill="#ECBDBB"/>
<path d="M161.28 122.88C160.06 122.88 158.64 121.574 157.05 118.974C157.018 118.931 156.994 118.881 156.982 118.828C156.97 118.775 156.969 118.72 156.979 118.667C156.989 118.613 157.01 118.563 157.04 118.518C157.071 118.473 157.11 118.435 157.156 118.406C157.202 118.378 157.253 118.359 157.307 118.351C157.361 118.344 157.415 118.347 157.467 118.362C157.519 118.377 157.568 118.402 157.61 118.437C157.651 118.471 157.686 118.514 157.71 118.562C159.35 121.223 160.71 122.448 161.71 122.006C162.71 121.564 162.88 120.43 162.43 118.643C161.983 117.051 161.31 115.533 160.43 114.135C160.143 113.631 159.808 113.157 159.43 112.719C159.391 112.682 159.36 112.638 159.339 112.589C159.318 112.539 159.307 112.486 159.308 112.433C159.308 112.379 159.319 112.326 159.34 112.277C159.362 112.228 159.393 112.184 159.432 112.148C159.471 112.111 159.517 112.083 159.568 112.065C159.618 112.047 159.671 112.04 159.725 112.044C159.778 112.047 159.83 112.062 159.877 112.087C159.924 112.111 159.966 112.145 160 112.187C160.434 112.663 160.819 113.181 161.15 113.733C162.07 115.2 162.774 116.793 163.24 118.462C163.92 121.193 163 122.287 162.1 122.719C161.845 122.841 161.562 122.896 161.28 122.88V122.88Z" fill="#475B5B"/>
<path d="M165.23 120.611C164.4 120.611 163.48 120.008 162.48 118.803C162.441 118.757 162.414 118.702 162.4 118.643C161.953 117.051 161.28 115.533 160.4 114.135C160.113 113.631 159.778 113.157 159.4 112.719C159.361 112.682 159.33 112.638 159.309 112.589C159.288 112.539 159.277 112.486 159.278 112.433C159.278 112.379 159.289 112.326 159.31 112.277C159.332 112.228 159.363 112.184 159.402 112.148C159.441 112.111 159.487 112.083 159.538 112.065C159.588 112.047 159.641 112.04 159.695 112.044C159.748 112.047 159.8 112.062 159.847 112.087C159.894 112.111 159.936 112.145 159.97 112.187C160.404 112.663 160.789 113.181 161.12 113.733C162.02 115.175 162.713 116.736 163.18 118.372C163.9 119.225 164.9 120.119 165.68 119.737C166.46 119.356 166.85 118.151 166.4 116.364C165.952 114.776 165.278 113.261 164.4 111.866C164.068 111.316 163.704 110.786 163.31 110.279C163.272 110.24 163.243 110.193 163.225 110.142C163.206 110.09 163.198 110.035 163.202 109.981C163.206 109.926 163.221 109.873 163.247 109.825C163.272 109.777 163.307 109.734 163.35 109.7C163.393 109.667 163.442 109.642 163.495 109.629C163.548 109.615 163.603 109.613 163.656 109.622C163.71 109.631 163.761 109.652 163.807 109.682C163.852 109.712 163.891 109.751 163.92 109.797C164.311 110.325 164.671 110.875 165 111.444C165.915 112.908 166.616 114.498 167.08 116.163C167.77 118.904 166.84 119.998 165.95 120.44C165.725 120.549 165.48 120.608 165.23 120.611V120.611Z" fill="#475B5B"/>
<path d="M169.19 118.331C168.36 118.331 167.43 117.719 166.43 116.504C166.393 116.46 166.365 116.409 166.35 116.354C165.902 114.766 165.228 113.251 164.35 111.856C164.018 111.306 163.654 110.776 163.26 110.269C163.222 110.23 163.193 110.183 163.175 110.132C163.156 110.08 163.148 110.025 163.152 109.971C163.156 109.916 163.171 109.863 163.197 109.815C163.222 109.767 163.257 109.724 163.3 109.69C163.343 109.657 163.392 109.632 163.445 109.619C163.498 109.605 163.553 109.603 163.606 109.612C163.66 109.621 163.711 109.641 163.757 109.672C163.802 109.702 163.841 109.741 163.87 109.787C164.278 110.317 164.655 110.87 165 111.444C165.899 112.883 166.592 114.441 167.06 116.072C167.78 116.926 168.78 117.829 169.56 117.448C169.91 117.277 170.96 116.775 170.12 113.904C169.628 112.409 169.013 110.958 168.28 109.567C168.057 109.117 167.803 108.685 167.52 108.271C167.485 108.23 167.46 108.181 167.445 108.128C167.43 108.076 167.426 108.021 167.433 107.967C167.441 107.913 167.459 107.861 167.488 107.815C167.516 107.769 167.554 107.729 167.599 107.698C167.643 107.667 167.694 107.646 167.747 107.636C167.801 107.626 167.855 107.627 167.908 107.639C167.961 107.652 168.011 107.675 168.054 107.708C168.097 107.741 168.134 107.782 168.16 107.83C168.462 108.275 168.733 108.741 168.97 109.225C169.729 110.664 170.365 112.166 170.87 113.713V113.713C171.55 116.032 171.22 117.528 169.87 118.161C169.658 118.265 169.426 118.323 169.19 118.331V118.331Z" fill="#475B5B"/>
<path d="M173.14 116.062C172.27 116.062 171.28 115.39 170.21 114.054C170.171 114.008 170.144 113.953 170.13 113.894C169.638 112.399 169.023 110.948 168.29 109.556C168.071 109.108 167.82 108.675 167.54 108.261C167.493 108.176 167.479 108.076 167.501 107.981C167.523 107.886 167.579 107.803 167.659 107.748C167.74 107.692 167.837 107.669 167.934 107.682C168.03 107.696 168.118 107.745 168.18 107.82C168.482 108.265 168.753 108.731 168.99 109.215C169.736 110.63 170.365 112.104 170.87 113.623C171.64 114.576 172.71 115.631 173.54 115.189C174.37 114.747 174.71 113.603 174.26 111.815C174.235 111.714 174.251 111.607 174.304 111.518C174.358 111.428 174.444 111.364 174.545 111.339C174.646 111.313 174.752 111.329 174.842 111.383C174.931 111.437 174.995 111.524 175.02 111.625C175.71 114.366 174.78 115.46 173.88 115.892C173.65 116.005 173.396 116.063 173.14 116.062V116.062Z" fill="#475B5B"/>
<path d="M167 113.271C166.895 113.128 166.825 112.961 166.797 112.785C166.77 112.609 166.784 112.429 166.84 112.26C166.896 112.091 166.991 111.937 167.118 111.813C167.245 111.688 167.4 111.596 167.57 111.544C169.95 110.791 175.15 109.195 175.57 109.466C175.99 109.737 177.26 117.187 177.26 117.94C177.26 118.693 172.64 129.898 172.64 129.898C172.64 129.898 164.41 128.07 167.22 120.57C168.22 117.93 171.89 114.014 171.89 114.014C170.618 114.097 169.342 114.097 168.07 114.014C167.641 113.893 167.264 113.632 167 113.271Z" fill="#ECBDBB"/>
<path d="M167.64 127.056C167.577 127.056 167.515 127.04 167.459 127.01C167.403 126.981 167.356 126.938 167.32 126.886C166.11 125.108 165.97 122.94 166.91 120.44C167.972 118.237 169.357 116.206 171.02 114.416C170.02 114.484 169.017 114.467 168.02 114.366C167.498 114.225 167.039 113.91 166.72 113.472C166.576 113.285 166.48 113.066 166.44 112.833C166.399 112.6 166.417 112.361 166.49 112.137C166.563 111.901 166.692 111.686 166.867 111.511C167.041 111.336 167.255 111.206 167.49 111.133C169.02 110.651 171.21 109.978 172.94 109.516C173.036 109.501 173.133 109.521 173.215 109.574C173.296 109.627 173.355 109.708 173.38 109.802C173.405 109.896 173.394 109.996 173.35 110.082C173.305 110.168 173.231 110.235 173.14 110.269C171.42 110.731 169.24 111.394 167.72 111.876C167.606 111.913 167.503 111.977 167.42 112.062C167.336 112.148 167.275 112.253 167.24 112.368C167.206 112.473 167.198 112.584 167.218 112.693C167.237 112.801 167.282 112.903 167.35 112.99C167.565 113.289 167.876 113.505 168.23 113.603C169.462 113.688 170.698 113.688 171.93 113.603C172.008 113.599 172.085 113.619 172.152 113.659C172.219 113.7 172.272 113.76 172.304 113.832C172.336 113.903 172.347 113.983 172.333 114.06C172.32 114.137 172.284 114.209 172.23 114.265C172.23 114.265 168.6 118.161 167.65 120.691C166.81 122.94 166.92 124.867 167.98 126.424C168.027 126.484 168.056 126.556 168.062 126.632C168.069 126.708 168.053 126.785 168.017 126.852C167.981 126.919 167.926 126.974 167.859 127.011C167.792 127.047 167.716 127.063 167.64 127.056V127.056Z" fill="#475B5B"/>
<path d="M243.82 153.361C242.39 161.102 237.62 169.586 228.4 175.941L215.74 183.973C206.41 177.417 201.48 159.345 201.48 159.345C208.14 150.108 226.81 134.586 226.81 134.586C238.69 128.572 246.33 139.857 243.82 153.361Z" fill="#F9CFA9"/>
<path d="M217.74 180.479C217.686 180.48 217.632 180.47 217.582 180.449C217.532 180.429 217.487 180.398 217.45 180.359C209.75 172.096 205.45 158.933 205.37 158.803C205.35 158.753 205.34 158.699 205.341 158.646C205.343 158.592 205.355 158.539 205.378 158.49C205.4 158.441 205.433 158.398 205.473 158.362C205.513 158.326 205.56 158.299 205.611 158.283C205.662 158.266 205.716 158.26 205.769 158.265C205.822 158.271 205.874 158.287 205.921 158.313C205.968 158.339 206.009 158.375 206.041 158.418C206.074 158.46 206.097 158.509 206.11 158.562C206.11 158.692 210.44 171.694 218.02 179.826C218.07 179.882 218.102 179.951 218.114 180.025C218.126 180.098 218.117 180.174 218.088 180.243C218.058 180.311 218.01 180.37 217.948 180.412C217.887 180.454 217.814 180.477 217.74 180.479V180.479Z" fill="#475B5B"/>
<path d="M243.82 153.361C242.39 161.102 237.62 169.586 228.4 175.941L215.74 183.973C215.74 183.973 227.91 158.813 234.49 145.7C237.11 140.48 241.15 145.249 243.82 153.361Z" fill="#475B5B"/>
<path d="M265.86 113.04C251.009 116.168 237.415 123.649 226.8 134.536C226.8 134.536 222.67 185.66 224.8 225.006C224.8 225.006 271.99 230.097 306.64 211.091C306.65 211.131 289.32 133.241 265.86 113.04Z" fill="#F9CFA9"/>
<path d="M242.4 152.608C242.305 152.609 242.212 152.575 242.141 152.512C242.069 152.449 242.022 152.362 242.01 152.267C241.13 145.239 240.59 134.325 240.59 134.195C240.586 134.125 240.601 134.056 240.633 133.994C240.664 133.933 240.712 133.881 240.77 133.843L243.77 131.835C243.83 131.797 243.899 131.776 243.97 131.775L247.79 131.685C247.841 131.682 247.891 131.689 247.939 131.707C247.987 131.724 248.031 131.751 248.068 131.786C248.105 131.82 248.135 131.862 248.156 131.908C248.177 131.955 248.189 132.005 248.19 132.056C248.37 136.363 249.77 149.124 249.79 149.245C249.798 149.329 249.78 149.413 249.736 149.485C249.693 149.558 249.628 149.614 249.55 149.646L242.55 152.498L242.4 152.608ZM241.4 134.395C241.48 135.952 241.97 145.188 242.75 151.654L249.02 149.104C248.81 147.217 247.68 136.785 247.47 132.538L244.14 132.618L241.4 134.395Z" fill="#475B5B"/>
<path d="M228.41 221.693H228.27C228.167 221.693 228.067 221.652 227.994 221.579C227.921 221.505 227.88 221.406 227.88 221.302C227.88 221.198 227.921 221.098 227.994 221.025C228.067 220.951 228.167 220.91 228.27 220.91H228.38C230.85 220.91 275.15 220.699 301.76 207.436C301.806 207.413 301.856 207.4 301.907 207.396C301.959 207.392 302.01 207.399 302.059 207.415C302.107 207.431 302.153 207.457 302.191 207.491C302.23 207.525 302.262 207.566 302.285 207.612C302.308 207.658 302.322 207.709 302.325 207.76C302.329 207.811 302.322 207.863 302.306 207.912C302.29 207.961 302.264 208.006 302.231 208.045C302.197 208.084 302.156 208.116 302.11 208.139C287.78 215.288 268.46 218.591 254.78 220.107C246.022 221.083 237.221 221.613 228.41 221.693Z" fill="#475B5B"/>
<path d="M224.63 175.258C224.579 175.257 224.528 175.246 224.481 175.225C224.435 175.204 224.392 175.174 224.357 175.136C224.322 175.099 224.294 175.055 224.276 175.007C224.257 174.959 224.249 174.908 224.25 174.857C224.85 156.714 225.88 141.865 226.25 136.313C226.254 136.262 226.268 136.212 226.291 136.166C226.314 136.12 226.346 136.079 226.385 136.045C226.424 136.011 226.47 135.986 226.518 135.97C226.567 135.954 226.619 135.948 226.67 135.952C226.721 135.956 226.771 135.97 226.817 135.993C226.863 136.016 226.904 136.048 226.937 136.088C226.97 136.127 226.996 136.172 227.012 136.221C227.028 136.27 227.034 136.322 227.03 136.373C226.62 141.915 225.59 156.755 225.03 174.887C225.025 174.989 224.98 175.085 224.905 175.154C224.831 175.224 224.732 175.261 224.63 175.258V175.258Z" fill="#475B5B"/>
<path d="M240 119.797C237.23 121.615 234.07 126.554 236.4 139.134C236.4 139.134 240.27 138.241 243.73 132.709C247.049 134.385 250.752 135.147 254.46 134.918C254.46 134.918 250.13 113.171 240 119.797Z" fill="#878D8B"/>
<path d="M346.76 214.655L299.53 206.001C299.007 205.909 298.508 205.714 298.062 205.426C297.615 205.139 297.23 204.766 296.928 204.327C296.627 203.889 296.415 203.395 296.305 202.874C296.196 202.353 296.191 201.815 296.29 201.292L304.66 155.269C304.751 154.744 304.946 154.243 305.232 153.794C305.518 153.346 305.89 152.959 306.327 152.656C306.763 152.354 307.255 152.141 307.774 152.031C308.293 151.921 308.829 151.916 309.35 152.016L356.57 160.64C357.093 160.732 357.592 160.927 358.038 161.214C358.485 161.501 358.87 161.875 359.172 162.313C359.473 162.752 359.685 163.246 359.795 163.767C359.904 164.288 359.909 164.826 359.81 165.349L351.44 211.372C351.352 211.898 351.16 212.402 350.877 212.853C350.593 213.304 350.222 213.694 349.786 214C349.35 214.305 348.858 214.521 348.339 214.633C347.819 214.746 347.282 214.753 346.76 214.655Z" fill="#878D8B"/>
<path d="M328.932 155.622L319.113 209.598L327.19 211.079L337.008 157.103L328.932 155.622Z" fill="#878D8B"/>
<path d="M302.81 206.603L275.81 201.663C275.33 201.58 274.87 201.402 274.459 201.139C274.048 200.876 273.692 200.534 273.413 200.133C273.135 199.731 272.938 199.278 272.834 198.8C272.73 198.322 272.722 197.828 272.81 197.346L281.3 150.67C281.383 150.188 281.561 149.727 281.822 149.314C282.084 148.901 282.425 148.544 282.825 148.264C283.224 147.984 283.675 147.786 284.152 147.682C284.628 147.578 285.12 147.57 285.6 147.658L312.6 152.598C313.08 152.682 313.539 152.86 313.951 153.122C314.362 153.385 314.718 153.727 314.997 154.129C315.275 154.53 315.472 154.983 315.576 155.461C315.68 155.94 315.688 156.434 315.6 156.915L307.11 203.591C307.027 204.073 306.849 204.534 306.588 204.947C306.326 205.36 305.985 205.717 305.585 205.997C305.186 206.277 304.734 206.475 304.258 206.579C303.782 206.683 303.29 206.691 302.81 206.603V206.603Z" fill="#878D8B"/>
<path d="M306.1 205.82C306.024 205.82 305.949 205.797 305.886 205.755C305.822 205.712 305.772 205.652 305.742 205.581C305.713 205.511 305.704 205.433 305.718 205.358C305.732 205.282 305.767 205.213 305.82 205.157C306.303 204.662 306.627 204.032 306.75 203.35L315.18 157.006C315.263 156.555 315.257 156.092 315.161 155.644C315.064 155.196 314.881 154.771 314.62 154.395C314.573 154.31 314.559 154.21 314.581 154.115C314.603 154.02 314.659 153.937 314.739 153.881C314.82 153.826 314.917 153.803 315.014 153.816C315.11 153.829 315.198 153.878 315.26 153.953C315.579 154.413 315.805 154.932 315.923 155.48C316.041 156.028 316.051 156.595 315.95 157.146L307.52 203.491C307.369 204.328 306.972 205.101 306.38 205.71C306.343 205.746 306.299 205.774 306.251 205.793C306.203 205.812 306.152 205.821 306.1 205.82Z" fill="#475B5B"/>
<path d="M276.885 188.845L275.773 194.958C275.646 195.656 276.106 196.326 276.802 196.453L286.875 198.3C287.571 198.428 288.237 197.965 288.364 197.267L289.476 191.153C289.603 190.455 289.143 189.786 288.447 189.658L278.374 187.811C277.678 187.684 277.012 188.146 276.885 188.845Z" fill="#F9CFA9"/>
<path d="M277.867 183.439L277.856 183.498C277.729 184.197 278.19 184.866 278.885 184.993L288.958 186.841C289.654 186.968 290.32 186.505 290.447 185.807L290.458 185.748C290.585 185.05 290.124 184.38 289.429 184.253L279.356 182.406C278.66 182.278 277.994 182.741 277.867 183.439Z" fill="#F9CFA9"/>
<path d="M278.768 178.502L278.757 178.561C278.63 179.259 279.091 179.929 279.787 180.056L289.86 181.903C290.555 182.031 291.222 181.568 291.349 180.87L291.36 180.811C291.487 180.113 291.026 179.443 290.331 179.316L280.257 177.469C279.562 177.341 278.895 177.804 278.768 178.502Z" fill="#F9CFA9"/>
<path d="M324.64 194.776L316.38 190.891L325.44 152.608L319.6 151.182L311.17 149.174L313.17 125.219C313.17 125.219 313.95 125.42 315.28 125.801C322.49 127.809 345.84 134.928 348.09 141.865C350.77 149.967 333.31 181.152 324.64 194.776Z" fill="#ECBDBB"/>
<path d="M319.61 151.222L311.18 149.214L313.18 125.259C313.18 125.259 313.96 125.46 315.29 125.841C319.877 133.448 321.42 142.518 319.61 151.222V151.222Z" fill="#475B5B"/>
<path d="M326.51 151.433C326.436 151.433 326.363 151.412 326.3 151.372C326.238 151.332 326.188 151.275 326.156 151.208C326.125 151.14 326.113 151.065 326.123 150.991C326.132 150.918 326.162 150.848 326.21 150.791C329.421 147.198 333.322 144.295 337.68 142.257C337.727 142.235 337.777 142.223 337.828 142.221C337.88 142.218 337.931 142.226 337.979 142.244C338.028 142.262 338.072 142.289 338.11 142.324C338.148 142.359 338.178 142.401 338.2 142.448C338.222 142.494 338.234 142.545 338.236 142.597C338.238 142.648 338.23 142.7 338.213 142.748C338.195 142.797 338.168 142.841 338.133 142.879C338.099 142.917 338.057 142.948 338.01 142.97C333.759 144.957 329.952 147.789 326.82 151.293C326.782 151.338 326.735 151.374 326.681 151.399C326.627 151.423 326.569 151.435 326.51 151.433Z" fill="#475B5B"/>
<path d="M316.38 190.921C316.38 190.921 304.78 195.338 303.98 196.493C303.18 197.647 301.85 203.983 301.98 204.876C302.11 205.77 305.62 206.483 307.05 200.68H315.31L316.38 190.921Z" fill="#ECBDBB"/>
<path d="M316.38 190.921L307 200.69L305.13 206.934C305 207.218 304.935 207.526 304.939 207.838C304.943 208.15 305.016 208.457 305.153 208.737C305.29 209.016 305.487 209.262 305.731 209.456C305.974 209.649 306.257 209.786 306.56 209.856C308.56 210.489 309.33 208.199 309.33 208.199C309.33 208.199 308.52 210.78 310.57 211.312C312.62 211.844 313.39 209.424 313.39 209.424C313.39 209.424 312.92 211.794 314.55 212.236C316.18 212.677 317.11 210.539 317.11 210.539C317.11 210.539 316.52 212.637 318.34 213.039C319.93 213.39 320.51 211.563 320.51 211.563C320.51 211.563 322.71 206.111 323.51 203.531C324.13 201.523 324.62 194.786 324.62 194.786L316.38 190.921Z" fill="#ECBDBB"/>
<path d="M265.86 113.04C265.86 113.04 286.65 112.237 316.24 124.145C316.24 124.145 319.17 143.281 311.84 155.991L286.65 148.502C286.65 148.502 259.46 136.052 265.86 113.04Z" fill="#F9CFA9"/>
<path d="M308.07 152.016H307.93C307.882 151.997 307.838 151.969 307.801 151.933C307.763 151.897 307.734 151.853 307.713 151.806C307.693 151.758 307.682 151.707 307.681 151.655C307.681 151.603 307.691 151.552 307.71 151.504C312.41 139.606 310.55 125.61 310.53 125.47C310.518 125.417 310.518 125.363 310.528 125.31C310.539 125.257 310.56 125.207 310.59 125.163C310.621 125.118 310.66 125.081 310.706 125.053C310.752 125.024 310.803 125.006 310.856 124.998C310.909 124.99 310.963 124.994 311.015 125.008C311.066 125.023 311.115 125.048 311.156 125.081C311.198 125.115 311.232 125.158 311.257 125.205C311.282 125.253 311.296 125.306 311.3 125.359C311.3 125.5 313.21 139.697 308.43 151.785C308.399 151.854 308.348 151.913 308.284 151.954C308.22 151.995 308.146 152.016 308.07 152.016V152.016Z" fill="#475B5B"/>
<path d="M310.43 155.961H310.32L286.54 148.933H286.49C281.934 146.676 277.744 143.741 274.06 140.229C266.27 132.699 263.15 123.924 265.06 114.848C265.066 114.793 265.084 114.741 265.111 114.694C265.139 114.647 265.175 114.607 265.219 114.575C265.263 114.543 265.314 114.521 265.367 114.509C265.42 114.498 265.475 114.498 265.528 114.509C265.581 114.521 265.631 114.543 265.675 114.575C265.719 114.606 265.756 114.647 265.784 114.694C265.811 114.741 265.829 114.793 265.835 114.847C265.841 114.901 265.836 114.956 265.82 115.008C263.97 123.934 266.93 132.227 274.63 139.666C278.241 143.111 282.347 145.991 286.81 148.21L310.56 155.238C310.629 155.279 310.683 155.34 310.716 155.413C310.75 155.485 310.76 155.567 310.746 155.645C310.732 155.724 310.694 155.797 310.637 155.853C310.581 155.91 310.508 155.947 310.43 155.961V155.961Z" fill="#475B5B"/>
<path d="M247.33 122.488C247.33 122.488 246.58 128.09 243.73 132.016C243.73 132.016 239.53 128.733 238.46 126.775L237.96 124.667L236.18 117.207L242.4 104.416L243.11 106.996L247.33 122.488Z" fill="#ECBDBB"/>
<path d="M238 124.647L236.22 117.187L242.4 104.416L243.11 106.996C243.52 112.378 243.43 121.946 238 124.647Z" fill="#475B5B"/>
<path d="M216.41 97.388C216.41 97.388 218.41 111.976 226.67 118.261C234.93 124.546 239.6 119.998 241.87 112.107C244.14 104.215 242 85.601 230.8 85.34C219.6 85.079 215.21 90.0186 216.41 97.388Z" fill="#ECBDBB"/>
<path d="M251.24 93.884C251.188 95.118 251.024 96.3446 250.75 97.5486C248.26 108.964 244.18 111.203 244.18 111.203L241.82 102.107L240.82 101.836L240.36 100.832L238.87 97.5687C238.87 97.5687 233.01 99.1751 230.87 90.5407C230.87 90.5407 228.87 96.3438 225.87 97.3278C224.991 97.5947 224.057 97.62 223.166 97.401C222.274 97.1821 221.457 96.7268 220.8 96.0828C220.8 96.0828 220.53 104.245 213.74 101.304C206.95 98.3619 204.41 88.593 206.14 86.846C207.87 85.099 211.07 87.5187 211.07 87.5187C211.07 87.5187 206 74.2659 211.2 70.3904C216.4 66.515 224.08 72.1776 227.37 75.561C227.37 75.561 226.84 68.0712 230.48 67.8905C234.12 67.7098 233.86 77.9305 239.9 80.7417C245.24 83.1412 251.55 85.5107 251.24 93.884Z" fill="#475B5B"/>
<path d="M251.24 93.884C251.188 95.118 251.024 96.3446 250.75 97.5486C248.26 108.964 244.18 111.203 244.18 111.203L241.82 102.107L240.82 101.836L240.36 100.832C243.93 100.039 248.48 98.1912 251.24 93.884Z" fill="#475B5B"/>
<path d="M240.36 102.147C240.36 102.147 239.47 94.6069 243.74 94.2053C248.01 93.8037 248.94 104.557 241.21 105.581L240.36 102.147Z" fill="#ECBDBB"/>
<path d="M242.13 104.195C242.041 104.195 241.954 104.164 241.885 104.107C241.816 104.05 241.768 103.972 241.75 103.884C241.7 103.623 240.53 97.5687 244.25 96.0426C244.297 96.0229 244.348 96.0126 244.399 96.0125C244.45 96.0124 244.501 96.0224 244.548 96.042C244.596 96.0616 244.639 96.0903 244.675 96.1266C244.711 96.1629 244.74 96.206 244.76 96.2535C244.78 96.3009 244.79 96.3518 244.79 96.4033C244.79 96.4547 244.78 96.5056 244.761 96.5532C244.741 96.6007 244.712 96.6439 244.676 96.6804C244.64 96.7168 244.597 96.7457 244.55 96.7655C241.42 98.0506 242.55 103.673 242.55 103.733C242.56 103.784 242.56 103.836 242.55 103.887C242.54 103.938 242.52 103.986 242.491 104.029C242.462 104.072 242.425 104.109 242.382 104.137C242.339 104.166 242.291 104.186 242.24 104.195H242.16H242.13Z" fill="#475B5B"/>
<path d="M244.8 101.294C244.723 101.294 244.648 101.271 244.584 101.228C244.52 101.185 244.47 101.124 244.44 101.053C244.227 100.632 243.906 100.276 243.511 100.02C243.115 99.7641 242.66 99.6181 242.19 99.5968C242.087 99.5875 241.991 99.5373 241.924 99.4573C241.858 99.3772 241.826 99.2739 241.835 99.1701C241.844 99.0663 241.894 98.9704 241.974 98.9035C242.054 98.8367 242.157 98.8044 242.26 98.8137C242.871 98.8483 243.463 99.0461 243.972 99.3867C244.482 99.7274 244.892 100.198 245.16 100.751C245.185 100.811 245.194 100.876 245.188 100.94C245.182 101.004 245.16 101.066 245.124 101.119C245.089 101.173 245.041 101.217 244.984 101.247C244.927 101.278 244.864 101.294 244.8 101.294Z" fill="#475B5B"/>
<path d="M227.78 112.277C227.444 112.312 227.104 112.278 226.781 112.178C226.458 112.078 226.158 111.914 225.9 111.695C225.749 111.505 225.656 111.275 225.631 111.033C225.607 110.791 225.651 110.547 225.76 110.33C226.196 108.859 226.258 107.302 225.94 105.802C225.916 105.7 225.933 105.594 225.988 105.505C226.042 105.417 226.129 105.354 226.23 105.33C226.331 105.306 226.437 105.323 226.525 105.377C226.613 105.432 226.676 105.52 226.7 105.621C227.065 107.284 226.992 109.014 226.49 110.641C226.433 110.725 226.403 110.825 226.403 110.927C226.403 111.029 226.433 111.129 226.49 111.213C226.87 111.655 228.49 111.544 229.49 111.324C229.588 111.307 229.689 111.329 229.772 111.385C229.854 111.441 229.913 111.527 229.934 111.624C229.956 111.722 229.94 111.824 229.889 111.91C229.838 111.996 229.756 112.059 229.66 112.087C229.041 112.212 228.411 112.276 227.78 112.277Z" fill="#475B5B"/>
<path d="M228 101.575C228 101.575 227.16 99.4763 227.47 98.8538C227.78 98.2313 228.31 99.1651 228.31 99.1651C228.31 99.1651 231.91 96.4041 234.31 100.169C234.4 100.189 231.56 98.8538 228 101.575Z" fill="#475B5B"/>
<path d="M229.78 105.49C229.729 105.488 229.679 105.475 229.632 105.453C229.586 105.431 229.544 105.4 229.51 105.362C229.476 105.323 229.449 105.279 229.432 105.23C229.415 105.182 229.407 105.13 229.41 105.079C229.44 104.532 229.588 103.999 229.846 103.517C230.103 103.034 230.463 102.615 230.9 102.288C231.84 101.705 233.11 101.765 234.67 102.458C234.72 102.477 234.765 102.506 234.803 102.544C234.84 102.581 234.87 102.625 234.891 102.675C234.911 102.724 234.921 102.777 234.92 102.83C234.919 102.883 234.907 102.936 234.885 102.984C234.864 103.033 234.832 103.077 234.793 103.113C234.754 103.149 234.708 103.176 234.658 103.194C234.608 103.211 234.554 103.218 234.502 103.214C234.449 103.21 234.397 103.196 234.35 103.171C233.04 102.589 232.02 102.508 231.35 102.95C231.024 103.212 230.756 103.539 230.563 103.911C230.37 104.283 230.257 104.691 230.23 105.109C230.229 105.165 230.216 105.22 230.193 105.271C230.169 105.321 230.134 105.366 230.092 105.403C230.049 105.439 229.999 105.465 229.945 105.48C229.892 105.496 229.835 105.499 229.78 105.49V105.49Z" fill="#475B5B"/>
<path d="M223.66 103.462C223.324 102.584 222.836 101.772 222.22 101.063C221.66 100.751 221.97 101.775 221.97 101.775C221.97 101.775 218.33 101.625 219.44 105.912C219.44 105.912 220.09 103.302 223.66 103.462Z" fill="#475B5B"/>
<path d="M221.06 108.432H221C220.901 108.404 220.816 108.337 220.766 108.247C220.715 108.157 220.702 108.05 220.73 107.95C221.09 106.625 221.73 105.862 222.49 105.661C223.87 105.34 225.25 106.876 225.31 106.946C225.373 107.024 225.403 107.123 225.395 107.224C225.387 107.324 225.341 107.417 225.267 107.484C225.193 107.551 225.095 107.586 224.995 107.584C224.895 107.581 224.8 107.539 224.73 107.468V107.468C224.42 107.117 223.44 106.243 222.67 106.464C222.348 106.634 222.071 106.88 221.864 107.181C221.657 107.482 221.525 107.828 221.48 108.191C221.447 108.273 221.388 108.341 221.312 108.385C221.235 108.429 221.147 108.445 221.06 108.432V108.432Z" fill="#475B5B"/>
<path d="M234.51 116.333C233.917 116.712 233.235 116.927 232.533 116.957C231.831 116.987 231.133 116.831 230.51 116.504C229.98 116.254 229.496 115.914 229.08 115.5C230.711 113.408 232.811 111.732 235.21 110.611C235.43 111.014 235.611 111.438 235.75 111.876C236.2 113.161 236.43 115.189 234.51 116.333Z" fill="#475B5B"/>
<path d="M235.78 111.846C233.593 112.812 231.761 114.441 230.54 116.504C230.01 116.254 229.526 115.914 229.11 115.5C230.741 113.408 232.841 111.732 235.24 110.611C235.459 111.004 235.639 111.418 235.78 111.846V111.846Z" fill="white"/>
<path d="M291 101.615L289.2 105.049L269.4 94.5567L271.2 91.123C271.2 91.123 278.2 92.8298 283.86 85.1693C285.111 83.4337 286.143 81.5484 286.93 79.557L288.76 81.816L291.65 82.0569C290.981 83.0684 290.376 84.1213 289.84 85.2095C284.62 95.8318 291 101.615 291 101.615Z" fill="#878D8B"/>
<path d="M289.83 85.2095H283.83C285.081 83.4739 286.113 81.5886 286.9 79.5971L288.73 81.8561L291.62 82.0971C290.959 83.0961 290.361 84.1356 289.83 85.2095V85.2095Z" fill="#475B5B"/>
<path d="M289.77 102.257C289.711 102.271 289.649 102.271 289.59 102.257L271.52 92.6792C271.436 92.6275 271.374 92.5455 271.347 92.4498C271.321 92.3541 271.331 92.2519 271.377 92.1638C271.423 92.0757 271.5 92.0084 271.594 91.9755C271.687 91.9426 271.789 91.9465 271.88 91.9865L290 101.514C290.088 101.553 290.158 101.623 290.198 101.711C290.237 101.798 290.243 101.897 290.215 101.989C290.187 102.081 290.126 102.159 290.043 102.208C289.961 102.258 289.864 102.275 289.77 102.257V102.257Z" fill="#ECBDBB"/>
<path d="M282.9 70.9828C276.59 67.6395 272.69 63.4126 271.32 58.4127C269.61 52.198 272.4 46.6157 273.68 44.5073C274.067 43.7932 274.713 43.256 275.484 43.0074C276.255 42.7588 277.091 42.8177 277.82 43.172L290.46 49.8687L288.59 53.4228L276.76 47.188C275.68 49.196 274 53.1317 275.17 57.3786C276.24 61.2641 279.47 64.6576 284.76 67.4186L282.9 70.9828Z" fill="#878D8B"/>
<path d="M317.84 83.071C314.257 84.2114 310.408 84.1868 306.84 83.0007C304.818 82.384 302.861 81.5667 301 80.561L302.87 77.0068C305.245 78.3281 307.824 79.241 310.5 79.7076C312.532 80.0581 314.619 79.9064 316.58 79.2658C320.73 77.8401 323.06 74.2458 324.06 72.2378L312.2 65.9327L314.07 62.3785L326.7 69.0752C327.413 69.4777 327.942 70.1427 328.175 70.9296C328.408 71.7165 328.328 72.5637 327.95 73.292C326.93 75.5209 323.92 80.9826 317.84 83.071Z" fill="#878D8B"/>
<path d="M302.84 77.0068C305.215 78.3281 307.794 79.241 310.47 79.7076C309.341 80.8966 308.117 81.9912 306.81 82.9806C304.799 82.3684 302.852 81.5579 301 80.561L302.84 77.0068Z" fill="#475B5B"/>
<path d="M317.38 68.6736L312.2 65.9327L314.07 62.3785L318.61 64.7881C318.285 66.109 317.874 67.4069 317.38 68.6736V68.6736Z" fill="#475B5B"/>
<path d="M288.76 81.8059C288.76 81.8059 267.76 73.6836 290.67 43.7744L319 58.7742C307.32 94.6672 288.76 81.8059 288.76 81.8059Z" fill="#878D8B"/>
<path d="M285.62 51.5152C285.551 51.5144 285.484 51.4954 285.425 51.4602C285.367 51.4251 285.318 51.3749 285.284 51.3148C285.251 51.2548 285.234 51.1869 285.235 51.1181C285.236 51.0493 285.255 50.982 285.29 50.9229C285.8 50.0795 286.34 49.2161 286.92 48.3526C286.947 48.3075 286.983 48.2683 287.026 48.2375C287.068 48.2067 287.117 48.1848 287.168 48.1732C287.219 48.1617 287.272 48.1606 287.324 48.1701C287.376 48.1797 287.425 48.1996 287.469 48.2287C287.513 48.2578 287.55 48.2955 287.579 48.3395C287.608 48.3835 287.628 48.433 287.637 48.4849C287.647 48.5368 287.646 48.5901 287.634 48.6415C287.623 48.693 287.601 48.7416 287.57 48.7844C287 49.6378 286.46 50.4912 285.96 51.3245C285.925 51.3834 285.875 51.432 285.815 51.4655C285.756 51.499 285.688 51.5161 285.62 51.5152V51.5152Z" fill="#ECBDBB"/>
<path d="M279.95 68.6133C279.848 68.6134 279.751 68.5735 279.678 68.5022C279.605 68.431 279.563 68.3339 279.56 68.2318C279.545 67.1437 279.616 66.056 279.77 64.9789C279.774 64.9251 279.788 64.8727 279.813 64.8248C279.838 64.777 279.872 64.7348 279.914 64.7009C279.955 64.6669 280.004 64.642 280.055 64.6277C280.107 64.6133 280.161 64.6099 280.214 64.6175C280.267 64.6251 280.318 64.6437 280.364 64.672C280.41 64.7003 280.449 64.7378 280.48 64.7821C280.51 64.8263 280.531 64.8765 280.542 64.9294C280.552 64.9822 280.552 65.0367 280.54 65.0893C280.393 66.1233 280.326 67.1673 280.34 68.2118C280.341 68.2632 280.333 68.3144 280.314 68.3624C280.296 68.4104 280.268 68.4543 280.233 68.4916C280.198 68.5289 280.155 68.5588 280.109 68.5797C280.062 68.6006 280.011 68.612 279.96 68.6133V68.6133H279.95Z" fill="#ECBDBB"/>
<path d="M298.34 76.9365C298.277 76.9362 298.215 76.9205 298.159 76.8908C298.103 76.861 298.056 76.8182 298.02 76.7658L294.28 71.284H287.67C287.597 71.2845 287.525 71.2642 287.462 71.2256C287.4 71.1869 287.35 71.1313 287.317 71.0653C287.285 70.9993 287.272 70.9255 287.279 70.8523C287.287 70.7791 287.315 70.7095 287.36 70.6515L291.36 65.3905L289.36 59.0754C289.337 59.0059 289.334 58.9313 289.351 58.8602C289.369 58.7891 289.405 58.7243 289.457 58.673C289.509 58.6218 289.575 58.5863 289.646 58.5704C289.717 58.5546 289.791 58.5591 289.86 58.5834L296.09 60.8022L301.44 56.9067C301.499 56.8632 301.569 56.8374 301.643 56.8322C301.716 56.8269 301.789 56.8425 301.854 56.8771C301.918 56.9117 301.972 56.9639 302.009 57.0277C302.045 57.0916 302.063 57.1645 302.06 57.238L301.88 63.8745L307.22 67.78C307.279 67.8231 307.325 67.8819 307.352 67.9497C307.38 68.0176 307.388 68.0918 307.375 68.164C307.363 68.2361 307.33 68.3033 307.282 68.3579C307.233 68.4125 307.17 68.4523 307.1 68.4728L300.76 70.3503L298.71 76.6554C298.688 76.7265 298.646 76.7897 298.589 76.8377C298.533 76.8857 298.464 76.9165 298.39 76.9265H298.33L298.34 76.9365ZM288.47 70.5009H294.47C294.533 70.5012 294.595 70.5169 294.651 70.5466C294.707 70.5764 294.754 70.6192 294.79 70.6716L298.2 75.6916L300.07 69.9487C300.09 69.8889 300.124 69.8349 300.169 69.7912C300.215 69.7475 300.27 69.7154 300.33 69.6977L306.11 67.9909L301.24 64.4267C301.188 64.3889 301.147 64.3389 301.119 64.2811C301.091 64.2233 301.078 64.1595 301.08 64.0954L301.24 58.0714L296.36 61.6155C296.309 61.6526 296.249 61.6765 296.186 61.6853C296.123 61.694 296.06 61.6873 296 61.6657L290.33 59.6577L292.18 65.4106C292.2 65.4712 292.205 65.5358 292.195 65.5988C292.184 65.6618 292.159 65.7213 292.12 65.772L288.47 70.5009Z" fill="#ECBDBB"/>
<path d="M312.45 59.1155C312.391 59.1296 312.329 59.1296 312.27 59.1155L290.68 47.6699C290.596 47.6182 290.534 47.5362 290.507 47.4405C290.481 47.3448 290.492 47.2426 290.537 47.1545C290.583 47.0664 290.66 46.9991 290.754 46.9662C290.847 46.9333 290.949 46.9372 291.04 46.9772L312.63 58.4228C312.689 58.47 312.733 58.5334 312.757 58.6053C312.781 58.6772 312.784 58.7546 312.764 58.8279C312.745 58.9013 312.706 58.9675 312.65 59.0186C312.594 59.0696 312.525 59.1033 312.45 59.1155V59.1155Z" fill="#ECBDBB"/>
<path d="M187.14 73.8542L159.74 66.9367L150.68 74.0048L166.16 99.4462L191.78 84.3862L187.14 73.8542Z" fill="#878D8B"/>
<path d="M171.34 79.6172H171.24L152.55 74.8984C152.5 74.8859 152.453 74.8636 152.412 74.8329C152.37 74.8021 152.336 74.7635 152.309 74.7192C152.283 74.6749 152.265 74.6258 152.258 74.5748C152.25 74.5237 152.253 74.4716 152.265 74.4215C152.277 74.3714 152.3 74.3243 152.33 74.2828C152.361 74.2413 152.399 74.2062 152.443 74.1797C152.488 74.1531 152.536 74.1355 152.587 74.1279C152.638 74.1203 152.69 74.1228 152.74 74.1354L171.43 78.8542C171.516 78.882 171.59 78.939 171.638 79.0154C171.687 79.0917 171.708 79.1828 171.697 79.2728C171.687 79.3629 171.645 79.4465 171.58 79.5093C171.515 79.5721 171.43 79.6103 171.34 79.6172V79.6172Z" fill="#ECBDBB"/>
<path d="M166 97.8599C165.902 97.8602 165.807 97.8231 165.734 97.7561C165.662 97.689 165.618 97.597 165.61 97.4984L164 77.4988C163.996 77.4473 164.002 77.3956 164.018 77.3466C164.034 77.2976 164.06 77.2522 164.093 77.2131C164.126 77.1739 164.167 77.1417 164.213 77.1184C164.259 77.0951 164.309 77.081 164.36 77.0771C164.411 77.0731 164.463 77.0793 164.512 77.0954C164.56 77.1114 164.606 77.1369 164.645 77.1705C164.684 77.204 164.716 77.245 164.739 77.291C164.762 77.337 164.776 77.3871 164.78 77.4385L166.39 97.388C166.394 97.4395 166.388 97.4912 166.372 97.5403C166.356 97.5894 166.331 97.6348 166.297 97.674C166.264 97.7132 166.223 97.7454 166.177 97.7687C166.131 97.7919 166.081 97.8059 166.03 97.8097L166 97.8599Z" fill="#ECBDBB"/>
<path d="M167.43 94.7575H167.33C167.231 94.7315 167.146 94.6674 167.094 94.5791C167.041 94.4909 167.026 94.3855 167.05 94.2856L172.51 72.4687C172.522 72.4186 172.545 72.3715 172.575 72.33C172.606 72.2885 172.644 72.2535 172.688 72.2269C172.733 72.2003 172.781 72.1827 172.832 72.1751C172.883 72.1675 172.935 72.17 172.985 72.1826C173.035 72.1951 173.082 72.2174 173.123 72.2481C173.165 72.2789 173.199 72.3175 173.226 72.3618C173.252 72.406 173.27 72.4551 173.277 72.5062C173.285 72.5573 173.282 72.6094 173.27 72.6595L167.81 94.4764C167.786 94.5585 167.736 94.6305 167.667 94.6812C167.599 94.732 167.515 94.7588 167.43 94.7575Z" fill="#ECBDBB"/>
<path d="M189.51 84.1954H189.41L171 79.5469C170.95 79.5344 170.903 79.5121 170.862 79.4814C170.82 79.4506 170.786 79.412 170.759 79.3677C170.733 79.3235 170.715 79.2744 170.708 79.2233C170.7 79.1722 170.703 79.1201 170.715 79.07C170.727 79.0199 170.75 78.9728 170.78 78.9313C170.811 78.8898 170.849 78.8548 170.893 78.8282C170.938 78.8016 170.986 78.784 171.037 78.7764C171.088 78.7688 171.14 78.7714 171.19 78.7839L189.57 83.4224C189.662 83.4428 189.743 83.4958 189.799 83.5716C189.855 83.6474 189.882 83.741 189.874 83.8351C189.867 83.9291 189.826 84.0174 189.759 84.0836C189.692 84.1498 189.604 84.1895 189.51 84.1954V84.1954Z" fill="#ECBDBB"/>
<path d="M164.38 77.8502H164.28C164.223 77.8355 164.17 77.808 164.125 77.7697C164.08 77.7315 164.044 77.6834 164.02 77.6293L159.85 68.1917C159.814 68.0983 159.815 67.9947 159.853 67.9021C159.891 67.8096 159.963 67.7351 160.054 67.694C160.145 67.6529 160.248 67.6483 160.342 67.6811C160.436 67.7139 160.514 67.7816 160.56 67.8704L164.56 76.8562L172.09 70.9728C172.131 70.9411 172.177 70.9178 172.227 70.9042C172.277 70.8906 172.328 70.887 172.38 70.8935C172.431 70.9001 172.48 70.9166 172.525 70.9423C172.569 70.9679 172.608 71.0022 172.64 71.043C172.672 71.0839 172.695 71.1306 172.708 71.1805C172.722 71.2304 172.725 71.2824 172.719 71.3337C172.712 71.385 172.696 71.4345 172.67 71.4793C172.645 71.5242 172.611 71.5636 172.57 71.5952L164.64 77.7799C164.564 77.8335 164.472 77.8585 164.38 77.8502V77.8502Z" fill="#ECBDBB"/>
<path d="M178.08 81.324H178C177.943 81.3093 177.89 81.2818 177.845 81.2436C177.8 81.2053 177.764 81.1573 177.74 81.1031L173.63 71.796C173.606 71.7488 173.591 71.697 173.587 71.6439C173.583 71.5908 173.59 71.5374 173.608 71.4871C173.625 71.4368 173.652 71.3905 173.688 71.3512C173.724 71.3119 173.767 71.2804 173.816 71.2585C173.864 71.2366 173.916 71.2248 173.97 71.2239C174.023 71.2231 174.075 71.233 174.124 71.2533C174.173 71.2735 174.218 71.3036 174.255 71.3417C174.292 71.3798 174.321 71.4251 174.34 71.4748L178.24 80.32L185.9 74.296C185.941 74.2644 185.987 74.2411 186.037 74.2275C186.087 74.2139 186.138 74.2102 186.19 74.2168C186.241 74.2233 186.29 74.2399 186.335 74.2655C186.379 74.2912 186.418 74.3254 186.45 74.3663C186.482 74.4072 186.505 74.4539 186.518 74.5037C186.532 74.5536 186.535 74.6057 186.529 74.6569C186.522 74.7082 186.506 74.7577 186.48 74.8026C186.455 74.8475 186.421 74.8868 186.38 74.9185L178.33 81.2035C178.264 81.2731 178.175 81.3159 178.08 81.324V81.324Z" fill="#ECBDBB"/>
<path d="M167.43 97.8599C167.36 97.8601 167.291 97.8414 167.231 97.8057C167.17 97.77 167.121 97.7187 167.087 97.657C167.053 97.5954 167.037 97.5258 167.039 97.4555C167.041 97.3852 167.062 97.3168 167.1 97.2575L177.75 80.7116C177.806 80.6237 177.894 80.5616 177.995 80.539C178.096 80.5165 178.202 80.5352 178.29 80.5911C178.378 80.647 178.439 80.7355 178.462 80.8372C178.484 80.9389 178.466 81.0454 178.41 81.1332L167.76 97.6792C167.725 97.7348 167.676 97.7805 167.618 97.8121C167.56 97.8437 167.496 97.8601 167.43 97.8599Z" fill="#ECBDBB"/>
<path d="M337.46 92.1973C337.46 92.1973 335.46 101.083 328.78 99.7574C328.78 99.7574 335.88 101.765 334.18 110.45C334.18 110.45 336.07 101.796 342.66 102.518C342.65 102.518 336.4 100.209 337.46 92.1973Z" fill="#475B5B"/>
<path d="M324.45 82.1372C321.59 81.6252 320.65 88.2215 323.32 88.9444C325.99 89.6672 327.32 82.6593 324.45 82.1372Z" fill="#878D8B"/>
<path d="M343.69 110.32C341.94 110.008 341.37 114.034 343 114.476C344.63 114.918 345.45 110.641 343.69 110.32Z" fill="#878D8B"/>
<path d="M145.16 92.7596C145.16 92.7596 146.56 99.9181 141.23 101.123C141.23 101.123 147.09 100.32 148.63 107.207C148.63 107.207 147.23 100.249 152.3 98.643C152.29 98.653 147 98.9844 145.16 92.7596Z" fill="#475B5B"/>
<path d="M152.57 199.284C152.57 199.284 155.33 205.75 150.57 207.979C150.57 207.979 155.94 206.031 158.78 212.215C158.78 212.215 156.06 205.93 160.51 203.39C160.48 203.39 155.52 204.816 152.57 199.284Z" fill="#475B5B"/>
<path d="M197.18 56.6959C197.18 56.6959 194.71 63.1918 189.79 61.4548C189.79 61.4548 194.93 63.7841 192.7 70.1294C192.7 70.1294 195.07 63.7942 199.97 65.1094C200 65.0692 195.5 62.6295 197.18 56.6959Z" fill="#475B5B"/>
<path d="M167.08 211.593C164.91 211.513 164.01 217.215 166.55 217.476C169.09 217.737 170.55 211.734 167.08 211.593Z" fill="#878D8B"/>
</svg>
